<svg width="88" height="88" viewBox="0 0 88 88" fill="none" xmlns="http://www.w3.org/2000/svg">
<g clip-path="url(#clip0_2001_261)">
<path d="M36.1558 0H34.6475C33.8153 0 33.1392 0.676147 33.1392 1.50833C33.1392 2.34051 33.8153 3.01666 34.6475 3.01666H36.1558V0Z" fill="#2A2A2A"/>
<path d="M36.1558 3.01275H37.6641C38.4963 3.01275 39.1724 2.3366 39.1724 1.50442C39.1724 0.672241 38.4963 -0.00390625 37.6641 -0.00390625H36.1558V3.00875V3.01275Z" fill="#2A2A2A"/>
<path d="M45.1938 1.50833C45.1938 2.34051 45.87 3.01666 46.7022 3.01666C47.5344 3.01666 48.2105 2.34051 48.2105 1.50833C48.2105 0.676147 47.5344 0 46.7022 0C45.87 0 45.1938 0.676147 45.1938 1.50833Z" fill="#2A2A2A"/>
<path d="M51.2193 1.50833V3.01666H54.232V0H52.7237C51.8915 0 51.2153 0.676147 51.2153 1.50833H51.2193Z" fill="#2A2A2A"/>
<path d="M57.2446 0H54.2319V3.01266H57.2446V0Z" fill="#2A2A2A"/>
<path d="M60.2568 1.50833V3.01666H57.2441V0H58.7525C59.5847 0 60.2608 0.676147 60.2608 1.50833H60.2568Z" fill="#2A2A2A"/>
<path d="M25.6094 6.02542H27.1177V4.51709C27.1177 5.34927 26.4416 6.02542 25.6094 6.02542Z" fill="#2A2A2A"/>
<path d="M30.1304 6.02496V4.51663C30.1304 3.68445 29.4543 3.0083 28.6221 3.0083C27.7899 3.0083 27.1138 3.68445 27.1138 4.51663V6.02496H30.1264H30.1304Z" fill="#2A2A2A"/>
<path d="M30.1309 4.521V6.02932H31.6392C30.807 6.02932 30.1309 5.35318 30.1309 4.521Z" fill="#2A2A2A"/>
<path d="M39.1685 4.52102C39.1685 5.3532 39.8446 6.02935 40.6768 6.02935C41.509 6.02935 42.1851 5.3532 42.1851 4.52102C42.1851 3.68884 41.509 3.0127 40.6768 3.0127C39.8446 3.0127 39.1685 3.68884 39.1685 4.52102Z" fill="#2A2A2A"/>
<path d="M51.2192 3.0127V4.52102C51.2192 5.3532 51.8954 6.02935 52.7276 6.02935C53.5597 6.02935 54.2359 5.3532 54.2359 4.52102V3.0127H51.2232H51.2192Z" fill="#2A2A2A"/>
<path d="M54.2319 4.52102V3.0127H55.7403C54.9081 3.0127 54.2319 3.68884 54.2319 4.52102Z" fill="#2A2A2A"/>
<path d="M57.2442 4.52102V3.0127H55.7358C56.568 3.0127 57.2442 3.68884 57.2442 4.52102Z" fill="#2A2A2A"/>
<path d="M57.2441 3.0127V4.52102C57.2441 5.3532 57.9203 6.02935 58.7525 6.02935C59.5847 6.02935 60.2608 5.3532 60.2608 4.52102V3.0127H57.2481H57.2441Z" fill="#2A2A2A"/>
<path d="M24.1051 7.53362V9.04195H27.1177V6.0293H25.6094C24.7772 6.0293 24.1011 6.70544 24.1011 7.53762L24.1051 7.53362Z" fill="#2A2A2A"/>
<path d="M30.1303 6.02539H27.1177V9.03805H30.1303V6.02539Z" fill="#2A2A2A"/>
<path d="M30.1309 9.03814H31.6392C32.4714 9.03814 33.1475 8.36199 33.1475 7.52981C33.1475 6.69763 32.4714 6.02148 31.6392 6.02148H30.1309V9.03414V9.03814Z" fill="#2A2A2A"/>
<path d="M25.6098 12.0507H27.1181V9.03809H24.1055V10.5464C24.1055 11.3786 24.7816 12.0547 25.6138 12.0547L25.6098 12.0507Z" fill="#2A2A2A"/>
<path d="M28.6221 12.0507H27.1138V9.03809H30.1264V10.5464C30.1264 11.3786 29.4503 12.0547 28.6181 12.0547L28.6221 12.0507Z" fill="#2A2A2A"/>
<path d="M30.1309 10.5464V9.03809H31.6392C30.807 9.03809 30.1309 9.71423 30.1309 10.5464Z" fill="#2A2A2A"/>
<path d="M37.6602 12.0503H39.1685V10.542C39.1685 11.3742 38.4923 12.0503 37.6602 12.0503Z" fill="#2A2A2A"/>
<path d="M42.1812 12.0508V10.5425C42.1812 9.71033 41.5051 9.03418 40.6729 9.03418C39.8407 9.03418 39.1646 9.71033 39.1646 10.5425V12.0508H42.1772H42.1812Z" fill="#2A2A2A"/>
<path d="M42.1812 10.5464V12.0547H43.6895C42.8573 12.0547 42.1812 11.3786 42.1812 10.5464Z" fill="#2A2A2A"/>
<path d="M48.2066 9.03809H46.6983C45.8661 9.03809 45.1899 9.71423 45.1899 10.5464C45.1899 11.3786 45.8661 12.0547 46.6983 12.0547H48.2066V9.04209V9.03809Z" fill="#2A2A2A"/>
<path d="M51.2192 9.03809H48.2065V12.0507H51.2192V9.03809Z" fill="#2A2A2A"/>
<path d="M54.2319 9.03809H51.2192V12.0507H54.2319V9.03809Z" fill="#2A2A2A"/>
<path d="M57.2446 10.5463V12.0546H54.2319V9.04199H55.7403C56.5724 9.04199 57.2486 9.71814 57.2486 10.5503L57.2446 10.5463Z" fill="#2A2A2A"/>
<path d="M30.1305 13.559V15.0673H33.1431V12.0547H31.6348C30.8026 12.0547 30.1265 12.7308 30.1265 13.563L30.1305 13.559Z" fill="#2A2A2A"/>
<path d="M36.1557 12.0508H33.1431V15.0634H36.1557V12.0508Z" fill="#2A2A2A"/>
<path d="M39.1684 12.0508H36.1558V15.0634H39.1684V12.0508Z" fill="#2A2A2A"/>
<path d="M42.1811 12.0508H39.1685V15.0634H42.1811V12.0508Z" fill="#2A2A2A"/>
<path d="M42.1812 15.0635H43.6895C44.5217 15.0635 45.1978 14.3874 45.1978 13.5552C45.1978 12.723 44.5217 12.0469 43.6895 12.0469H42.1812V15.0595V15.0635Z" fill="#2A2A2A"/>
<path d="M51.2193 13.5591V12.0508H49.7109C50.5431 12.0508 51.2193 12.7269 51.2193 13.5591Z" fill="#2A2A2A"/>
<path d="M49.7148 15.063H51.2232V13.5547C51.2232 14.3869 50.547 15.063 49.7148 15.063Z" fill="#2A2A2A"/>
<path d="M54.2319 12.0508H51.2192V15.0634H54.2319V12.0508Z" fill="#2A2A2A"/>
<path d="M57.2446 12.0508H54.2319V15.0634H57.2446V12.0508Z" fill="#2A2A2A"/>
<path d="M63.2696 15.0635V13.5552C63.2696 12.723 62.5934 12.0469 61.7613 12.0469C60.9291 12.0469 60.2529 12.723 60.2529 13.5552V15.0635H63.2656H63.2696Z" fill="#2A2A2A"/>
<path d="M33.1435 15.0635H30.1309V18.0761H33.1435V15.0635Z" fill="#2A2A2A"/>
<path d="M36.1557 15.0635H33.1431V18.0761H36.1557V15.0635Z" fill="#2A2A2A"/>
<path d="M39.1684 15.0635H36.1558V18.0761H39.1684V15.0635Z" fill="#2A2A2A"/>
<path d="M39.1685 16.5718V15.0635H40.6768C39.8446 15.0635 39.1685 15.7396 39.1685 16.5718Z" fill="#2A2A2A"/>
<path d="M48.2066 16.5717V18.08H51.2193V15.0674H49.711C48.8788 15.0674 48.2026 15.7435 48.2026 16.5757L48.2066 16.5717Z" fill="#2A2A2A"/>
<path d="M54.2319 15.0635H51.2192V18.0761H54.2319V15.0635Z" fill="#2A2A2A"/>
<path d="M57.2446 15.0635H54.2319V18.0761H57.2446V15.0635Z" fill="#2A2A2A"/>
<path d="M63.27 15.0635H60.2573V18.0761H63.27V15.0635Z" fill="#2A2A2A"/>
<path d="M24.1055 19.584C24.1055 20.4162 24.7816 21.0923 25.6138 21.0923C26.446 21.0923 27.1221 20.4162 27.1221 19.584C27.1221 18.7518 26.446 18.0757 25.6138 18.0757C24.7816 18.0757 24.1055 18.7518 24.1055 19.584Z" fill="#2A2A2A"/>
<path d="M30.1309 18.0757V19.584C30.1309 20.4162 30.807 21.0923 31.6392 21.0923C32.4714 21.0923 33.1475 20.4162 33.1475 19.584V18.0757H30.1349H30.1309Z" fill="#2A2A2A"/>
<path d="M33.1431 19.584V18.0757H34.6514C33.8192 18.0757 33.1431 18.7518 33.1431 19.584Z" fill="#2A2A2A"/>
<path d="M36.1558 19.584V18.0757H34.6475C35.4796 18.0757 36.1558 18.7518 36.1558 19.584Z" fill="#2A2A2A"/>
<path d="M36.1558 18.0757V19.584C36.1558 20.4162 36.8319 21.0923 37.6641 21.0923C38.4963 21.0923 39.1724 20.4162 39.1724 19.584V18.0757H36.1598H36.1558Z" fill="#2A2A2A"/>
<path d="M42.1812 19.584C42.1812 20.4162 42.8573 21.0923 43.6895 21.0923C44.5217 21.0923 45.1978 20.4162 45.1978 19.584C45.1978 18.7518 44.5217 18.0757 43.6895 18.0757C42.8573 18.0757 42.1812 18.7518 42.1812 19.584Z" fill="#2A2A2A"/>
<path d="M51.2192 18.0757H48.2065V21.0883H51.2192V18.0757Z" fill="#2A2A2A"/>
<path d="M51.2192 19.584V18.0757H52.7276C51.8954 18.0757 51.2192 18.7518 51.2192 19.584Z" fill="#2A2A2A"/>
<path d="M54.232 19.584V18.0757H52.7236C53.5558 18.0757 54.232 18.7518 54.232 19.584Z" fill="#2A2A2A"/>
<path d="M57.2446 18.0757H54.2319V21.0883H57.2446V18.0757Z" fill="#2A2A2A"/>
<path d="M60.2573 18.0757V19.584C60.2573 20.4162 60.9335 21.0923 61.7657 21.0923C62.5978 21.0923 63.274 20.4162 63.274 19.584V18.0757H60.2613H60.2573Z" fill="#2A2A2A"/>
<path d="M27.1177 22.5967C27.1177 23.4289 27.7938 24.105 28.626 24.105C29.4582 24.105 30.1343 23.4289 30.1343 22.5967C30.1343 21.7645 29.4582 21.0884 28.626 21.0884C27.7938 21.0884 27.1177 21.7645 27.1177 22.5967Z" fill="#2A2A2A"/>
<path d="M51.2192 21.0884H48.2065V24.101H51.2192V21.0884Z" fill="#2A2A2A"/>
<path d="M57.2446 21.0884H54.2319V24.101H57.2446V21.0884Z" fill="#2A2A2A"/>
<path d="M57.2441 22.5967V24.105H58.7525C57.9203 24.105 57.2441 23.4289 57.2441 22.5967Z" fill="#2A2A2A"/>
<path d="M9.03818 25.6098V27.1181H12.0508V24.1055H10.5425C9.71033 24.1055 9.03418 24.7816 9.03418 25.6138L9.03818 25.6098Z" fill="#2A2A2A"/>
<path d="M12.0508 27.1182H13.5591C14.3913 27.1182 15.0674 26.4421 15.0674 25.6099C15.0674 24.7777 14.3913 24.1016 13.5591 24.1016H12.0508V27.1142V27.1182Z" fill="#2A2A2A"/>
<path d="M21.0884 24.1055H19.5801C18.7479 24.1055 18.0718 24.7816 18.0718 25.6138C18.0718 26.446 18.7479 27.1221 19.5801 27.1221H21.0884V24.1095V24.1055Z" fill="#2A2A2A"/>
<path d="M24.1049 25.6098V27.1181H21.0923V24.1055H22.6006C23.4328 24.1055 24.1089 24.7816 24.1089 25.6138L24.1049 25.6098Z" fill="#2A2A2A"/>
<path d="M24.1055 25.6094V27.1177H25.6138C24.7816 27.1177 24.1055 26.4416 24.1055 25.6094Z" fill="#2A2A2A"/>
<path d="M36.1558 24.1055H34.6475C33.8153 24.1055 33.1392 24.7816 33.1392 25.6138C33.1392 26.446 33.8153 27.1221 34.6475 27.1221H36.1558V24.1095V24.1055Z" fill="#2A2A2A"/>
<path d="M39.1684 24.1055H36.1558V27.1181H39.1684V24.1055Z" fill="#2A2A2A"/>
<path d="M42.1811 24.1055H39.1685V27.1181H42.1811V24.1055Z" fill="#2A2A2A"/>
<path d="M42.1812 27.1182H43.6895C44.5217 27.1182 45.1978 26.4421 45.1978 25.6099C45.1978 24.7777 44.5217 24.1016 43.6895 24.1016H42.1812V27.1142V27.1182Z" fill="#2A2A2A"/>
<path d="M48.2065 24.1055V25.6138C48.2065 26.446 48.8827 27.1221 49.7149 27.1221C50.5471 27.1221 51.2232 26.446 51.2232 25.6138V24.1055H48.2105H48.2065Z" fill="#2A2A2A"/>
<path d="M55.7402 27.1181H57.2485V24.1055H54.2358V25.6138C54.2358 26.446 54.912 27.1221 55.7442 27.1221L55.7402 27.1181Z" fill="#2A2A2A"/>
<path d="M60.2568 24.1055H57.2441V27.1181H60.2568V24.1055Z" fill="#2A2A2A"/>
<path d="M63.27 25.6098V27.1181H60.2573V24.1055H61.7657C62.5978 24.1055 63.274 24.7816 63.274 25.6138L63.27 25.6098Z" fill="#2A2A2A"/>
<path d="M78.337 24.1055H76.8286C75.9965 24.1055 75.3203 24.7816 75.3203 25.6138C75.3203 26.446 75.9965 27.1221 76.8286 27.1221H78.337V24.1095V24.1055Z" fill="#2A2A2A"/>
<path d="M81.3496 25.6098V27.1181H78.3369V24.1055H79.8452C80.6774 24.1055 81.3536 24.7816 81.3536 25.6138L81.3496 25.6098Z" fill="#2A2A2A"/>
<path d="M0 28.6221C0 29.4543 0.676147 30.1304 1.50833 30.1304C2.34051 30.1304 3.01666 29.4543 3.01666 28.6221C3.01666 27.7899 2.34051 27.1138 1.50833 27.1138C0.676147 27.1138 0 27.7899 0 28.6221Z" fill="#2A2A2A"/>
<path d="M9.03809 27.1182V28.6265C9.03809 29.4587 9.71423 30.1348 10.5464 30.1348C11.3786 30.1348 12.0547 29.4587 12.0547 28.6265V27.1182H9.04209H9.03809Z" fill="#2A2A2A"/>
<path d="M12.0508 28.6221V27.1138H13.5591C12.7269 27.1138 12.0508 27.7899 12.0508 28.6221Z" fill="#2A2A2A"/>
<path d="M15.0635 28.6221C15.0635 29.4543 15.7396 30.1304 16.5718 30.1304C17.404 30.1304 18.0801 29.4543 18.0801 28.6221C18.0801 27.7899 17.404 27.1138 16.5718 27.1138C15.7396 27.1138 15.0635 27.7899 15.0635 28.6221Z" fill="#2A2A2A"/>
<path d="M21.0884 28.6221V27.1138H19.5801C20.4123 27.1138 21.0884 27.7899 21.0884 28.6221Z" fill="#2A2A2A"/>
<path d="M22.5966 30.1308H24.1049V27.1182H21.0923V28.6265C21.0923 29.4587 21.7684 30.1348 22.6006 30.1348L22.5966 30.1308Z" fill="#2A2A2A"/>
<path d="M27.1181 28.6225V30.1308H24.1055V27.1182H25.6138C26.446 27.1182 27.1221 27.7943 27.1221 28.6265L27.1181 28.6225Z" fill="#2A2A2A"/>
<path d="M60.2574 28.6221V27.1138H58.749C59.5812 27.1138 60.2574 27.7899 60.2574 28.6221Z" fill="#2A2A2A"/>
<path d="M60.2573 27.1182V28.6265C60.2573 29.4587 60.9335 30.1348 61.7657 30.1348C62.5978 30.1348 63.274 29.4587 63.274 28.6265V27.1182H60.2613H60.2573Z" fill="#2A2A2A"/>
<path d="M72.3115 28.6221C72.3115 29.4543 72.9877 30.1304 73.8198 30.1304C74.652 30.1304 75.3282 29.4543 75.3282 28.6221C75.3282 27.7899 74.652 27.1138 73.8198 27.1138C72.9877 27.1138 72.3115 27.7899 72.3115 28.6221Z" fill="#2A2A2A"/>
<path d="M78.3369 28.6221V27.1138H76.8286C77.6608 27.1138 78.3369 27.7899 78.3369 28.6221Z" fill="#2A2A2A"/>
<path d="M78.3369 27.1182V28.6265C78.3369 29.4587 79.0131 30.1348 79.8452 30.1348C80.6774 30.1348 81.3536 29.4587 81.3536 28.6265V27.1182H78.3409H78.3369Z" fill="#2A2A2A"/>
<path d="M6.02545 30.1304H4.51712C3.68494 30.1304 3.00879 30.8065 3.00879 31.6387C3.00879 32.4709 3.68494 33.147 4.51712 33.147H6.02545V30.1344V30.1304Z" fill="#2A2A2A"/>
<path d="M9.03805 31.6347V33.143H6.02539V30.1304H7.53372C8.3659 30.1304 9.04205 30.8065 9.04205 31.6387L9.03805 31.6347Z" fill="#2A2A2A"/>
<path d="M9.03809 31.6353V33.1436H10.5464C9.71423 33.1436 9.03809 32.4674 9.03809 31.6353Z" fill="#2A2A2A"/>
<path d="M12.0508 31.6348C12.0508 32.467 12.7269 33.1431 13.5591 33.1431C14.3913 33.1431 15.0674 32.467 15.0674 31.6348C15.0674 30.8026 14.3913 30.1265 13.5591 30.1265C12.7269 30.1265 12.0508 30.8026 12.0508 31.6348Z" fill="#2A2A2A"/>
<path d="M18.0757 31.6348C18.0757 32.467 18.7518 33.1431 19.584 33.1431C20.4162 33.1431 21.0923 32.467 21.0923 31.6348C21.0923 30.8026 20.4162 30.1265 19.584 30.1265C18.7518 30.1265 18.0757 30.8026 18.0757 31.6348Z" fill="#2A2A2A"/>
<path d="M24.1055 31.6348V30.1265H22.5972C23.4293 30.1265 24.1055 30.8026 24.1055 31.6348Z" fill="#2A2A2A"/>
<path d="M24.1055 30.1304V31.6387C24.1055 32.4709 24.7816 33.147 25.6138 33.147C26.446 33.147 27.1221 32.4709 27.1221 31.6387V30.1304H24.1095H24.1055Z" fill="#2A2A2A"/>
<path d="M69.2993 31.6348C69.2993 32.467 69.9755 33.1431 70.8076 33.1431C71.6398 33.1431 72.316 32.467 72.316 31.6348C72.316 30.8026 71.6398 30.1265 70.8076 30.1265C69.9755 30.1265 69.2993 30.8026 69.2993 31.6348Z" fill="#2A2A2A"/>
<path d="M6.02542 34.6475V33.1392H4.51709C5.34927 33.1392 6.02542 33.8153 6.02542 34.6475Z" fill="#2A2A2A"/>
<path d="M9.03805 33.1431H6.02539V36.1557H9.03805V33.1431Z" fill="#2A2A2A"/>
<path d="M9.03809 36.1558H10.5464C11.3786 36.1558 12.0547 35.4797 12.0547 34.6475C12.0547 33.8153 11.3786 33.1392 10.5464 33.1392H9.03809V36.1518V36.1558Z" fill="#2A2A2A"/>
<path d="M63.2696 33.1431H61.7613C60.9291 33.1431 60.2529 33.8192 60.2529 34.6514C60.2529 35.4836 60.9291 36.1597 61.7613 36.1597H63.2696V33.1471V33.1431Z" fill="#2A2A2A"/>
<path d="M66.2822 34.6474V36.1557H63.2695V33.1431H64.7779C65.61 33.1431 66.2862 33.8192 66.2862 34.6514L66.2822 34.6474Z" fill="#2A2A2A"/>
<path d="M66.2827 34.6475V36.1558H67.791C66.9589 36.1558 66.2827 35.4796 66.2827 34.6475Z" fill="#2A2A2A"/>
<path d="M70.8032 36.1558H72.3116V34.6475C72.3116 35.4796 71.6354 36.1558 70.8032 36.1558Z" fill="#2A2A2A"/>
<path d="M72.3116 34.6474V36.1557H75.3243V33.1431H73.8159C72.9838 33.1431 72.3076 33.8192 72.3076 34.6514L72.3116 34.6474Z" fill="#2A2A2A"/>
<path d="M78.3369 33.1431H75.3242V36.1557H78.3369V33.1431Z" fill="#2A2A2A"/>
<path d="M81.3496 33.1431H78.3369V36.1557H81.3496V33.1431Z" fill="#2A2A2A"/>
<path d="M84.3623 33.1431H81.3496V36.1557H84.3623V33.1431Z" fill="#2A2A2A"/>
<path d="M87.375 34.6474V36.1557H84.3623V33.1431H85.8706C86.7028 33.1431 87.379 33.8192 87.379 34.6514L87.375 34.6474Z" fill="#2A2A2A"/>
<path d="M0 37.6602C0 38.4924 0.676147 39.1685 1.50833 39.1685C2.34051 39.1685 3.01666 38.4924 3.01666 37.6602C3.01666 36.828 2.34051 36.1519 1.50833 36.1519C0.676147 36.1519 0 36.828 0 37.6602Z" fill="#2A2A2A"/>
<path d="M4.521 39.1685H6.02932V37.6602C6.02932 38.4923 5.35318 39.1685 4.521 39.1685Z" fill="#2A2A2A"/>
<path d="M9.03805 36.1558H6.02539V39.1684H9.03805V36.1558Z" fill="#2A2A2A"/>
<path d="M9.03809 37.6602V36.1519H10.5464C9.71423 36.1519 9.03809 36.828 9.03809 37.6602Z" fill="#2A2A2A"/>
<path d="M9.03809 37.6602V39.1685H10.5464C9.71423 39.1685 9.03809 38.4923 9.03809 37.6602Z" fill="#2A2A2A"/>
<path d="M12.0508 37.6602C12.0508 38.4924 12.7269 39.1685 13.5591 39.1685C14.3913 39.1685 15.0674 38.4924 15.0674 37.6602C15.0674 36.828 14.3913 36.1519 13.5591 36.1519C12.7269 36.1519 12.0508 36.828 12.0508 37.6602Z" fill="#2A2A2A"/>
<path d="M18.0757 37.6602C18.0757 38.4924 18.7518 39.1685 19.584 39.1685C20.4162 39.1685 21.0923 38.4924 21.0923 37.6602C21.0923 36.828 20.4162 36.1519 19.584 36.1519C18.7518 36.1519 18.0757 36.828 18.0757 37.6602Z" fill="#2A2A2A"/>
<path d="M24.1055 37.6602C24.1055 38.4924 24.7816 39.1685 25.6138 39.1685C26.446 39.1685 27.1221 38.4924 27.1221 37.6602C27.1221 36.828 26.446 36.1519 25.6138 36.1519C24.7816 36.1519 24.1055 36.828 24.1055 37.6602Z" fill="#2A2A2A"/>
<path d="M63.2696 37.6602V36.1519H61.7612C62.5934 36.1519 63.2696 36.828 63.2696 37.6602Z" fill="#2A2A2A"/>
<path d="M66.2822 36.1558H63.2695V39.1684H66.2822V36.1558Z" fill="#2A2A2A"/>
<path d="M69.2954 36.1558H66.2827V39.1684H69.2954V36.1558Z" fill="#2A2A2A"/>
<path d="M72.312 36.1558H69.2993V39.1684H72.312V36.1558Z" fill="#2A2A2A"/>
<path d="M75.3242 36.1558H72.3115V39.1684H75.3242V36.1558Z" fill="#2A2A2A"/>
<path d="M76.8286 39.1684H75.3203V36.1558H78.333V37.6641C78.333 38.4963 77.6568 39.1724 76.8246 39.1724L76.8286 39.1684Z" fill="#2A2A2A"/>
<path d="M78.3369 37.6602V36.1519H79.8452C79.0131 36.1519 78.3369 36.828 78.3369 37.6602Z" fill="#2A2A2A"/>
<path d="M81.3496 37.6602V36.1519H79.8413C80.6735 36.1519 81.3496 36.828 81.3496 37.6602Z" fill="#2A2A2A"/>
<path d="M79.8413 39.1685H81.3496V37.6602C81.3496 38.4923 80.6735 39.1685 79.8413 39.1685Z" fill="#2A2A2A"/>
<path d="M84.3623 36.1558H81.3496V39.1684H84.3623V36.1558Z" fill="#2A2A2A"/>
<path d="M87.375 36.1558H84.3623V39.1684H87.375V36.1558Z" fill="#2A2A2A"/>
<path d="M6.02545 39.1685H4.51712C3.68494 39.1685 3.00879 39.8446 3.00879 40.6768C3.00879 41.509 3.68494 42.1851 4.51712 42.1851H6.02545V39.1725V39.1685Z" fill="#2A2A2A"/>
<path d="M9.03805 39.1685H6.02539V42.1811H9.03805V39.1685Z" fill="#2A2A2A"/>
<path d="M12.0507 40.6728V42.1811H9.03809V39.1685H10.5464C11.3786 39.1685 12.0547 39.8446 12.0547 40.6768L12.0507 40.6728Z" fill="#2A2A2A"/>
<path d="M12.0508 40.6729V42.1812H13.5591C12.7269 42.1812 12.0508 41.505 12.0508 40.6729Z" fill="#2A2A2A"/>
<path d="M64.7783 42.1811H66.2866V39.1685H63.2739V40.6768C63.2739 41.509 63.9501 42.1851 64.7823 42.1851L64.7783 42.1811Z" fill="#2A2A2A"/>
<path d="M69.2954 39.1685H66.2827V42.1811H69.2954V39.1685Z" fill="#2A2A2A"/>
<path d="M69.2993 40.6729V39.1646H70.8076C69.9755 39.1646 69.2993 39.8407 69.2993 40.6729Z" fill="#2A2A2A"/>
<path d="M72.3116 40.6729V39.1646H70.8032C71.6354 39.1646 72.3116 39.8407 72.3116 40.6729Z" fill="#2A2A2A"/>
<path d="M69.2993 40.6729V42.1812H70.8076C69.9755 42.1812 69.2993 41.505 69.2993 40.6729Z" fill="#2A2A2A"/>
<path d="M72.3115 39.1685V40.6768C72.3115 41.509 72.9877 42.1851 73.8198 42.1851C74.652 42.1851 75.3282 41.509 75.3282 40.6768V39.1685H72.3155H72.3115Z" fill="#2A2A2A"/>
<path d="M75.3242 40.6729V39.1646H76.8325C76.0004 39.1646 75.3242 39.8407 75.3242 40.6729Z" fill="#2A2A2A"/>
<path d="M76.8286 42.1812H78.3369V40.6729C78.3369 41.505 77.6608 42.1812 76.8286 42.1812Z" fill="#2A2A2A"/>
<path d="M78.337 40.6728V42.1811H81.3497V39.1685H79.8413C79.0092 39.1685 78.333 39.8446 78.333 40.6768L78.337 40.6728Z" fill="#2A2A2A"/>
<path d="M84.3623 39.1685H81.3496V42.1811H84.3623V39.1685Z" fill="#2A2A2A"/>
<path d="M85.8667 42.1811H84.3584V39.1685H87.3711V40.6768C87.3711 41.509 86.6949 42.1851 85.8627 42.1851L85.8667 42.1811Z" fill="#2A2A2A"/>
<path d="M9.03811 43.6856V42.1772H7.52979C8.36197 42.1772 9.03811 42.8534 9.03811 43.6856Z" fill="#2A2A2A"/>
<path d="M12.0507 42.1812H9.03809V45.1938H12.0507V42.1812Z" fill="#2A2A2A"/>
<path d="M15.0634 43.6855V45.1938H12.0508V42.1812H13.5591C14.3913 42.1812 15.0674 42.8573 15.0674 43.6895L15.0634 43.6855Z" fill="#2A2A2A"/>
<path d="M15.0635 43.6855V45.1939H16.5718C15.7396 45.1939 15.0635 44.5177 15.0635 43.6855Z" fill="#2A2A2A"/>
<path d="M18.0757 43.6856C18.0757 44.5178 18.7518 45.1939 19.584 45.1939C20.4162 45.1939 21.0923 44.5178 21.0923 43.6856C21.0923 42.8534 20.4162 42.1772 19.584 42.1772C18.7518 42.1772 18.0757 42.8534 18.0757 43.6856Z" fill="#2A2A2A"/>
<path d="M22.5972 45.1939H24.1055V43.6855C24.1055 44.5177 23.4293 45.1939 22.5972 45.1939Z" fill="#2A2A2A"/>
<path d="M27.1177 45.1939V43.6856C27.1177 42.8534 26.4416 42.1772 25.6094 42.1772C24.7772 42.1772 24.1011 42.8534 24.1011 43.6856V45.1939H27.1137H27.1177Z" fill="#2A2A2A"/>
<path d="M66.2823 43.6856V42.1772H64.7739C65.6061 42.1772 66.2823 42.8534 66.2823 43.6856Z" fill="#2A2A2A"/>
<path d="M67.791 45.1938H69.2993V42.1812H66.2866V43.6895C66.2866 44.5217 66.9628 45.1978 67.795 45.1978L67.791 45.1938Z" fill="#2A2A2A"/>
<path d="M72.312 43.6855V45.1938H69.2993V42.1812H70.8076C71.6398 42.1812 72.316 42.8573 72.316 43.6895L72.312 43.6855Z" fill="#2A2A2A"/>
<path d="M72.3115 43.6855V45.1939H73.8198C72.9877 45.1939 72.3115 44.5177 72.3115 43.6855Z" fill="#2A2A2A"/>
<path d="M78.337 42.1812H76.8286C75.9965 42.1812 75.3203 42.8573 75.3203 43.6895C75.3203 44.5217 75.9965 45.1978 76.8286 45.1978H78.337V42.1852V42.1812Z" fill="#2A2A2A"/>
<path d="M79.8413 45.1938H78.333V42.1812H81.3457V43.6895C81.3457 44.5217 80.6695 45.1978 79.8373 45.1978L79.8413 45.1938Z" fill="#2A2A2A"/>
<path d="M81.3496 43.6856V42.1772H82.8579C82.0258 42.1772 81.3496 42.8534 81.3496 43.6856Z" fill="#2A2A2A"/>
<path d="M3.0127 46.7022C3.0127 47.5344 3.68884 48.2105 4.52102 48.2105C5.3532 48.2105 6.02935 47.5344 6.02935 46.7022C6.02935 45.87 5.3532 45.1938 4.52102 45.1938C3.68884 45.1938 3.0127 45.87 3.0127 46.7022Z" fill="#2A2A2A"/>
<path d="M10.5463 48.2065H12.0546V45.1938H9.04199V46.7022C9.04199 47.5344 9.71814 48.2105 10.5503 48.2105L10.5463 48.2065Z" fill="#2A2A2A"/>
<path d="M15.0634 45.1938H12.0508V48.2065H15.0634V45.1938Z" fill="#2A2A2A"/>
<path d="M15.0635 48.2066H16.5718C17.404 48.2066 18.0801 47.5305 18.0801 46.6983C18.0801 45.8661 17.404 45.1899 16.5718 45.1899H15.0635V48.2026V48.2066Z" fill="#2A2A2A"/>
<path d="M19.584 48.2066H21.0923V46.6982C21.0923 47.5304 20.4162 48.2066 19.584 48.2066Z" fill="#2A2A2A"/>
<path d="M21.0885 46.7021V48.2104H24.1011V45.1978H22.5928C21.7606 45.1978 21.0845 45.8739 21.0845 46.7061L21.0885 46.7021Z" fill="#2A2A2A"/>
<path d="M27.1181 45.1938H24.1055V48.2065H27.1181V45.1938Z" fill="#2A2A2A"/>
<path d="M63.2696 48.2066V46.6983C63.2696 45.8661 62.5934 45.1899 61.7613 45.1899C60.9291 45.1899 60.2529 45.8661 60.2529 46.6983V48.2066H63.2656H63.2696Z" fill="#2A2A2A"/>
<path d="M69.2993 46.7022V45.1938H67.791C68.6232 45.1938 69.2993 45.87 69.2993 46.7022Z" fill="#2A2A2A"/>
<path d="M70.8036 48.2065H72.312V45.1938H69.2993V46.7022C69.2993 47.5344 69.9755 48.2105 70.8076 48.2105L70.8036 48.2065Z" fill="#2A2A2A"/>
<path d="M72.3115 48.2066H73.8198C74.652 48.2066 75.3282 47.5305 75.3282 46.6983C75.3282 45.8661 74.652 45.1899 73.8198 45.1899H72.3115V48.2026V48.2066Z" fill="#2A2A2A"/>
<path d="M6.02539 49.7149C6.02539 50.5471 6.70154 51.2232 7.53372 51.2232C8.3659 51.2232 9.04205 50.5471 9.04205 49.7149C9.04205 48.8827 8.3659 48.2065 7.53372 48.2065C6.70154 48.2065 6.02539 48.8827 6.02539 49.7149Z" fill="#2A2A2A"/>
<path d="M21.0884 48.2065H19.5801C18.7479 48.2065 18.0718 48.8827 18.0718 49.7149C18.0718 50.5471 18.7479 51.2232 19.5801 51.2232H21.0884V48.2105V48.2065Z" fill="#2A2A2A"/>
<path d="M24.101 48.2065H21.0884V51.2192H24.101V48.2065Z" fill="#2A2A2A"/>
<path d="M25.6094 51.2192H24.1011V48.2065H27.1137V49.7149C27.1137 50.5471 26.4376 51.2232 25.6054 51.2232L25.6094 51.2192Z" fill="#2A2A2A"/>
<path d="M60.2573 48.2065V49.7149C60.2573 50.5471 60.9335 51.2232 61.7657 51.2232C62.5978 51.2232 63.274 50.5471 63.274 49.7149V48.2065H60.2613H60.2573Z" fill="#2A2A2A"/>
<path d="M78.3369 49.7149C78.3369 50.5471 79.0131 51.2232 79.8452 51.2232C80.6774 51.2232 81.3536 50.5471 81.3536 49.7149C81.3536 48.8827 80.6774 48.2065 79.8452 48.2065C79.0131 48.2065 78.3369 48.8827 78.3369 49.7149Z" fill="#2A2A2A"/>
<path d="M9.462e-05 52.7275V54.2358H3.01275V51.2231H1.50442C0.672241 51.2231 -0.00390625 51.8993 -0.00390625 52.7315L9.462e-05 52.7275Z" fill="#2A2A2A"/>
<path d="M6.02535 52.7275V54.2358H3.0127V51.2231H4.52102C5.3532 51.2231 6.02935 51.8993 6.02935 52.7315L6.02535 52.7275Z" fill="#2A2A2A"/>
<path d="M9.03818 52.7275V54.2358H12.0508V51.2231H10.5425C9.71033 51.2231 9.03418 51.8993 9.03418 52.7315L9.03818 52.7275Z" fill="#2A2A2A"/>
<path d="M15.0634 51.2192H12.0508V54.2319H15.0634V51.2192Z" fill="#2A2A2A"/>
<path d="M18.0761 52.7275V54.2358H15.0635V51.2231H16.5718C17.404 51.2231 18.0801 51.8993 18.0801 52.7315L18.0761 52.7275Z" fill="#2A2A2A"/>
<path d="M18.0757 52.7275V54.2359H19.584C18.7518 54.2359 18.0757 53.5597 18.0757 52.7275Z" fill="#2A2A2A"/>
<path d="M78.337 54.232V52.7237C78.337 51.8915 77.6608 51.2153 76.8286 51.2153C75.9965 51.2153 75.3203 51.8915 75.3203 52.7237V54.232H78.333H78.337Z" fill="#2A2A2A"/>
<path d="M87.3751 54.232V52.7237C87.3751 51.8915 86.6989 51.2153 85.8667 51.2153C85.0345 51.2153 84.3584 51.8915 84.3584 52.7237V54.232H87.3711H87.3751Z" fill="#2A2A2A"/>
<path d="M3.01266 54.2319H0V57.2446H3.01266V54.2319Z" fill="#2A2A2A"/>
<path d="M6.02535 54.2319H3.0127V57.2446H6.02535V54.2319Z" fill="#2A2A2A"/>
<path d="M6.02539 55.7397V57.2481H7.53372C6.70154 57.2481 6.02539 56.5719 6.02539 55.7397Z" fill="#2A2A2A"/>
<path d="M9.03809 54.2319V55.7403C9.03809 56.5724 9.71423 57.2486 10.5464 57.2486C11.3786 57.2486 12.0547 56.5724 12.0547 55.7403V54.2319H9.04209H9.03809Z" fill="#2A2A2A"/>
<path d="M12.0508 55.7403V54.2319H13.5591C12.7269 54.2319 12.0508 54.9081 12.0508 55.7403Z" fill="#2A2A2A"/>
<path d="M15.063 55.7403V54.2319H13.5547C14.3869 54.2319 15.063 54.9081 15.063 55.7403Z" fill="#2A2A2A"/>
<path d="M18.0761 54.2319H15.0635V57.2446H18.0761V54.2319Z" fill="#2A2A2A"/>
<path d="M18.0757 57.2447H19.584C20.4162 57.2447 21.0923 56.5685 21.0923 55.7364C21.0923 54.9042 20.4162 54.228 19.584 54.228H18.0757V57.2407V57.2447Z" fill="#2A2A2A"/>
<path d="M61.7656 57.2442H63.2739V55.7358C63.2739 56.568 62.5978 57.2442 61.7656 57.2442Z" fill="#2A2A2A"/>
<path d="M63.2696 55.7402V57.2485H66.2823V54.2358H64.7739C63.9418 54.2358 63.2656 54.912 63.2656 55.7442L63.2696 55.7402Z" fill="#2A2A2A"/>
<path d="M69.2954 54.2319H66.2827V57.2446H69.2954V54.2319Z" fill="#2A2A2A"/>
<path d="M69.2993 57.2447H70.8076C71.6398 57.2447 72.316 56.5685 72.316 55.7364C72.316 54.9042 71.6398 54.228 70.8076 54.228H69.2993V57.2407V57.2447Z" fill="#2A2A2A"/>
<path d="M75.3242 54.2319V55.7403C75.3242 56.5724 76.0004 57.2486 76.8325 57.2486C77.6647 57.2486 78.3409 56.5724 78.3409 55.7403V54.2319H75.3282H75.3242Z" fill="#2A2A2A"/>
<path d="M87.375 54.2319H84.3623V57.2446H87.375V54.2319Z" fill="#2A2A2A"/>
<path d="M3.01266 57.2446H0V60.2573H3.01266V57.2446Z" fill="#2A2A2A"/>
<path d="M6.02535 57.2446H3.0127V60.2573H6.02535V57.2446Z" fill="#2A2A2A"/>
<path d="M9.03805 58.7529V60.2612H6.02539V57.2485H7.53372C8.3659 57.2485 9.04205 57.9247 9.04205 58.7569L9.03805 58.7529Z" fill="#2A2A2A"/>
<path d="M9.03809 58.7529V60.2613H10.5464C9.71423 60.2613 9.03809 59.5851 9.03809 58.7529Z" fill="#2A2A2A"/>
<path d="M15.0635 57.2446V58.753C15.0635 59.5851 15.7396 60.2613 16.5718 60.2613C17.404 60.2613 18.0801 59.5851 18.0801 58.753V57.2446H15.0675H15.0635Z" fill="#2A2A2A"/>
<path d="M18.0757 58.753V57.2446H19.584C18.7518 57.2446 18.0757 57.9208 18.0757 58.753Z" fill="#2A2A2A"/>
<path d="M58.7529 60.2574H60.2613V58.749C60.2613 59.5812 59.5851 60.2574 58.7529 60.2574Z" fill="#2A2A2A"/>
<path d="M60.2569 58.7529V60.2612H63.2696V57.2485H61.7613C60.9291 57.2485 60.2529 57.9247 60.2529 58.7569L60.2569 58.7529Z" fill="#2A2A2A"/>
<path d="M66.2822 57.2446H63.2695V60.2573H66.2822V57.2446Z" fill="#2A2A2A"/>
<path d="M69.2954 57.2446H66.2827V60.2573H69.2954V57.2446Z" fill="#2A2A2A"/>
<path d="M69.2993 58.753V57.2446H70.8076C69.9755 57.2446 69.2993 57.9208 69.2993 58.753Z" fill="#2A2A2A"/>
<path d="M70.8032 60.2574H72.3116V58.749C72.3116 59.5812 71.6354 60.2574 70.8032 60.2574Z" fill="#2A2A2A"/>
<path d="M69.2993 58.7529V60.2613H70.8076C69.9755 60.2613 69.2993 59.5851 69.2993 58.7529Z" fill="#2A2A2A"/>
<path d="M75.3243 60.2569V58.7486C75.3243 57.9164 74.6481 57.2402 73.8159 57.2402C72.9838 57.2402 72.3076 57.9164 72.3076 58.7486V60.2569H75.3203H75.3243Z" fill="#2A2A2A"/>
<path d="M75.3242 58.7529V60.2613H76.8325C76.0004 60.2613 75.3242 59.5851 75.3242 58.7529Z" fill="#2A2A2A"/>
<path d="M78.3369 58.753C78.3369 59.5851 79.0131 60.2613 79.8452 60.2613C80.6774 60.2613 81.3536 59.5851 81.3536 58.753C81.3536 57.9208 80.6774 57.2446 79.8452 57.2446C79.0131 57.2446 78.3369 57.9208 78.3369 58.753Z" fill="#2A2A2A"/>
<path d="M84.3623 57.2446V58.753C84.3623 59.5851 85.0385 60.2613 85.8706 60.2613C86.7028 60.2613 87.379 59.5851 87.379 58.753V57.2446H84.3663H84.3623Z" fill="#2A2A2A"/>
<path d="M1.50833 63.2695H3.01666V60.2568H0V61.7652C0 62.5973 0.676147 63.2735 1.50833 63.2735V63.2695Z" fill="#2A2A2A"/>
<path d="M6.02535 60.2568H3.0127V63.2695H6.02535V60.2568Z" fill="#2A2A2A"/>
<path d="M9.03805 60.2568H6.02539V63.2695H9.03805V60.2568Z" fill="#2A2A2A"/>
<path d="M12.0507 60.2568H9.03809V63.2695H12.0507V60.2568Z" fill="#2A2A2A"/>
<path d="M12.0508 63.2696H13.5591C14.3913 63.2696 15.0674 62.5934 15.0674 61.7613C15.0674 60.9291 14.3913 60.2529 13.5591 60.2529H12.0508V63.2656V63.2696Z" fill="#2A2A2A"/>
<path d="M21.0884 60.2568H19.5801C18.7479 60.2568 18.0718 60.933 18.0718 61.7652C18.0718 62.5973 18.7479 63.2735 19.5801 63.2735H21.0884V60.2608V60.2568Z" fill="#2A2A2A"/>
<path d="M21.0884 63.2696H22.5967C23.4289 63.2696 24.105 62.5934 24.105 61.7613C24.105 60.9291 23.4289 60.2529 22.5967 60.2529H21.0884V63.2656V63.2696Z" fill="#2A2A2A"/>
<path d="M28.6221 63.27H30.1304V61.7617C30.1304 62.5939 29.4543 63.27 28.6221 63.27Z" fill="#2A2A2A"/>
<path d="M30.1305 61.7656V63.2739H33.1431V60.2612H31.6348C30.8026 60.2612 30.1265 60.9374 30.1265 61.7696L30.1305 61.7656Z" fill="#2A2A2A"/>
<path d="M36.1557 60.2568H33.1431V63.2695H36.1557V60.2568Z" fill="#2A2A2A"/>
<path d="M39.1684 61.7656V63.2739H36.1558V60.2612H37.6641C38.4963 60.2612 39.1724 60.9374 39.1724 61.7696L39.1684 61.7656Z" fill="#2A2A2A"/>
<path d="M39.1685 61.7656V63.2739H40.6768C39.8446 63.2739 39.1685 62.5978 39.1685 61.7656Z" fill="#2A2A2A"/>
<path d="M48.2066 60.2568H46.6983C45.8661 60.2568 45.1899 60.933 45.1899 61.7652C45.1899 62.5973 45.8661 63.2735 46.6983 63.2735H48.2066V60.2608V60.2568Z" fill="#2A2A2A"/>
<path d="M48.2065 63.2696H49.7149C50.5471 63.2696 51.2232 62.5934 51.2232 61.7613C51.2232 60.9291 50.5471 60.2529 49.7149 60.2529H48.2065V63.2656V63.2696Z" fill="#2A2A2A"/>
<path d="M52.7275 63.27H54.2359V61.7617C54.2359 62.5939 53.5597 63.27 52.7275 63.27Z" fill="#2A2A2A"/>
<path d="M54.2315 61.7656V63.2739H57.2442V60.2612H55.7359C54.9037 60.2612 54.2275 60.9374 54.2275 61.7696L54.2315 61.7656Z" fill="#2A2A2A"/>
<path d="M60.2568 60.2568H57.2441V63.2695H60.2568V60.2568Z" fill="#2A2A2A"/>
<path d="M63.27 60.2568H60.2573V63.2695H63.27V60.2568Z" fill="#2A2A2A"/>
<path d="M66.2822 60.2568H63.2695V63.2695H66.2822V60.2568Z" fill="#2A2A2A"/>
<path d="M69.2954 60.2568H66.2827V63.2695H69.2954V60.2568Z" fill="#2A2A2A"/>
<path d="M72.312 60.2568H69.2993V63.2695H72.312V60.2568Z" fill="#2A2A2A"/>
<path d="M75.3242 60.2568H72.3115V63.2695H75.3242V60.2568Z" fill="#2A2A2A"/>
<path d="M78.3369 61.7656V63.2739H75.3242V60.2612H76.8325C77.6647 60.2612 78.3409 60.9374 78.3409 61.7696L78.3369 61.7656Z" fill="#2A2A2A"/>
<path d="M79.8413 63.27H81.3496V61.7617C81.3496 62.5939 80.6735 63.27 79.8413 63.27Z" fill="#2A2A2A"/>
<path d="M78.3369 61.7656V63.2739H79.8452C79.0131 63.2739 78.3369 62.5978 78.3369 61.7656Z" fill="#2A2A2A"/>
<path d="M84.3624 63.2696V61.7613C84.3624 60.9291 83.6862 60.2529 82.854 60.2529C82.0218 60.2529 81.3457 60.9291 81.3457 61.7613V63.2696H84.3584H84.3624Z" fill="#2A2A2A"/>
<path d="M24.1051 64.7778V66.2861H27.1177V63.2734H25.6094C24.7772 63.2734 24.1011 63.9496 24.1011 64.7818L24.1051 64.7778Z" fill="#2A2A2A"/>
<path d="M30.1303 63.2695H27.1177V66.2822H30.1303V63.2695Z" fill="#2A2A2A"/>
<path d="M33.1435 63.2695H30.1309V66.2822H33.1435V63.2695Z" fill="#2A2A2A"/>
<path d="M33.1431 64.7779V63.2695H34.6514C33.8192 63.2695 33.1431 63.9457 33.1431 64.7779Z" fill="#2A2A2A"/>
<path d="M36.1558 64.7779V63.2695H34.6475C35.4796 63.2695 36.1558 63.9457 36.1558 64.7779Z" fill="#2A2A2A"/>
<path d="M33.1431 64.7783V66.2866H34.6514C33.8192 66.2866 33.1431 65.6105 33.1431 64.7783Z" fill="#2A2A2A"/>
<path d="M37.6601 66.2822H39.1684V63.2695H36.1558V64.7779C36.1558 65.61 36.8319 66.2862 37.6641 66.2862L37.6601 66.2822Z" fill="#2A2A2A"/>
<path d="M39.1685 66.2823H40.6768C41.509 66.2823 42.1851 65.6061 42.1851 64.7739C42.1851 63.9418 41.509 63.2656 40.6768 63.2656H39.1685V66.2783V66.2823Z" fill="#2A2A2A"/>
<path d="M54.232 63.2695H52.7237C51.8915 63.2695 51.2153 63.9457 51.2153 64.7779C51.2153 65.61 51.8915 66.2862 52.7237 66.2862H54.232V63.2735V63.2695Z" fill="#2A2A2A"/>
<path d="M57.2446 63.2695H54.2319V66.2822H57.2446V63.2695Z" fill="#2A2A2A"/>
<path d="M60.2568 63.2695H57.2441V66.2822H60.2568V63.2695Z" fill="#2A2A2A"/>
<path d="M63.27 63.2695H60.2573V66.2822H63.27V63.2695Z" fill="#2A2A2A"/>
<path d="M63.2695 64.7779V63.2695H64.7779C63.9457 63.2695 63.2695 63.9457 63.2695 64.7779Z" fill="#2A2A2A"/>
<path d="M72.3116 64.7779V63.2695H70.8032C71.6354 63.2695 72.3116 63.9457 72.3116 64.7779Z" fill="#2A2A2A"/>
<path d="M75.3242 63.2695H72.3115V66.2822H75.3242V63.2695Z" fill="#2A2A2A"/>
<path d="M78.3369 63.2695H75.3242V66.2822H78.3369V63.2695Z" fill="#2A2A2A"/>
<path d="M81.3496 63.2695H78.3369V66.2822H81.3496V63.2695Z" fill="#2A2A2A"/>
<path d="M84.3623 63.2695H81.3496V66.2822H84.3623V63.2695Z" fill="#2A2A2A"/>
<path d="M25.6098 69.2993H27.1181V66.2866H24.1055V67.795C24.1055 68.6271 24.7816 69.3033 25.6138 69.3033L25.6098 69.2993Z" fill="#2A2A2A"/>
<path d="M30.1303 66.2827H27.1177V69.2954H30.1303V66.2827Z" fill="#2A2A2A"/>
<path d="M33.1435 66.2827H30.1309V69.2954H33.1435V66.2827Z" fill="#2A2A2A"/>
<path d="M36.1557 67.791V69.2993H33.1431V66.2866H34.6514C35.4836 66.2866 36.1597 66.9628 36.1597 67.795L36.1557 67.791Z" fill="#2A2A2A"/>
<path d="M42.1812 67.791C42.1812 68.6232 42.8573 69.2994 43.6895 69.2994C44.5217 69.2994 45.1978 68.6232 45.1978 67.791C45.1978 66.9589 44.5217 66.2827 43.6895 66.2827C42.8573 66.2827 42.1812 66.9589 42.1812 67.791Z" fill="#2A2A2A"/>
<path d="M54.232 67.791V66.2827H52.7236C53.5558 66.2827 54.232 66.9589 54.232 67.791Z" fill="#2A2A2A"/>
<path d="M55.7402 69.2993H57.2485V66.2866H54.2358V67.795C54.2358 68.6271 54.912 69.3033 55.7442 69.3033L55.7402 69.2993Z" fill="#2A2A2A"/>
<path d="M60.2568 66.2827H57.2441V69.2954H60.2568V66.2827Z" fill="#2A2A2A"/>
<path d="M63.27 66.2827H60.2573V69.2954H63.27V66.2827Z" fill="#2A2A2A"/>
<path d="M66.2827 67.791C66.2827 68.6232 66.9589 69.2994 67.791 69.2994C68.6232 69.2994 69.2994 68.6232 69.2994 67.791C69.2994 66.9589 68.6232 66.2827 67.791 66.2827C66.9589 66.2827 66.2827 66.9589 66.2827 67.791Z" fill="#2A2A2A"/>
<path d="M75.3242 66.2827H72.3115V69.2954H75.3242V66.2827Z" fill="#2A2A2A"/>
<path d="M78.3369 66.2827H75.3242V69.2954H78.3369V66.2827Z" fill="#2A2A2A"/>
<path d="M78.3369 67.791V66.2827H79.8452C79.0131 66.2827 78.3369 66.9589 78.3369 67.791Z" fill="#2A2A2A"/>
<path d="M81.3496 67.791V66.2827H79.8413C80.6735 66.2827 81.3496 66.9589 81.3496 67.791Z" fill="#2A2A2A"/>
<path d="M81.3496 66.2827V67.791C81.3496 68.6232 82.0258 69.2994 82.8579 69.2994C83.6901 69.2994 84.3663 68.6232 84.3663 67.791V66.2827H81.3536H81.3496Z" fill="#2A2A2A"/>
<path d="M27.1177 70.8033V69.2949H25.6094C26.4416 69.2949 27.1177 69.9711 27.1177 70.8033Z" fill="#2A2A2A"/>
<path d="M25.6094 72.3116H27.1177V70.8032C27.1177 71.6354 26.4416 72.3116 25.6094 72.3116Z" fill="#2A2A2A"/>
<path d="M30.1303 69.2993H27.1177V72.312H30.1303V69.2993Z" fill="#2A2A2A"/>
<path d="M30.1309 70.8033V69.2949H31.6392C30.807 69.2949 30.1309 69.9711 30.1309 70.8033Z" fill="#2A2A2A"/>
<path d="M33.1431 70.8033V69.2949H31.6348C32.4669 69.2949 33.1431 69.9711 33.1431 70.8033Z" fill="#2A2A2A"/>
<path d="M33.1431 69.2993V70.8076C33.1431 71.6398 33.8192 72.316 34.6514 72.316C35.4836 72.316 36.1597 71.6398 36.1597 70.8076V69.2993H33.1471H33.1431Z" fill="#2A2A2A"/>
<path d="M37.6602 72.3116H39.1685V70.8032C39.1685 71.6354 38.4923 72.3116 37.6602 72.3116Z" fill="#2A2A2A"/>
<path d="M42.1812 72.3116V70.8033C42.1812 69.9711 41.5051 69.2949 40.6729 69.2949C39.8407 69.2949 39.1646 69.9711 39.1646 70.8033V72.3116H42.1772H42.1812Z" fill="#2A2A2A"/>
<path d="M43.6855 72.3116H45.1939V70.8032C45.1939 71.6354 44.5177 72.3116 43.6855 72.3116Z" fill="#2A2A2A"/>
<path d="M42.1812 70.8032V72.3116H43.6895C42.8573 72.3116 42.1812 71.6354 42.1812 70.8032Z" fill="#2A2A2A"/>
<path d="M45.1939 70.8036V72.312H48.2066V69.2993H46.6983C45.8661 69.2993 45.1899 69.9755 45.1899 70.8076L45.1939 70.8036Z" fill="#2A2A2A"/>
<path d="M51.2192 70.8036V72.312H48.2065V69.2993H49.7149C50.5471 69.2993 51.2232 69.9755 51.2232 70.8076L51.2192 70.8036Z" fill="#2A2A2A"/>
<path d="M57.2442 70.8033V69.2949H55.7358C56.568 69.2949 57.2442 69.9711 57.2442 70.8033Z" fill="#2A2A2A"/>
<path d="M58.7529 72.312H60.2612V69.2993H57.2485V70.8076C57.2485 71.6398 57.9247 72.316 58.7569 72.316L58.7529 72.312Z" fill="#2A2A2A"/>
<path d="M63.27 69.2993H60.2573V72.312H63.27V69.2993Z" fill="#2A2A2A"/>
<path d="M63.2695 70.8032V72.3116H64.7779C63.9457 72.3116 63.2695 71.6354 63.2695 70.8032Z" fill="#2A2A2A"/>
<path d="M70.8032 72.3116H72.3116V70.8032C72.3116 71.6354 71.6354 72.3116 70.8032 72.3116Z" fill="#2A2A2A"/>
<path d="M75.3242 69.2993H72.3115V72.312H75.3242V69.2993Z" fill="#2A2A2A"/>
<path d="M78.3369 69.2993H75.3242V72.312H78.3369V69.2993Z" fill="#2A2A2A"/>
<path d="M78.3369 70.8032V72.3116H79.8452C79.0131 72.3116 78.3369 71.6354 78.3369 70.8032Z" fill="#2A2A2A"/>
<path d="M24.1051 73.8158V75.3242H27.1177V72.3115H25.6094C24.7772 72.3115 24.1011 72.9877 24.1011 73.8198L24.1051 73.8158Z" fill="#2A2A2A"/>
<path d="M28.6221 75.3242H27.1138V72.3115H30.1264V73.8198C30.1264 74.652 29.4503 75.3282 28.6181 75.3282L28.6221 75.3242Z" fill="#2A2A2A"/>
<path d="M39.1685 72.3115H37.6602C36.828 72.3115 36.1519 72.9877 36.1519 73.8198C36.1519 74.652 36.828 75.3282 37.6602 75.3282H39.1685V72.3155V72.3115Z" fill="#2A2A2A"/>
<path d="M42.1811 72.3115H39.1685V75.3242H42.1811V72.3115Z" fill="#2A2A2A"/>
<path d="M45.1938 72.3115H42.1812V75.3242H45.1938V72.3115Z" fill="#2A2A2A"/>
<path d="M48.2065 72.3115H45.1938V75.3242H48.2065V72.3115Z" fill="#2A2A2A"/>
<path d="M49.7149 75.3242H48.2065V72.3115H51.2192V73.8198C51.2192 74.652 50.5431 75.3282 49.7109 75.3282L49.7149 75.3242Z" fill="#2A2A2A"/>
<path d="M52.7275 75.3247H54.2359V73.8164C54.2359 74.6486 53.5597 75.3247 52.7275 75.3247Z" fill="#2A2A2A"/>
<path d="M57.2442 75.3243V73.8159C57.2442 72.9838 56.568 72.3076 55.7359 72.3076C54.9037 72.3076 54.2275 72.9838 54.2275 73.8159V75.3243H57.2402H57.2442Z" fill="#2A2A2A"/>
<path d="M60.2574 73.8159V72.3076H58.749C59.5812 72.3076 60.2574 72.9838 60.2574 73.8159Z" fill="#2A2A2A"/>
<path d="M57.2441 73.8164V75.3247H58.7525C57.9203 75.3247 57.2441 74.6486 57.2441 73.8164Z" fill="#2A2A2A"/>
<path d="M61.7656 75.3242H63.2739V72.3115H60.2612V73.8198C60.2612 74.652 60.9374 75.3282 61.7696 75.3282L61.7656 75.3242Z" fill="#2A2A2A"/>
<path d="M66.2822 72.3115H63.2695V75.3242H66.2822V72.3115Z" fill="#2A2A2A"/>
<path d="M69.2954 72.3115H66.2827V75.3242H69.2954V72.3115Z" fill="#2A2A2A"/>
<path d="M72.312 72.3115H69.2993V75.3242H72.312V72.3115Z" fill="#2A2A2A"/>
<path d="M75.3242 72.3115H72.3115V75.3242H75.3242V72.3115Z" fill="#2A2A2A"/>
<path d="M78.3369 72.3115H75.3242V75.3242H78.3369V72.3115Z" fill="#2A2A2A"/>
<path d="M81.3496 73.8158V75.3242H78.3369V72.3115H79.8452C80.6774 72.3115 81.3536 72.9877 81.3536 73.8198L81.3496 73.8158Z" fill="#2A2A2A"/>
<path d="M81.3496 73.8164V75.3247H82.8579C82.0258 75.3247 81.3496 74.6486 81.3496 73.8164Z" fill="#2A2A2A"/>
<path d="M84.3623 73.8159C84.3623 74.6481 85.0385 75.3243 85.8706 75.3243C86.7028 75.3243 87.379 74.6481 87.379 73.8159C87.379 72.9838 86.7028 72.3076 85.8706 72.3076C85.0385 72.3076 84.3623 72.9838 84.3623 73.8159Z" fill="#2A2A2A"/>
<path d="M24.1055 75.3242V76.8325C24.1055 77.6647 24.7816 78.3409 25.6138 78.3409C26.446 78.3409 27.1221 77.6647 27.1221 76.8325V75.3242H24.1095H24.1055Z" fill="#2A2A2A"/>
<path d="M27.1177 76.8286V75.3203H28.626C27.7938 75.3203 27.1177 75.9965 27.1177 76.8286Z" fill="#2A2A2A"/>
<path d="M28.6221 78.3369H30.1304V76.8286C30.1304 77.6608 29.4543 78.3369 28.6221 78.3369Z" fill="#2A2A2A"/>
<path d="M30.1305 76.8285V78.3369H33.1431V75.3242H31.6348C30.8026 75.3242 30.1265 76.0004 30.1265 76.8325L30.1305 76.8285Z" fill="#2A2A2A"/>
<path d="M36.1557 76.8285V78.3369H33.1431V75.3242H34.6514C35.4836 75.3242 36.1597 76.0004 36.1597 76.8325L36.1557 76.8285Z" fill="#2A2A2A"/>
<path d="M36.1558 76.8286V78.3369H37.6641C36.8319 78.3369 36.1558 77.6608 36.1558 76.8286Z" fill="#2A2A2A"/>
<path d="M42.1812 76.8286V75.3203H40.6729C41.505 75.3203 42.1812 75.9965 42.1812 76.8286Z" fill="#2A2A2A"/>
<path d="M45.1938 75.3242H42.1812V78.3369H45.1938V75.3242Z" fill="#2A2A2A"/>
<path d="M45.1938 76.8286V75.3203H46.7022C45.87 75.3203 45.1938 75.9965 45.1938 76.8286Z" fill="#2A2A2A"/>
<path d="M45.1938 76.8286V78.3369H46.7022C45.87 78.3369 45.1938 77.6608 45.1938 76.8286Z" fill="#2A2A2A"/>
<path d="M49.7148 78.3369H51.2232V76.8286C51.2232 77.6608 50.547 78.3369 49.7148 78.3369Z" fill="#2A2A2A"/>
<path d="M51.2193 76.8285V78.3369H54.232V75.3242H52.7237C51.8915 75.3242 51.2153 76.0004 51.2153 76.8325L51.2193 76.8285Z" fill="#2A2A2A"/>
<path d="M57.2446 75.3242H54.2319V78.3369H57.2446V75.3242Z" fill="#2A2A2A"/>
<path d="M60.2568 76.8285V78.3369H57.2441V75.3242H58.7525C59.5847 75.3242 60.2608 76.0004 60.2608 76.8325L60.2568 76.8285Z" fill="#2A2A2A"/>
<path d="M66.2823 76.8286V75.3203H64.7739C65.6061 75.3203 66.2823 75.9965 66.2823 76.8286Z" fill="#2A2A2A"/>
<path d="M66.2827 75.3242V76.8325C66.2827 77.6647 66.9589 78.3409 67.791 78.3409C68.6232 78.3409 69.2994 77.6647 69.2994 76.8325V75.3242H66.2867H66.2827Z" fill="#2A2A2A"/>
<path d="M69.2993 76.8286V75.3203H70.8076C69.9755 75.3203 69.2993 75.9965 69.2993 76.8286Z" fill="#2A2A2A"/>
<path d="M72.3116 76.8286V75.3203H70.8032C71.6354 75.3203 72.3116 75.9965 72.3116 76.8286Z" fill="#2A2A2A"/>
<path d="M70.8032 78.3369H72.3116V76.8286C72.3116 77.6608 71.6354 78.3369 70.8032 78.3369Z" fill="#2A2A2A"/>
<path d="M75.3242 75.3242H72.3115V78.3369H75.3242V75.3242Z" fill="#2A2A2A"/>
<path d="M75.3242 76.8286V75.3203H76.8325C76.0004 75.3203 75.3242 75.9965 75.3242 76.8286Z" fill="#2A2A2A"/>
<path d="M78.3369 76.8286V75.3203H76.8286C77.6608 75.3203 78.3369 75.9965 78.3369 76.8286Z" fill="#2A2A2A"/>
<path d="M76.8286 78.3369H78.3369V76.8286C78.3369 77.6608 77.6608 78.3369 76.8286 78.3369Z" fill="#2A2A2A"/>
<path d="M75.3242 76.8286V78.3369H76.8325C76.0004 78.3369 75.3242 77.6608 75.3242 76.8286Z" fill="#2A2A2A"/>
<path d="M81.3496 75.3242H78.3369V78.3369H81.3496V75.3242Z" fill="#2A2A2A"/>
<path d="M84.3623 76.8285V78.3369H81.3496V75.3242H82.8579C83.6901 75.3242 84.3663 76.0004 84.3663 76.8325L84.3623 76.8285Z" fill="#2A2A2A"/>
<path d="M84.3623 76.8286V78.3369H85.8706C85.0385 78.3369 84.3623 77.6608 84.3623 76.8286Z" fill="#2A2A2A"/>
<path d="M30.1304 78.3369H28.6221C27.7899 78.3369 27.1138 79.0131 27.1138 79.8452C27.1138 80.6774 27.7899 81.3536 28.6221 81.3536H30.1304V78.3409V78.3369Z" fill="#2A2A2A"/>
<path d="M33.1435 78.3369H30.1309V81.3496H33.1435V78.3369Z" fill="#2A2A2A"/>
<path d="M36.1557 78.3369H33.1431V81.3496H36.1557V78.3369Z" fill="#2A2A2A"/>
<path d="M39.1684 79.8412V81.3496H36.1558V78.3369H37.6641C38.4963 78.3369 39.1724 79.0131 39.1724 79.8452L39.1684 79.8412Z" fill="#2A2A2A"/>
<path d="M43.6855 81.3496H45.1938V78.3369H42.1812V79.8452C42.1812 80.6774 42.8573 81.3536 43.6895 81.3536L43.6855 81.3496Z" fill="#2A2A2A"/>
<path d="M48.2065 78.3369H45.1938V81.3496H48.2065V78.3369Z" fill="#2A2A2A"/>
<path d="M51.2192 78.3369H48.2065V81.3496H51.2192V78.3369Z" fill="#2A2A2A"/>
<path d="M54.2319 78.3369H51.2192V81.3496H54.2319V78.3369Z" fill="#2A2A2A"/>
<path d="M57.2446 78.3369H54.2319V81.3496H57.2446V78.3369Z" fill="#2A2A2A"/>
<path d="M58.7525 81.3496H57.2441V78.3369H60.2568V79.8452C60.2568 80.6774 59.5806 81.3536 58.7485 81.3536L58.7525 81.3496Z" fill="#2A2A2A"/>
<path d="M66.2823 81.3497V79.8413C66.2823 79.0092 65.6061 78.333 64.7739 78.333C63.9418 78.333 63.2656 79.0092 63.2656 79.8413V81.3497H66.2783H66.2823Z" fill="#2A2A2A"/>
<path d="M67.791 81.3496H69.2993V79.8413C69.2993 80.6735 68.6232 81.3496 67.791 81.3496Z" fill="#2A2A2A"/>
<path d="M66.2827 79.8413V81.3496H67.791C66.9589 81.3496 66.2827 80.6735 66.2827 79.8413Z" fill="#2A2A2A"/>
<path d="M69.2989 79.8412V81.3496H72.3116V78.3369H70.8033C69.9711 78.3369 69.2949 79.0131 69.2949 79.8452L69.2989 79.8412Z" fill="#2A2A2A"/>
<path d="M75.3242 78.3369H72.3115V81.3496H75.3242V78.3369Z" fill="#2A2A2A"/>
<path d="M78.3369 78.3369H75.3242V81.3496H78.3369V78.3369Z" fill="#2A2A2A"/>
<path d="M81.3496 78.3369H78.3369V81.3496H81.3496V78.3369Z" fill="#2A2A2A"/>
<path d="M84.3623 78.3369H81.3496V81.3496H84.3623V78.3369Z" fill="#2A2A2A"/>
<path d="M84.3623 81.3497H85.8706C86.7028 81.3497 87.379 80.6735 87.379 79.8413C87.379 79.0092 86.7028 78.333 85.8706 78.333H84.3623V81.3457V81.3497Z" fill="#2A2A2A"/>
<path d="M30.1304 82.854V81.3457H28.6221C29.4543 81.3457 30.1304 82.0218 30.1304 82.854Z" fill="#2A2A2A"/>
<path d="M33.1435 81.3496H30.1309V84.3623H33.1435V81.3496Z" fill="#2A2A2A"/>
<path d="M33.1431 82.854V81.3457H34.6514C33.8192 81.3457 33.1431 82.0218 33.1431 82.854Z" fill="#2A2A2A"/>
<path d="M36.1558 82.854V81.3457H34.6475C35.4796 81.3457 36.1558 82.0218 36.1558 82.854Z" fill="#2A2A2A"/>
<path d="M36.1558 81.3496V82.8579C36.1558 83.6901 36.8319 84.3663 37.6641 84.3663C38.4963 84.3663 39.1724 83.6901 39.1724 82.8579V81.3496H36.1598H36.1558Z" fill="#2A2A2A"/>
<path d="M48.2066 82.854V81.3457H46.6982C47.5304 81.3457 48.2066 82.0218 48.2066 82.854Z" fill="#2A2A2A"/>
<path d="M49.7148 84.3623H51.2231V81.3496H48.2104V82.8579C48.2104 83.6901 48.8866 84.3663 49.7188 84.3663L49.7148 84.3623Z" fill="#2A2A2A"/>
<path d="M54.2319 81.3496H51.2192V84.3623H54.2319V81.3496Z" fill="#2A2A2A"/>
<path d="M57.2446 81.3496H54.2319V84.3623H57.2446V81.3496Z" fill="#2A2A2A"/>
<path d="M57.2441 82.854V81.3457H58.7525C57.9203 81.3457 57.2441 82.0218 57.2441 82.854Z" fill="#2A2A2A"/>
<path d="M57.2441 82.854V84.3623H58.7525C57.9203 84.3623 57.2441 83.6862 57.2441 82.854Z" fill="#2A2A2A"/>
<path d="M64.7783 84.3623H66.2866V81.3496H63.2739V82.8579C63.2739 83.6901 63.9501 84.3663 64.7823 84.3663L64.7783 84.3623Z" fill="#2A2A2A"/>
<path d="M69.2954 81.3496H66.2827V84.3623H69.2954V81.3496Z" fill="#2A2A2A"/>
<path d="M70.8033 84.3623H69.2949V81.3496H72.3076V82.8579C72.3076 83.6901 71.6314 84.3663 70.7993 84.3663L70.8033 84.3623Z" fill="#2A2A2A"/>
<path d="M72.3115 82.854V81.3457H73.8198C72.9877 81.3457 72.3115 82.0218 72.3115 82.854Z" fill="#2A2A2A"/>
<path d="M75.3242 82.854V81.3457H73.8159C74.6481 81.3457 75.3242 82.0218 75.3242 82.854Z" fill="#2A2A2A"/>
<path d="M73.8159 84.3623H75.3242V82.854C75.3242 83.6862 74.6481 84.3623 73.8159 84.3623Z" fill="#2A2A2A"/>
<path d="M78.3369 81.3496H75.3242V84.3623H78.3369V81.3496Z" fill="#2A2A2A"/>
<path d="M81.3496 81.3496H78.3369V84.3623H81.3496V81.3496Z" fill="#2A2A2A"/>
<path d="M82.854 84.3623H81.3457V81.3496H84.3584V82.8579C84.3584 83.6901 83.6822 84.3663 82.85 84.3663L82.854 84.3623Z" fill="#2A2A2A"/>
<path d="M84.3623 82.854V81.3457H85.8706C85.0385 81.3457 84.3623 82.0218 84.3623 82.854Z" fill="#2A2A2A"/>
<path d="M30.1309 84.3623V85.8706C30.1309 86.7028 30.807 87.379 31.6392 87.379C32.4714 87.379 33.1475 86.7028 33.1475 85.8706V84.3623H30.1349H30.1309Z" fill="#2A2A2A"/>
<path d="M45.1938 85.8667C45.1938 86.6989 45.87 87.3751 46.7022 87.3751C47.5344 87.3751 48.2105 86.6989 48.2105 85.8667C48.2105 85.0345 47.5344 84.3584 46.7022 84.3584C45.87 84.3584 45.1938 85.0345 45.1938 85.8667Z" fill="#2A2A2A"/>
<path d="M54.232 85.8667V84.3584H52.7236C53.5558 84.3584 54.232 85.0345 54.232 85.8667Z" fill="#2A2A2A"/>
<path d="M55.7402 87.375H57.2485V84.3623H54.2358V85.8706C54.2358 86.7028 54.912 87.379 55.7442 87.379L55.7402 87.375Z" fill="#2A2A2A"/>
<path d="M60.2568 84.3623H57.2441V87.375H60.2568V84.3623Z" fill="#2A2A2A"/>
<path d="M60.2573 87.3751H61.7657C62.5978 87.3751 63.274 86.6989 63.274 85.8667C63.274 85.0345 62.5978 84.3584 61.7657 84.3584H60.2573V87.3711V87.3751Z" fill="#2A2A2A"/>
<path d="M66.2823 85.8667V84.3584H64.7739C65.6061 84.3584 66.2823 85.0345 66.2823 85.8667Z" fill="#2A2A2A"/>
<path d="M66.2827 84.3623V85.8706C66.2827 86.7028 66.9589 87.379 67.791 87.379C68.6232 87.379 69.2994 86.7028 69.2994 85.8706V84.3623H66.2867H66.2827Z" fill="#2A2A2A"/>
<path d="M69.2993 85.8667V84.3584H70.8076C69.9755 84.3584 69.2993 85.0345 69.2993 85.8667Z" fill="#2A2A2A"/>
<path d="M75.3243 84.3623H73.8159C72.9838 84.3623 72.3076 85.0385 72.3076 85.8706C72.3076 86.7028 72.9838 87.379 73.8159 87.379H75.3243V84.3663V84.3623Z" fill="#2A2A2A"/>
<path d="M78.3369 84.3623H75.3242V87.375H78.3369V84.3623Z" fill="#2A2A2A"/>
<path d="M79.8413 87.375H78.333V84.3623H81.3457V85.8706C81.3457 86.7028 80.6695 87.379 79.8373 87.379L79.8413 87.375Z" fill="#2A2A2A"/>
<path d="M81.3496 85.8667V84.3584H82.8579C82.0258 84.3584 81.3496 85.0345 81.3496 85.8667Z" fill="#2A2A2A"/>
<path d="M6.8855 0H14.2071C16.0395 0 17.7639 0.716156 19.0681 2.02044C20.3724 3.32472 21.0886 5.0531 21.0886 6.8855V21.0886H6.8855C5.0531 21.0886 3.32472 20.3724 2.02044 19.0681C0.716156 17.7639 0 16.0395 0 14.2071V6.8855C0 5.0531 0.716156 3.32472 2.02044 2.02044C3.32472 0.716156 5.0531 0 6.8855 0ZM18.0759 18.0759V7.20557C18.0759 4.89306 16.1955 3.00865 13.883 3.00865H7.20957C4.89707 3.00865 3.01266 4.88906 3.01266 7.20557V13.879C3.01266 16.1915 4.89306 18.0759 7.20957 18.0759H18.0799H18.0759Z" fill="#2A2A2A"/>
<path d="M6.02539 12.3028C6.02539 13.8191 7.26566 15.0634 8.78599 15.0634H15.0634V8.78599C15.0634 7.26966 13.8231 6.02539 12.3028 6.02539H8.78599C7.26966 6.02539 6.02539 7.26566 6.02539 8.78599V12.3028Z" fill="#2A2A2A"/>
<path d="M85.3549 2.02044C86.6591 3.32472 87.3753 5.0531 87.3753 6.8855V14.2071C87.3753 16.0395 86.6591 17.7679 85.3549 19.0721C84.0506 20.3764 82.3222 21.0926 80.4898 21.0926H66.2827V6.8855C66.2827 5.0531 66.9989 3.32472 68.3032 2.02044C69.6114 0.716156 71.3358 0 73.1682 0H80.4898C82.3222 0 84.0506 0.716156 85.3549 2.02044ZM80.1657 18.0759C82.4782 18.0759 84.3626 16.1955 84.3626 13.879V7.20557C84.3626 4.89306 82.4822 3.00865 80.1657 3.00865H73.4923C71.1798 3.00865 69.2954 4.88906 69.2954 7.20557V18.0759H80.1657Z" fill="#2A2A2A"/>
<path d="M81.3495 12.3028C81.3495 13.8191 80.1092 15.0634 78.5889 15.0634H72.3115V8.78599C72.3115 7.26966 73.5518 6.02539 75.0721 6.02539H78.5889C80.1052 6.02539 81.3495 7.26566 81.3495 8.78599V12.3028Z" fill="#2A2A2A"/>
<path d="M19.0681 68.3071C20.3724 69.6113 21.0886 71.3397 21.0886 73.1721V80.4937C21.0886 82.3261 20.3724 84.0545 19.0681 85.3588C17.7639 86.6631 16.0355 87.3792 14.2031 87.3792H0V73.1761C0 71.3357 0.716156 69.6113 2.02044 68.3071C3.32472 67.0028 5.0531 66.2866 6.8855 66.2866H14.2071C16.0395 66.2866 17.7679 67.0028 19.0721 68.3071H19.0681ZM13.883 84.3626C16.1955 84.3626 18.0799 82.4821 18.0799 80.1656V73.4922C18.0799 71.1797 16.1995 69.2953 13.883 69.2953H7.20957C4.89707 69.2953 3.01266 71.1757 3.01266 73.4922V84.3626H13.883Z" fill="#2A2A2A"/>
<path d="M15.0634 78.5889C15.0634 80.1052 13.8231 81.3495 12.3028 81.3495H6.02539V75.0721C6.02539 73.5558 7.26566 72.3115 8.78599 72.3115H12.3028C13.8191 72.3115 15.0634 73.5518 15.0634 75.0721V78.5889Z" fill="#2A2A2A"/>
<path d="M43.6856 32.3911C37.4562 32.3911 32.3911 37.4602 32.3911 43.6856C32.3911 49.9109 37.4602 54.98 43.6856 54.98C49.9109 54.98 54.98 49.9109 54.98 43.6856C54.98 37.4602 49.9149 32.3911 43.6856 32.3911ZM43.6856 54.2759C40.881 54.2759 38.3284 53.1756 36.432 51.3912C34.1195 50.335 32.4511 47.4264 32.4511 44.0056C32.4511 41.269 33.5194 38.8645 35.1277 37.4642C37.0561 34.8196 40.1728 33.0993 43.6856 33.0993C49.5228 33.0993 54.2719 37.8483 54.2719 43.6856C54.2719 49.5228 49.5228 54.2719 43.6856 54.2719V54.2759Z" fill="#B58469"/>
<path d="M44.2377 44.0056C44.2377 39.6967 41.5932 36.1919 38.3445 36.1919C37.1562 36.1919 36.056 36.664 35.1278 37.4682C33.5194 38.8645 32.4512 41.273 32.4512 44.0096C32.4512 47.4303 34.1195 50.339 36.432 51.3952C37.0322 51.6673 37.6723 51.8233 38.3445 51.8233C41.5932 51.8233 44.2377 48.3185 44.2377 44.0096V44.0056Z" fill="#B58469"/>
</g>
<defs>
<clipPath id="clip0_2001_261">
<rect width="87.375" height="87.375" fill="white"/>
</clipPath>
</defs>
</svg>
