<svg width="90" height="80" viewBox="0 0 90 80" fill="none" xmlns="http://www.w3.org/2000/svg">
<path d="M71.3862 13.1475C71.3238 13.1475 71.2646 13.1711 71.2192 13.2119L71.1782 13.2588C70.7385 13.9167 70.1674 14.5084 69.5581 15.0986C68.9548 15.683 68.3069 16.2721 67.7466 16.9014C67.7059 16.9471 67.6832 17.0062 67.6831 17.0674C67.6831 17.1302 67.7054 17.1796 67.7153 17.2002C67.7279 17.2263 67.7431 17.2505 67.7563 17.2695C67.783 17.3078 67.8181 17.349 67.855 17.3906C67.9299 17.475 68.0336 17.5806 68.1538 17.6982C68.3952 17.9344 68.7195 18.2361 69.0474 18.543C69.377 18.8514 69.7117 19.1669 69.98 19.4365C70.1141 19.5713 70.2292 19.6924 70.3179 19.7939C70.4107 19.9002 70.4609 19.9698 70.479 20.0049L70.48 20.0059C70.714 20.4575 70.6063 20.8801 70.3384 21.1475C70.0673 21.4179 69.6142 21.545 69.1226 21.3428H69.1216C68.9919 21.2898 68.8069 21.1438 68.5747 20.9102C68.3496 20.6837 68.1059 20.4021 67.8569 20.1113C67.6108 19.8239 67.3587 19.5265 67.1255 19.2793C66.8981 19.0384 66.6635 18.817 66.4497 18.7061C66.4169 18.689 66.326 18.6369 66.228 18.626C66.0937 18.6111 65.9851 18.6676 65.9019 18.7451L65.895 18.752L62.9722 21.6973C62.9204 21.7495 62.8945 21.8223 62.9009 21.8955C62.9073 21.9688 62.9462 22.0357 63.0063 22.0781C63.4769 22.4097 63.8898 22.8135 64.2993 23.2432C64.5066 23.4607 64.9281 23.8995 65.2944 24.3418C65.478 24.5634 65.6433 24.78 65.7593 24.9658C65.8173 25.0587 65.8596 25.139 65.8862 25.2041C65.8993 25.2361 65.9072 25.2618 65.9116 25.2812C65.9138 25.2908 65.915 25.2986 65.9155 25.3037C65.916 25.3078 65.9155 25.31 65.9155 25.3105C65.9032 25.5494 65.7813 25.7992 65.5864 25.9951C65.3916 26.1909 65.1448 26.3127 64.9087 26.3252L64.8472 26.3232C64.6951 26.3084 64.489 26.2157 64.229 26.0264C63.9421 25.8174 63.6317 25.5229 63.3179 25.1982C63.0034 24.8728 62.6989 24.5315 62.4116 24.2227C62.1318 23.9219 61.863 23.6458 61.6392 23.4795C61.5517 23.4145 61.4339 23.4142 61.3472 23.4746L61.313 23.5039L56.9341 27.9131C56.9153 27.9321 56.9 27.954 56.8882 27.9775L56.8647 28.0527C56.6173 29.7413 56.3343 31.4833 56.2935 33.209C56.2722 33.2979 56.2989 33.3924 56.3687 33.4541L59.0903 35.8584C59.1328 35.8959 59.187 35.9181 59.2437 35.9209C60.0234 35.9597 60.7972 35.8991 61.5581 35.8213C62.3247 35.7429 63.0713 35.6478 63.8228 35.6104C63.8847 35.6071 63.943 35.5811 63.9868 35.5371L78.8638 20.583C78.9106 20.5359 78.9373 20.4717 78.937 20.4053C78.9367 20.3388 78.9092 20.2752 78.8618 20.2285L71.7554 13.2197C71.7086 13.1736 71.6453 13.1475 71.5796 13.1475H71.3862ZM80.2134 9.67188C80.1636 9.67205 80.1154 9.68741 80.0747 9.71484L80.0366 9.74609L75.8628 13.9678C75.8446 13.9862 75.8295 14.0075 75.8179 14.0303L75.7944 14.1025C75.7811 14.1823 75.8022 14.2508 75.8169 14.2891C75.8336 14.3324 75.8564 14.3739 75.8794 14.4102C75.9256 14.483 75.9897 14.5632 76.0601 14.6445C76.2022 14.8089 76.3951 15.0043 76.5913 15.1953C76.7883 15.387 76.9941 15.5801 77.1646 15.7402C77.3397 15.9048 77.4692 16.0272 77.5239 16.0869C77.5696 16.1365 77.6333 16.166 77.7007 16.168C77.7683 16.1698 77.8339 16.1438 77.8823 16.0967L82.1782 11.8994C82.2258 11.8528 82.2529 11.7892 82.2534 11.7227C82.2538 11.6562 82.228 11.5921 82.1812 11.5449L80.3911 9.74609C80.3441 9.69882 80.28 9.67178 80.2134 9.67188ZM80.0552 4.74414C80.0112 4.75206 79.9762 4.76963 79.9595 4.77832C79.9385 4.78923 79.9179 4.80137 79.8999 4.81348C79.8633 4.83804 79.8229 4.86951 79.7827 4.90332C79.7021 4.97105 79.6089 5.06027 79.5249 5.15625C79.4436 5.2492 79.3577 5.36331 79.3071 5.47949C79.2636 5.57962 79.2031 5.79157 79.3667 5.95508V5.95605L85.8813 12.5C85.9283 12.5471 85.9926 12.5733 86.0591 12.5732C86.1255 12.5732 86.189 12.5461 86.2358 12.499L86.9644 11.7676C87.0162 11.7153 87.0421 11.6427 87.0356 11.5693C87.029 11.4958 86.9898 11.428 86.9292 11.3857C86.8342 11.3194 86.6655 11.1693 86.4312 10.9424C86.2007 10.7192 85.9181 10.4333 85.6021 10.1064C84.9698 9.45258 84.2078 8.64152 83.4565 7.84961C82.7067 7.05921 81.9674 6.28783 81.3862 5.71875C81.0963 5.43482 80.8415 5.1967 80.6421 5.03125C80.5432 4.94924 80.4515 4.87993 80.3726 4.83105C80.3333 4.80679 80.2896 4.78343 80.2456 4.7666C80.2175 4.75586 80.1708 4.74017 80.1147 4.73926L80.0552 4.74414ZM78.6108 8.04688C78.6108 7.99178 78.5917 7.93817 78.5581 7.89453C78.4331 7.7324 78.2588 7.56185 78.0786 7.39453C77.8906 7.21992 77.7024 7.05412 77.5132 6.87402C77.3275 6.69726 77.1606 6.52449 77.0347 6.3584C76.9067 6.1895 76.8363 6.04719 76.8179 5.93164C76.7348 5.40621 76.9296 4.99949 77.2612 4.61621C77.4293 4.42198 77.6286 4.23855 77.8403 4.05273C77.9439 3.96188 78.052 3.86938 78.1587 3.77539L78.4702 3.48926C78.6938 3.27178 78.904 3.02883 79.0854 2.83691C79.2759 2.63556 79.4464 2.47732 79.6226 2.375C79.7913 2.27701 79.9639 2.23152 80.1694 2.25781C80.3791 2.28467 80.6434 2.38922 80.9858 2.63086L89.2915 11.0996C89.3868 11.5605 89.3841 11.9621 89.1646 12.3154C89.1645 12.3154 89.1561 12.3271 89.1323 12.3555C89.1094 12.3828 89.0775 12.4187 89.0386 12.4619C88.961 12.5481 88.8571 12.661 88.7339 12.791C88.4877 13.0509 88.1699 13.3776 87.8511 13.7002C87.5321 14.023 87.2122 14.3403 86.9624 14.5811C86.8374 14.7015 86.7313 14.8016 86.6519 14.873C86.6119 14.909 86.5805 14.936 86.5581 14.9541C86.552 14.959 86.5469 14.9622 86.5435 14.9648C86.2919 15.0696 86.0739 15.0713 85.8716 15.0107C85.6577 14.9467 85.4478 14.8096 85.2329 14.6211C85.0178 14.4325 84.8127 14.2068 84.6021 13.9746C84.3967 13.7482 84.1824 13.5123 83.9624 13.3311C83.8623 13.2486 83.7153 13.256 83.6245 13.3486L79.3081 17.751C79.2897 17.7697 79.2739 17.7909 79.2622 17.8145L79.2593 17.8223C79.2052 17.9313 79.2372 18.063 79.3354 18.1348C79.8456 18.506 80.5064 18.9416 80.939 19.46C81.1518 19.715 81.2925 19.9716 81.3364 20.2305C81.3782 20.477 81.3358 20.748 81.144 21.0527L65.1743 37.2393C64.842 37.4984 64.4127 37.6227 63.9536 37.7031H63.9526C63.4502 37.7914 62.4813 37.9085 61.5112 37.9971C60.7808 38.0638 60.0638 38.1129 59.5513 38.124L59.1138 38.1221C58.7274 38.1038 58.3891 37.9328 58.0552 37.6836C57.8881 37.5589 57.7261 37.4181 57.562 37.2715C57.4006 37.1272 57.2337 36.9739 57.0659 36.8369C56.9911 36.7758 56.8875 36.7633 56.8003 36.8047C56.7132 36.8461 56.6578 36.9338 56.6577 37.0303C56.6577 37.0922 56.6244 37.1563 56.5259 37.2695C54.6731 39.3891 52.5739 41.4233 50.4565 43.4648C48.3523 45.4937 46.2292 47.5302 44.3286 49.6523C43.6369 50.0653 43.0913 49.8708 42.8374 49.5195C42.5746 49.1558 42.554 48.529 43.1382 47.9561L43.1411 47.9531L55.4868 35.3994C55.579 35.3055 55.5822 35.1559 55.4946 35.0576C55.3476 34.8926 55.1863 34.7398 55.0337 34.5957C54.8782 34.4489 54.7315 34.3111 54.6001 34.166C54.3479 33.8875 54.1705 33.6014 54.1274 33.2363C54.3812 32.1781 54.4476 31.0392 54.5513 29.959C54.6564 28.8639 54.8026 27.8203 55.2026 26.8945L71.0952 10.7607L71.103 10.752C71.1862 10.6585 71.271 10.6167 71.3569 10.6025C71.448 10.5875 71.5602 10.6003 71.6968 10.6494C71.9759 10.7498 72.2953 10.9786 72.6216 11.2617C72.9457 11.543 73.2481 11.8511 73.5083 12.1006C73.6344 12.2215 73.7545 12.332 73.8579 12.4111C73.9094 12.4505 73.9656 12.4891 74.022 12.5166C74.071 12.5405 74.1598 12.5766 74.2622 12.5586C74.3127 12.5497 74.3597 12.5255 74.396 12.4893L78.5366 8.35742C78.5836 8.31053 78.6108 8.24706 78.6108 8.18066V8.04688Z" fill="#D88127" stroke="#EEE1CD" stroke-width="0.5" stroke-linejoin="round"/>
<path d="M19.8789 5.57397C33.2143 -2.20322 50.2884 -1.36618 62.9102 7.48022V7.4812C63.2204 7.69745 64.2597 8.46224 65.2168 9.23706C65.6956 9.62467 66.1489 10.011 66.4795 10.3298C66.6454 10.4899 66.7752 10.6272 66.8604 10.7361C66.9031 10.7906 66.9295 10.8324 66.9443 10.8611C66.9464 10.8651 66.9479 10.8689 66.9492 10.8718C66.9338 11.0795 66.8216 11.4229 66.6504 11.781C66.4796 12.1382 66.275 12.4599 66.1152 12.6267L66.0996 12.6404C66.0944 12.6451 66.0867 12.6517 66.0781 12.6589C66.061 12.6734 66.039 12.6914 66.0137 12.7117C65.9627 12.7524 65.8998 12.8009 65.8379 12.8474C65.7758 12.894 65.716 12.9375 65.6699 12.9695C65.6654 12.9726 65.6603 12.9745 65.6562 12.9773C65.6395 12.9715 65.6168 12.9649 65.5898 12.9519C65.509 12.9131 65.4047 12.8488 65.2793 12.7615C65.0293 12.5874 64.7249 12.3396 64.4121 12.072C64.1004 11.8053 63.7858 11.5241 63.5156 11.283C63.25 11.0459 63.0179 10.8399 62.8818 10.7361C45.9473 -2.29102 21.3078 1.27061 9.16992 18.9529C1.03974 30.7944 0.585579 46.6329 7.96777 58.9705C8.10459 59.2003 8.60665 59.9113 9.05957 60.5662C9.28908 60.898 9.50899 61.2196 9.6709 61.4685C9.75206 61.5933 9.81673 61.6971 9.86035 61.7732C9.8705 61.7909 9.87775 61.8069 9.88477 61.8201C9.87963 61.8272 9.87501 61.8373 9.86621 61.8474C9.82331 61.8967 9.75226 61.9572 9.65234 62.0261C9.45357 62.1632 9.17492 62.3083 8.87402 62.4373C8.57427 62.5657 8.26215 62.6739 8.00195 62.7419C7.87164 62.776 7.75837 62.7986 7.66895 62.8093C7.62468 62.8146 7.58936 62.8165 7.5625 62.8162C7.53846 62.8158 7.52675 62.8137 7.52441 62.8132H7.52344C7.53643 62.817 7.52197 62.8154 7.47559 62.7751C7.43391 62.739 7.38124 62.6849 7.31836 62.6111C7.19282 62.4636 7.0414 62.2554 6.87109 62.0007C6.53107 61.4923 6.12965 60.8178 5.7334 60.1169C4.94111 58.7155 4.17825 57.2281 3.97363 56.7849H3.97461C-4.6468 37.9424 2.12186 15.9272 19.8789 5.57397Z" fill="#D88127" stroke="#EEE1CD" stroke-width="0.5" stroke-linejoin="round"/>
<path d="M78.0649 28.2954C78.1339 28.5154 78.2175 28.8072 78.3003 29.1099C78.4662 29.7161 78.6273 30.3531 78.6655 30.521V30.522C87.4731 68.3631 43.1282 95.0164 14.0532 69.9731L13.3687 69.3716C13.2282 69.2446 12.7046 68.7559 12.2075 68.2808C11.9586 68.0428 11.7181 67.8093 11.5366 67.6274C11.4456 67.5363 11.3705 67.4599 11.3179 67.4028L11.2603 67.3384C11.241 67.288 11.2275 67.252 11.2153 67.2153C11.2021 67.1754 11.1975 67.1533 11.1968 67.1401C11.1963 67.1307 11.1976 67.1272 11.1997 67.1226C11.2028 67.1157 11.213 67.0963 11.2466 67.0649L11.2476 67.064C11.2583 67.0538 11.2978 67.0246 11.3774 66.9761C11.4517 66.9308 11.5476 66.8762 11.6597 66.8169C11.8834 66.6984 12.1638 66.5628 12.4458 66.436C12.7284 66.309 13.0089 66.1927 13.2339 66.1138C13.3468 66.0742 13.4412 66.0453 13.5122 66.0288C13.5352 66.0235 13.5541 66.0204 13.5688 66.0181C13.5861 66.0313 13.6084 66.0491 13.6353 66.0718C13.7091 66.134 13.8082 66.2228 13.9263 66.3325C14.1621 66.5516 14.465 66.8443 14.7778 67.1489C15.3953 67.7502 16.0648 68.4116 16.2974 68.606C40.9695 89.3254 78.5006 70.4682 77.2124 38.1528C77.0973 35.3029 76.5157 32.5165 76.0171 29.7593C76.0214 29.7379 76.0345 29.6946 76.0737 29.6265C76.1207 29.545 76.192 29.4485 76.2847 29.3413C76.4695 29.1274 76.7225 28.8909 76.9897 28.6772C77.2573 28.4633 77.5295 28.2798 77.7485 28.1655C77.8478 28.1138 77.9282 28.0808 77.9868 28.064C78.0085 28.1232 78.0355 28.2014 78.0649 28.2954Z" fill="#D88127" stroke="#EEE1CD" stroke-width="0.5" stroke-linejoin="round"/>
<path d="M29.5444 15.9536C41.3079 15.0354 50.8772 24.5637 50.0103 36.4136V36.4146C49.9877 36.7333 49.9304 37.1818 49.8452 37.6235C49.7592 38.0693 49.6487 38.4884 49.5269 38.7583C49.4575 38.911 49.2724 39.1767 49.0015 39.5073C48.7362 39.8311 48.4043 40.1992 48.0591 40.5513C47.7137 40.9034 47.3582 41.2363 47.0464 41.4927C46.8905 41.6208 46.7481 41.7275 46.6255 41.8071C46.499 41.8892 46.407 41.9329 46.3511 41.9487V41.9497C46.3417 41.9524 46.3326 41.9534 46.3247 41.9556C50.5903 32.688 45.5856 21.5083 35.7466 18.8022C24.0414 15.5854 13.3399 24.9878 14.7778 36.9331L14.855 37.5044C15.2004 39.7692 16.2025 41.7469 17.021 43.771C16.8462 44.3998 16.4728 44.7396 16.0962 44.8159C15.7126 44.8935 15.2273 44.7183 14.8247 44.0981V44.0972L14.6792 43.8647C13.9614 42.6689 13.3741 40.9911 12.9731 39.2466C12.5994 37.6204 12.3919 35.9567 12.3872 34.6021L12.3979 34.0415C12.798 24.6479 20.1771 16.6906 29.5405 15.9546C29.5419 15.9545 29.5431 15.9537 29.5444 15.9536Z" fill="#D88127" stroke="#EEE1CD" stroke-width="0.5" stroke-linejoin="round"/>
<path d="M23.8257 43.8623C25.8872 43.629 27.034 44.2212 27.5786 45.1465C28.1385 46.0981 28.1193 47.4918 27.6372 48.9707C27.158 50.4406 26.2366 51.9437 25.0708 53.0752C23.903 54.2086 22.515 54.9469 21.105 54.9443C20.8282 54.9443 20.5638 54.8876 20.2964 54.8164C20.0401 54.7481 19.7567 54.6582 19.4927 54.6191C19.2181 54.5785 18.9282 54.5855 18.6411 54.7246C18.3565 54.8627 18.1059 55.1159 17.8745 55.5068H17.8735C17.6947 55.8099 17.5744 56.1862 17.4839 56.5869C17.3929 56.9895 17.3291 57.4341 17.269 57.8789C17.147 58.783 17.0432 59.6783 16.7905 60.3516C15.8835 62.7627 13.815 63.8395 11.6948 64.8281C10.6464 65.317 9.57721 65.7888 8.68018 66.3926C7.77687 67.0007 7.0259 67.7571 6.62158 68.8281C6.55993 68.9924 6.50694 69.2199 6.45947 69.457C6.4116 69.6961 6.36448 69.9675 6.31787 70.2178C6.2704 70.4726 6.22314 70.7088 6.17236 70.8945C6.14699 70.9873 6.12248 71.0614 6.09912 71.1162C6.08047 71.1599 6.06761 71.1792 6.06396 71.1846C6.05035 71.1973 6.03816 71.2041 6.02979 71.21C5.9941 71.169 5.94174 71.0764 5.89209 70.916C5.78486 70.5696 5.74039 70.1085 5.73877 69.9443C5.72567 68.4911 5.98768 67.4524 6.42139 66.6689C6.85456 65.8865 7.47151 65.3375 8.20557 64.8809C8.94653 64.42 9.7886 64.0629 10.6812 63.6504C11.5658 63.2415 12.4871 62.7829 13.3403 62.127C14.7117 61.0725 15.0273 59.6698 15.1851 58.252C15.3451 56.8134 15.3481 55.3933 16.0093 54.1035H16.0103C16.096 53.936 16.2975 53.6639 16.5083 53.3701C16.6093 53.2294 16.7097 53.0863 16.7896 52.96C16.8627 52.8441 16.9412 52.7085 16.9673 52.5918C16.9777 52.5451 16.9755 52.4982 16.9741 52.4727C16.9724 52.4408 16.9691 52.4054 16.9644 52.3691C16.9548 52.296 16.9397 52.2038 16.9214 52.1016C16.8826 51.8853 16.8349 51.6432 16.7837 51.3535C16.6824 50.781 16.5959 50.1739 16.6343 49.8135C16.7862 48.4368 17.8855 47.0257 19.3345 45.9053C20.7761 44.7905 22.5019 44.0119 23.8179 43.8623C23.8205 43.8621 23.8231 43.8626 23.8257 43.8623Z" fill="#D88127" stroke="#EEE1CD" stroke-width="0.5" stroke-linejoin="round"/>
<path d="M31.1177 28.8975C32.9871 28.8601 34.4203 29.5532 35.4116 30.6143C36.4071 31.6798 36.9673 33.1283 37.0581 34.6104C37.1489 36.0925 36.7692 37.5906 35.9097 38.7549C35.0539 39.914 33.7122 40.7557 31.8433 40.9199C29.7711 41.1021 28.1998 40.4473 27.1235 39.377C26.0421 38.3014 25.4443 36.7903 25.3608 35.2412C25.2774 33.6921 25.7092 32.1246 26.6597 30.9385C27.6057 29.758 29.0785 28.9384 31.1177 28.8975Z" fill="#D88127" stroke="#EEE1CD" stroke-width="0.5" stroke-linejoin="round"/>
<path d="M39.1167 49.4609C39.8107 49.3161 40.346 49.6213 40.5688 50.0352C40.7708 50.4106 40.7416 50.925 40.2437 51.3613L40.1372 51.4473C39.3717 52.028 37.9722 52.6044 36.4897 53.0547C35.0131 53.5032 33.4952 53.8141 32.5151 53.8809C31.9526 53.9194 31.0666 54.0014 30.2759 53.9199C29.8808 53.8792 29.5295 53.8 29.2642 53.666C29.0366 53.5511 28.8837 53.4032 28.8071 53.2129L28.7798 53.1279C28.6347 52.5875 28.7168 52.287 28.8638 52.1074C29.0215 51.9148 29.3067 51.793 29.7095 51.7305C30.1065 51.6688 30.5694 51.6718 31.0288 51.6865C31.4754 51.7008 31.9334 51.7268 32.2788 51.7012L32.2778 51.7002C33.6049 51.6041 35.1961 51.1639 36.4282 50.7207C36.8139 50.5819 37.3849 50.2796 37.8999 50.0127C38.1625 49.8766 38.4144 49.7478 38.6313 49.6465C38.8413 49.5484 39 49.4859 39.0991 49.4619C39.1048 49.4611 39.111 49.4621 39.1167 49.4609Z" fill="#D88127" stroke="#EEE1CD" stroke-width="0.5" stroke-linejoin="round"/>
</svg>
