<svg width="16" height="14" viewBox="0 0 16 14" fill="none" xmlns="http://www.w3.org/2000/svg">
<g clip-path="url(#clip0_2170_319)">
<path d="M15.8414 6.61547L10.387 1.161C10.191 0.932211 9.84669 0.90554 9.6179 1.10152C9.3891 1.29746 9.36243 1.64179 9.55841 1.87059C9.57669 1.89191 9.59657 1.91183 9.6179 1.93007L14.1396 6.45727H0.545428C0.244215 6.45727 0 6.70148 0 7.00275C0 7.30401 0.244215 7.54817 0.545428 7.54817H14.1396L9.6179 12.0699C9.3891 12.2658 9.36243 12.6102 9.55841 12.839C9.75439 13.0677 10.0987 13.0944 10.3275 12.8984C10.3488 12.8802 10.3687 12.8603 10.387 12.839L15.8414 7.38449C16.0529 7.17182 16.0529 6.82823 15.8414 6.61547Z" fill="white"/>
</g>
<defs>
<clipPath id="clip0_2170_319">
<rect width="16" height="14" fill="white"/>
</clipPath>
</defs>
</svg>
