<svg width="16" height="14" viewBox="0 0 16 14" fill="none" xmlns="http://www.w3.org/2000/svg">
<path d="M15.8414 6.61535L10.387 1.16088C10.191 0.932089 9.84669 0.905418 9.6179 1.1014C9.3891 1.29733 9.36243 1.64167 9.55841 1.87046C9.57669 1.89179 9.59657 1.91171 9.6179 1.92995L14.1396 6.45715H0.545428C0.244215 6.45715 0 6.70136 0 7.00262C0 7.30388 0.244215 7.54805 0.545428 7.54805H14.1396L9.6179 12.0698C9.3891 12.2657 9.36243 12.61 9.55841 12.8388C9.75439 13.0676 10.0987 13.0943 10.3275 12.8983C10.3488 12.88 10.3687 12.8602 10.387 12.8388L15.8414 7.38437C16.0529 7.1717 16.0529 6.82811 15.8414 6.61535Z" fill="white"/>
</svg>
