<svg width="18" height="20" viewBox="0 0 18 20" fill="none" xmlns="http://www.w3.org/2000/svg">
<g clip-path="url(#clip0_2170_2683)">
<path d="M9.4949 19.8017L16.5078 12.9837C16.8019 12.7388 16.8362 12.3083 16.5843 12.0224C16.3323 11.7364 15.8896 11.703 15.5955 11.948C15.568 11.9709 15.5424 11.9957 15.519 12.0224L9.6983 17.6745L9.6983 2.98946C9.6983 2.61295 9.38431 2.30768 8.99698 2.30768C8.60964 2.30768 8.29571 2.61295 8.29571 2.98946L8.29571 17.6745L2.48207 12.0224C2.23016 11.7364 1.78744 11.703 1.49327 11.948C1.19911 12.193 1.16482 12.6233 1.4168 12.9093C1.4403 12.936 1.46585 12.9609 1.49327 12.9837L8.50616 19.8018C8.77959 20.0661 9.22135 20.0661 9.4949 19.8017Z" fill="#2A2A2A"/>
</g>
<defs>
<clipPath id="clip0_2170_2683">
<rect width="20" height="18" fill="white" transform="translate(18) rotate(90)"/>
</clipPath>
</defs>
</svg>
