<svg width="30" height="24" viewBox="0 0 30 24" fill="none" xmlns="http://www.w3.org/2000/svg">
<path d="M26.8403 3.55518C28.3171 3.5553 29.5247 4.76298 29.5249 6.23975V17.7603C29.5249 19.2372 28.3172 20.4447 26.8403 20.4448H7.00049C5.52348 20.4448 4.31498 19.2373 4.31494 17.7603V16.8003C4.31494 16.3793 4.65953 16.0356 5.08057 16.0356C5.50139 16.0359 5.84521 16.3794 5.84521 16.8003V17.7603C5.84522 17.8103 5.85056 17.8609 5.85986 17.9136L12.7593 11.9995L5.85986 6.08545C5.85045 6.13844 5.84525 6.18944 5.84521 6.23975V7.19971C5.84521 7.62059 5.50139 7.96508 5.08057 7.96533C4.65953 7.96533 4.31494 7.62074 4.31494 7.19971V6.23975C4.31518 4.76291 5.5236 3.55518 7.00049 3.55518H26.8403ZM18.2505 14.4302C17.8748 14.771 17.3972 14.9408 16.9204 14.9409C16.4436 14.9409 15.9661 14.7708 15.5903 14.4302L13.9429 12.9976L7.04443 18.9155H26.7964L19.896 12.9966L18.2505 14.4302ZM21.0796 11.9995L27.979 17.9136C27.9883 17.8608 27.9946 17.8103 27.9946 17.7603V6.23975C27.9946 6.18937 27.9884 6.13852 27.979 6.08545L21.0796 11.9995ZM7.00049 12.8354C7.42132 12.8357 7.76509 13.1792 7.76514 13.6001C7.76514 14.021 7.42135 14.3645 7.00049 14.3647H1.23975C0.818871 14.3646 0.475098 14.021 0.475098 13.6001C0.47514 13.1792 0.818897 12.8356 1.23975 12.8354H7.00049ZM16.5825 13.2466C16.792 13.4017 17.0467 13.4013 17.2563 13.2466L26.7944 5.08545H7.04639L16.5825 13.2466ZM7.00049 9.63525C7.42125 9.63547 7.76499 9.97912 7.76514 10.3999C7.76514 10.8208 7.42135 11.1653 7.00049 11.1655H3.15967C2.73883 11.1653 2.39502 10.8208 2.39502 10.3999C2.39517 9.97913 2.73892 9.63549 3.15967 9.63525H7.00049Z" fill="#B58469" stroke="#B58469" stroke-width="0.25"/>
</svg>
