<svg width="40" height="40" viewBox="0 0 40 40" fill="none" xmlns="http://www.w3.org/2000/svg">
<g clip-path="url(#clip0_2001_1156)">
<mask id="path-1-inside-1_2001_1156" fill="white">
<path d="M36.1605 32.8199C35.9881 32.6471 35.7635 32.5358 35.5216 32.5034C35.2796 32.471 35.0337 32.5192 34.8218 32.6405L33.6833 31.502C34.2201 30.6514 34.5644 29.6938 34.6922 28.6962C34.8201 27.6986 34.7283 26.6851 34.4233 25.7267C34.1183 24.7684 33.6074 23.8882 32.9266 23.148C32.2457 22.4077 31.4112 21.8253 30.4816 21.4414C29.9964 21.2417 29.4891 21.1004 28.9705 21.0205C29.2854 19.3051 29.3133 17.5493 29.0533 15.8246C32.807 16.2801 36.264 16.0248 39.4036 12.9197C39.7382 12.5838 39.9442 12.141 39.9855 11.6687C40.0268 11.1964 39.9008 10.7246 39.6295 10.3358C39.3583 9.94694 38.959 9.66581 38.5014 9.54153C38.0439 9.41724 37.5572 9.45771 37.1265 9.65585L33.7385 6.26784C33.6065 6.1548 33.4367 6.09573 33.263 6.10244C33.0894 6.10914 32.9246 6.18114 32.8018 6.30402C32.6789 6.42691 32.6069 6.59165 32.6002 6.76531C32.5935 6.93897 32.6525 7.10877 32.7656 7.24077L36.0363 10.5184C35.5073 10.9514 34.9105 11.2941 34.2698 11.5327L32.4206 9.65585C32.2886 9.54281 32.1188 9.48374 31.9451 9.49044C31.7714 9.49715 31.6067 9.56914 31.4838 9.69203C31.3609 9.81492 31.2889 9.97966 31.2822 10.1533C31.2755 10.327 31.3346 10.4968 31.4476 10.6288L32.7104 11.8984C31.2715 11.9986 29.8258 11.9058 28.4115 11.6224C28.1275 10.2083 28.037 8.7621 28.1424 7.32358L29.4673 8.64842C29.5993 8.76146 29.7691 8.82053 29.9427 8.81382C30.1164 8.80712 30.2811 8.73512 30.404 8.61224C30.5269 8.48935 30.5989 8.32461 30.6056 8.15095C30.6123 7.97729 30.5532 7.80749 30.4402 7.67549L28.5081 5.74342C28.744 5.10152 29.087 4.50424 29.5225 3.97697L30.3505 4.8257C30.4804 4.95471 30.6563 5.02683 30.8394 5.02619C31.0225 5.02554 31.1979 4.95218 31.3269 4.82225C31.4559 4.69231 31.528 4.51645 31.5274 4.33334C31.5267 4.15023 31.4534 3.97488 31.3234 3.84586L30.3505 2.87983C30.5501 2.44801 30.5916 1.95977 30.4677 1.50046C30.3439 1.04114 30.0625 0.63997 29.6729 0.36705C29.2832 0.0941311 28.81 -0.0331721 28.3361 0.00739092C27.8621 0.0479539 27.4174 0.253803 27.0798 0.588959C23.9264 3.74236 23.7401 7.39948 24.1886 10.9393C15.6668 9.49715 9.49113 15.6659 10.9333 24.1946C7.38656 23.7461 3.73634 23.9393 0.58294 27.0927C0.252604 27.4313 0.0509762 27.8747 0.0129245 28.3462C-0.0251273 28.8177 0.102789 29.2877 0.374554 29.6749C0.646319 30.062 1.04484 30.3421 1.50121 30.4666C1.95758 30.591 2.4431 30.5521 2.87381 30.3565L6.26182 33.7445C6.32368 33.8168 6.3998 33.8754 6.48541 33.9168C6.57102 33.9583 6.66426 33.9815 6.75929 33.9852C6.85432 33.9889 6.94908 33.9729 7.03763 33.9382C7.12618 33.9035 7.2066 33.8509 7.27384 33.7836C7.34109 33.7164 7.39371 33.636 7.4284 33.5474C7.46309 33.4589 7.4791 33.3641 7.47543 33.2691C7.47176 33.174 7.44849 33.0808 7.40707 32.9952C7.36565 32.9096 7.30699 32.8335 7.23475 32.7716L3.96405 29.494C4.49303 29.061 5.08987 28.7182 5.73051 28.4797L7.57976 30.3565C7.64162 30.4287 7.71775 30.4874 7.80335 30.5288C7.88896 30.5702 7.9822 30.5935 8.07723 30.5972C8.17226 30.6009 8.26703 30.5849 8.35557 30.5502C8.44412 30.5155 8.52454 30.4629 8.59179 30.3956C8.65903 30.3284 8.71165 30.2479 8.74634 30.1594C8.78103 30.0708 8.79705 29.9761 8.79338 29.8811C8.7897 29.786 8.76643 29.6928 8.72501 29.6072C8.6836 29.5216 8.62493 29.4454 8.5527 29.3836L7.28306 28.1139C8.72419 28.0136 10.1723 28.1064 11.5888 28.39C11.8723 29.8065 11.9652 31.2546 11.8648 32.6957L10.5331 31.3639C10.4011 31.2509 10.2313 31.1918 10.0576 31.1985C9.88394 31.2052 9.7192 31.2772 9.59631 31.4001C9.47342 31.523 9.40143 31.6878 9.39472 31.8614C9.38801 32.0351 9.44709 32.2049 9.56013 32.3369L11.4991 34.2758C11.2605 34.9165 10.9178 35.5133 10.4848 36.0423L9.64983 35.1867C9.58549 35.1228 9.5092 35.0722 9.42532 35.0378C9.34143 35.0034 9.25159 34.9859 9.16093 34.9862C9.07026 34.9865 8.98055 35.0047 8.8969 35.0397C8.81326 35.0747 8.73733 35.1258 8.67345 35.1901C8.60957 35.2545 8.55898 35.3307 8.52458 35.4146C8.49018 35.4985 8.47264 35.5884 8.47296 35.679C8.47328 35.7697 8.49146 35.8594 8.52645 35.943C8.56144 36.0267 8.61256 36.1026 8.6769 36.1665L9.64983 37.1325C9.45424 37.5632 9.41532 38.0488 9.53979 38.5051C9.66426 38.9615 9.9443 39.36 10.3315 39.6318C10.7187 39.9036 11.1886 40.0315 11.6602 39.9934C12.1317 39.9554 12.575 39.7537 12.9136 39.4234C16.067 36.27 16.2602 32.6198 15.8117 29.0731C17.5371 29.3285 19.2929 29.2958 21.0076 28.9765C21.1983 30.0956 21.6622 31.1504 22.3582 32.0474C23.0541 32.9443 23.9606 33.6557 24.9973 34.1184C26.034 34.5811 27.1689 34.7809 28.3013 34.7C29.4337 34.6192 30.5286 34.2602 31.489 33.6548L32.6345 34.8072C32.5131 35.019 32.465 35.2649 32.4974 35.5069C32.5298 35.7488 32.641 35.9734 32.8139 36.1458L35.9673 39.3268C36.4183 39.7391 37.011 39.9616 37.622 39.9479C38.2329 39.9342 38.8151 39.6853 39.2472 39.2532C39.6793 38.8211 39.9281 38.239 39.9418 37.628C39.9555 37.0171 39.7331 36.4244 39.3208 35.9733L36.1605 32.8199ZM37.5267 11.0359C37.587 10.9756 37.6585 10.9278 37.7373 10.8952C37.816 10.8626 37.9004 10.8458 37.9856 10.8458C38.0708 10.8458 38.1552 10.8626 38.2339 10.8952C38.3127 10.9278 38.3842 10.9756 38.4445 11.0359C38.5047 11.0962 38.5525 11.1677 38.5851 11.2464C38.6177 11.3252 38.6345 11.4095 38.6345 11.4948C38.6345 11.58 38.6177 11.6644 38.5851 11.7431C38.5525 11.8218 38.5047 11.8934 38.4445 11.9536C35.7327 14.6585 32.6414 14.9276 28.86 14.4101C28.791 14.0927 28.6944 13.3889 28.6323 13.0646C31.9651 13.5752 34.9529 13.6028 37.5267 11.0359ZM28.0596 1.56879C28.1844 1.47065 28.3408 1.42164 28.4992 1.43106C28.6576 1.44048 28.8071 1.50766 28.9193 1.61989C29.0316 1.73213 29.0988 1.88161 29.1082 2.04005C29.1176 2.19849 29.0686 2.35488 28.9705 2.47962C28.0273 3.40146 27.3442 4.55587 26.9901 5.82623C25.9344 9.65585 27.8733 14.279 27.8595 18.1983C27.9037 19.1129 27.813 20.0289 27.5904 20.917C27.1971 20.8687 26.4726 21.1378 26.2449 21.0412C26.9349 18.5157 26.4243 16.0869 26.031 13.6718C25.1753 9.28324 24.6785 4.78429 28.0596 1.56879ZM23.4503 22.4834C22.5877 21.3241 21.3181 22.6076 22.4704 23.4632C22.0495 24.0152 21.7804 24.6362 21.0145 24.788L18.1164 21.883C17.9865 21.7531 17.8102 21.6801 17.6265 21.6801C17.4427 21.6801 17.2665 21.7531 17.1366 21.883C17.0066 22.013 16.9336 22.1892 16.9336 22.373C16.9336 22.5567 17.0066 22.7329 17.1366 22.8629L19.4343 25.1537C18.0066 25.2521 16.5722 25.157 15.17 24.8708C14.8798 23.4575 14.7869 22.0108 14.894 20.572L15.2873 20.9653C15.4203 21.0448 15.5763 21.0772 15.7299 21.0573C15.8836 21.0374 16.0261 20.9664 16.1345 20.8556C16.2429 20.7448 16.3108 20.6008 16.3274 20.4467C16.3439 20.2926 16.3081 20.1374 16.2257 20.0062L15.2252 18.9988C15.4609 18.361 15.804 17.7682 16.2395 17.2461L20.4625 21.469C20.5918 21.5975 20.7667 21.6697 20.9489 21.6697C21.1312 21.6697 21.3061 21.5975 21.4354 21.469C21.5001 21.4049 21.5514 21.3286 21.5865 21.2445C21.6215 21.1604 21.6395 21.0702 21.6395 20.9791C21.6395 20.888 21.6215 20.7978 21.5865 20.7138C21.5514 20.6297 21.5001 20.5533 21.4354 20.4892L17.2401 16.2456C19.3791 14.4929 21.8977 14.6447 24.8924 15.1415C25.1825 16.5548 25.2777 18.0012 25.1753 19.4404L21.9322 16.2042C21.8023 16.0751 21.6264 16.003 21.4433 16.0037C21.2602 16.0043 21.0849 16.0777 20.9558 16.2076C20.8268 16.3375 20.7547 16.5134 20.7554 16.6965C20.756 16.8796 20.8294 17.055 20.9593 17.184L24.8096 21.0274C24.6233 21.8002 24.023 22.0763 23.4503 22.4834ZM2.4736 28.9765C2.3519 29.0982 2.18684 29.1665 2.01474 29.1665C1.84263 29.1665 1.67757 29.0982 1.55587 28.9765C1.43417 28.8548 1.3658 28.6897 1.3658 28.5176C1.3658 28.3455 1.43417 28.1804 1.55587 28.0587C2.4358 27.1646 3.4935 26.4649 4.66067 26.0049C5.82783 25.5449 7.0785 25.3349 8.33189 25.3884C9.27186 25.3941 10.2103 25.4655 11.1403 25.6023L11.368 26.9823C8.03518 26.4372 5.04738 26.4096 2.4736 28.9765ZM11.9407 38.4505C11.8443 38.5243 11.7301 38.5713 11.6097 38.5869C11.4892 38.6024 11.3668 38.5859 11.2548 38.539C11.1428 38.4921 11.0452 38.4165 10.9718 38.3197C10.8983 38.223 10.8517 38.1087 10.8367 37.9882C10.836 37.9031 10.8527 37.8187 10.886 37.7404C10.9192 37.662 10.9682 37.5914 11.0299 37.5327C11.9446 36.6425 12.6168 35.5333 12.9826 34.3103C13.8452 31.4744 12.8929 27.9621 12.4306 24.8915C11.8165 20.8825 11.989 17.6394 14.8181 14.8172C15.6951 13.9206 16.7511 13.2187 17.9174 12.7574C19.0837 12.2961 20.3342 12.0857 21.5872 12.1399C22.5251 12.1481 23.4612 12.2218 24.3887 12.3607C24.4646 12.8093 24.5405 13.2578 24.6233 13.6994C21.2836 13.1888 18.3027 13.1612 15.7289 15.7349C9.47733 21.952 18.7995 31.9919 11.9407 38.4505ZM18.1854 27.8655C17.3217 27.8511 16.4597 27.7819 15.6047 27.6585C15.6392 27.3273 15.1838 26.2785 15.5357 26.3337C17.3467 26.6911 19.2136 26.6511 21.0076 26.2164C21.0835 26.2164 21.1042 26.2164 21.0766 26.2716C21.0019 26.6312 20.9512 26.9954 20.9248 27.3618V27.5757C20.0278 27.789 19.1072 27.8863 18.1854 27.8655ZM30.0193 32.9096C26.3415 34.6347 21.808 31.3778 22.3048 27.3273C22.636 22.7249 28.515 20.5996 31.7374 23.8772C32.375 24.5198 32.8465 25.3081 33.1112 26.1737C33.3759 27.0394 33.4258 27.9565 33.2566 28.8458C33.0874 29.7351 32.7043 30.5698 32.1403 31.2778C31.5762 31.9859 30.8483 32.5459 30.0193 32.9096ZM32.7242 32.7164L32.8277 32.5991L33.8006 33.5858L33.566 33.8204L32.5793 32.8337L32.7242 32.7164ZM38.341 38.347C38.1534 38.5211 37.9069 38.6178 37.6509 38.6178C37.395 38.6178 37.1485 38.5211 36.9609 38.347L33.9938 35.3799L35.3739 33.9998L38.341 36.9669C38.5197 37.1522 38.6196 37.3995 38.6196 37.657C38.6196 37.9144 38.5197 38.1617 38.341 38.347Z"/>
</mask>
<path d="M36.1605 32.8199C35.9881 32.6471 35.7635 32.5358 35.5216 32.5034C35.2796 32.471 35.0337 32.5192 34.8218 32.6405L33.6833 31.502C34.2201 30.6514 34.5644 29.6938 34.6922 28.6962C34.8201 27.6986 34.7283 26.6851 34.4233 25.7267C34.1183 24.7684 33.6074 23.8882 32.9266 23.148C32.2457 22.4077 31.4112 21.8253 30.4816 21.4414C29.9964 21.2417 29.4891 21.1004 28.9705 21.0205C29.2854 19.3051 29.3133 17.5493 29.0533 15.8246C32.807 16.2801 36.264 16.0248 39.4036 12.9197C39.7382 12.5838 39.9442 12.141 39.9855 11.6687C40.0268 11.1964 39.9008 10.7246 39.6295 10.3358C39.3583 9.94694 38.959 9.66581 38.5014 9.54153C38.0439 9.41724 37.5572 9.45771 37.1265 9.65585L33.7385 6.26784C33.6065 6.1548 33.4367 6.09573 33.263 6.10244C33.0894 6.10914 32.9246 6.18114 32.8018 6.30402C32.6789 6.42691 32.6069 6.59165 32.6002 6.76531C32.5935 6.93897 32.6525 7.10877 32.7656 7.24077L36.0363 10.5184C35.5073 10.9514 34.9105 11.2941 34.2698 11.5327L32.4206 9.65585C32.2886 9.54281 32.1188 9.48374 31.9451 9.49044C31.7714 9.49715 31.6067 9.56914 31.4838 9.69203C31.3609 9.81492 31.2889 9.97966 31.2822 10.1533C31.2755 10.327 31.3346 10.4968 31.4476 10.6288L32.7104 11.8984C31.2715 11.9986 29.8258 11.9058 28.4115 11.6224C28.1275 10.2083 28.037 8.7621 28.1424 7.32358L29.4673 8.64842C29.5993 8.76146 29.7691 8.82053 29.9427 8.81382C30.1164 8.80712 30.2811 8.73512 30.404 8.61224C30.5269 8.48935 30.5989 8.32461 30.6056 8.15095C30.6123 7.97729 30.5532 7.80749 30.4402 7.67549L28.5081 5.74342C28.744 5.10152 29.087 4.50424 29.5225 3.97697L30.3505 4.8257C30.4804 4.95471 30.6563 5.02683 30.8394 5.02619C31.0225 5.02554 31.1979 4.95218 31.3269 4.82225C31.4559 4.69231 31.528 4.51645 31.5274 4.33334C31.5267 4.15023 31.4534 3.97488 31.3234 3.84586L30.3505 2.87983C30.5501 2.44801 30.5916 1.95977 30.4677 1.50046C30.3439 1.04114 30.0625 0.63997 29.6729 0.36705C29.2832 0.0941311 28.81 -0.0331721 28.3361 0.00739092C27.8621 0.0479539 27.4174 0.253803 27.0798 0.588959C23.9264 3.74236 23.7401 7.39948 24.1886 10.9393C15.6668 9.49715 9.49113 15.6659 10.9333 24.1946C7.38656 23.7461 3.73634 23.9393 0.58294 27.0927C0.252604 27.4313 0.0509762 27.8747 0.0129245 28.3462C-0.0251273 28.8177 0.102789 29.2877 0.374554 29.6749C0.646319 30.062 1.04484 30.3421 1.50121 30.4666C1.95758 30.591 2.4431 30.5521 2.87381 30.3565L6.26182 33.7445C6.32368 33.8168 6.3998 33.8754 6.48541 33.9168C6.57102 33.9583 6.66426 33.9815 6.75929 33.9852C6.85432 33.9889 6.94908 33.9729 7.03763 33.9382C7.12618 33.9035 7.2066 33.8509 7.27384 33.7836C7.34109 33.7164 7.39371 33.636 7.4284 33.5474C7.46309 33.4589 7.4791 33.3641 7.47543 33.2691C7.47176 33.174 7.44849 33.0808 7.40707 32.9952C7.36565 32.9096 7.30699 32.8335 7.23475 32.7716L3.96405 29.494C4.49303 29.061 5.08987 28.7182 5.73051 28.4797L7.57976 30.3565C7.64162 30.4287 7.71775 30.4874 7.80335 30.5288C7.88896 30.5702 7.9822 30.5935 8.07723 30.5972C8.17226 30.6009 8.26703 30.5849 8.35557 30.5502C8.44412 30.5155 8.52454 30.4629 8.59179 30.3956C8.65903 30.3284 8.71165 30.2479 8.74634 30.1594C8.78103 30.0708 8.79705 29.9761 8.79338 29.8811C8.7897 29.786 8.76643 29.6928 8.72501 29.6072C8.6836 29.5216 8.62493 29.4454 8.5527 29.3836L7.28306 28.1139C8.72419 28.0136 10.1723 28.1064 11.5888 28.39C11.8723 29.8065 11.9652 31.2546 11.8648 32.6957L10.5331 31.3639C10.4011 31.2509 10.2313 31.1918 10.0576 31.1985C9.88394 31.2052 9.7192 31.2772 9.59631 31.4001C9.47342 31.523 9.40143 31.6878 9.39472 31.8614C9.38801 32.0351 9.44709 32.2049 9.56013 32.3369L11.4991 34.2758C11.2605 34.9165 10.9178 35.5133 10.4848 36.0423L9.64983 35.1867C9.58549 35.1228 9.5092 35.0722 9.42532 35.0378C9.34143 35.0034 9.25159 34.9859 9.16093 34.9862C9.07026 34.9865 8.98055 35.0047 8.8969 35.0397C8.81326 35.0747 8.73733 35.1258 8.67345 35.1901C8.60957 35.2545 8.55898 35.3307 8.52458 35.4146C8.49018 35.4985 8.47264 35.5884 8.47296 35.679C8.47328 35.7697 8.49146 35.8594 8.52645 35.943C8.56144 36.0267 8.61256 36.1026 8.6769 36.1665L9.64983 37.1325C9.45424 37.5632 9.41532 38.0488 9.53979 38.5051C9.66426 38.9615 9.9443 39.36 10.3315 39.6318C10.7187 39.9036 11.1886 40.0315 11.6602 39.9934C12.1317 39.9554 12.575 39.7537 12.9136 39.4234C16.067 36.27 16.2602 32.6198 15.8117 29.0731C17.5371 29.3285 19.2929 29.2958 21.0076 28.9765C21.1983 30.0956 21.6622 31.1504 22.3582 32.0474C23.0541 32.9443 23.9606 33.6557 24.9973 34.1184C26.034 34.5811 27.1689 34.7809 28.3013 34.7C29.4337 34.6192 30.5286 34.2602 31.489 33.6548L32.6345 34.8072C32.5131 35.019 32.465 35.2649 32.4974 35.5069C32.5298 35.7488 32.641 35.9734 32.8139 36.1458L35.9673 39.3268C36.4183 39.7391 37.011 39.9616 37.622 39.9479C38.2329 39.9342 38.8151 39.6853 39.2472 39.2532C39.6793 38.8211 39.9281 38.239 39.9418 37.628C39.9555 37.0171 39.7331 36.4244 39.3208 35.9733L36.1605 32.8199ZM37.5267 11.0359C37.587 10.9756 37.6585 10.9278 37.7373 10.8952C37.816 10.8626 37.9004 10.8458 37.9856 10.8458C38.0708 10.8458 38.1552 10.8626 38.2339 10.8952C38.3127 10.9278 38.3842 10.9756 38.4445 11.0359C38.5047 11.0962 38.5525 11.1677 38.5851 11.2464C38.6177 11.3252 38.6345 11.4095 38.6345 11.4948C38.6345 11.58 38.6177 11.6644 38.5851 11.7431C38.5525 11.8218 38.5047 11.8934 38.4445 11.9536C35.7327 14.6585 32.6414 14.9276 28.86 14.4101C28.791 14.0927 28.6944 13.3889 28.6323 13.0646C31.9651 13.5752 34.9529 13.6028 37.5267 11.0359ZM28.0596 1.56879C28.1844 1.47065 28.3408 1.42164 28.4992 1.43106C28.6576 1.44048 28.8071 1.50766 28.9193 1.61989C29.0316 1.73213 29.0988 1.88161 29.1082 2.04005C29.1176 2.19849 29.0686 2.35488 28.9705 2.47962C28.0273 3.40146 27.3442 4.55587 26.9901 5.82623C25.9344 9.65585 27.8733 14.279 27.8595 18.1983C27.9037 19.1129 27.813 20.0289 27.5904 20.917C27.1971 20.8687 26.4726 21.1378 26.2449 21.0412C26.9349 18.5157 26.4243 16.0869 26.031 13.6718C25.1753 9.28324 24.6785 4.78429 28.0596 1.56879ZM23.4503 22.4834C22.5877 21.3241 21.3181 22.6076 22.4704 23.4632C22.0495 24.0152 21.7804 24.6362 21.0145 24.788L18.1164 21.883C17.9865 21.7531 17.8102 21.6801 17.6265 21.6801C17.4427 21.6801 17.2665 21.7531 17.1366 21.883C17.0066 22.013 16.9336 22.1892 16.9336 22.373C16.9336 22.5567 17.0066 22.7329 17.1366 22.8629L19.4343 25.1537C18.0066 25.2521 16.5722 25.157 15.17 24.8708C14.8798 23.4575 14.7869 22.0108 14.894 20.572L15.2873 20.9653C15.4203 21.0448 15.5763 21.0772 15.7299 21.0573C15.8836 21.0374 16.0261 20.9664 16.1345 20.8556C16.2429 20.7448 16.3108 20.6008 16.3274 20.4467C16.3439 20.2926 16.3081 20.1374 16.2257 20.0062L15.2252 18.9988C15.4609 18.361 15.804 17.7682 16.2395 17.2461L20.4625 21.469C20.5918 21.5975 20.7667 21.6697 20.9489 21.6697C21.1312 21.6697 21.3061 21.5975 21.4354 21.469C21.5001 21.4049 21.5514 21.3286 21.5865 21.2445C21.6215 21.1604 21.6395 21.0702 21.6395 20.9791C21.6395 20.888 21.6215 20.7978 21.5865 20.7138C21.5514 20.6297 21.5001 20.5533 21.4354 20.4892L17.2401 16.2456C19.3791 14.4929 21.8977 14.6447 24.8924 15.1415C25.1825 16.5548 25.2777 18.0012 25.1753 19.4404L21.9322 16.2042C21.8023 16.0751 21.6264 16.003 21.4433 16.0037C21.2602 16.0043 21.0849 16.0777 20.9558 16.2076C20.8268 16.3375 20.7547 16.5134 20.7554 16.6965C20.756 16.8796 20.8294 17.055 20.9593 17.184L24.8096 21.0274C24.6233 21.8002 24.023 22.0763 23.4503 22.4834ZM2.4736 28.9765C2.3519 29.0982 2.18684 29.1665 2.01474 29.1665C1.84263 29.1665 1.67757 29.0982 1.55587 28.9765C1.43417 28.8548 1.3658 28.6897 1.3658 28.5176C1.3658 28.3455 1.43417 28.1804 1.55587 28.0587C2.4358 27.1646 3.4935 26.4649 4.66067 26.0049C5.82783 25.5449 7.0785 25.3349 8.33189 25.3884C9.27186 25.3941 10.2103 25.4655 11.1403 25.6023L11.368 26.9823C8.03518 26.4372 5.04738 26.4096 2.4736 28.9765ZM11.9407 38.4505C11.8443 38.5243 11.7301 38.5713 11.6097 38.5869C11.4892 38.6024 11.3668 38.5859 11.2548 38.539C11.1428 38.4921 11.0452 38.4165 10.9718 38.3197C10.8983 38.223 10.8517 38.1087 10.8367 37.9882C10.836 37.9031 10.8527 37.8187 10.886 37.7404C10.9192 37.662 10.9682 37.5914 11.0299 37.5327C11.9446 36.6425 12.6168 35.5333 12.9826 34.3103C13.8452 31.4744 12.8929 27.9621 12.4306 24.8915C11.8165 20.8825 11.989 17.6394 14.8181 14.8172C15.6951 13.9206 16.7511 13.2187 17.9174 12.7574C19.0837 12.2961 20.3342 12.0857 21.5872 12.1399C22.5251 12.1481 23.4612 12.2218 24.3887 12.3607C24.4646 12.8093 24.5405 13.2578 24.6233 13.6994C21.2836 13.1888 18.3027 13.1612 15.7289 15.7349C9.47733 21.952 18.7995 31.9919 11.9407 38.4505ZM18.1854 27.8655C17.3217 27.8511 16.4597 27.7819 15.6047 27.6585C15.6392 27.3273 15.1838 26.2785 15.5357 26.3337C17.3467 26.6911 19.2136 26.6511 21.0076 26.2164C21.0835 26.2164 21.1042 26.2164 21.0766 26.2716C21.0019 26.6312 20.9512 26.9954 20.9248 27.3618V27.5757C20.0278 27.789 19.1072 27.8863 18.1854 27.8655ZM30.0193 32.9096C26.3415 34.6347 21.808 31.3778 22.3048 27.3273C22.636 22.7249 28.515 20.5996 31.7374 23.8772C32.375 24.5198 32.8465 25.3081 33.1112 26.1737C33.3759 27.0394 33.4258 27.9565 33.2566 28.8458C33.0874 29.7351 32.7043 30.5698 32.1403 31.2778C31.5762 31.9859 30.8483 32.5459 30.0193 32.9096ZM32.7242 32.7164L32.8277 32.5991L33.8006 33.5858L33.566 33.8204L32.5793 32.8337L32.7242 32.7164ZM38.341 38.347C38.1534 38.5211 37.9069 38.6178 37.6509 38.6178C37.395 38.6178 37.1485 38.5211 36.9609 38.347L33.9938 35.3799L35.3739 33.9998L38.341 36.9669C38.5197 37.1522 38.6196 37.3995 38.6196 37.657C38.6196 37.9144 38.5197 38.1617 38.341 38.347Z" fill="#D88127" stroke="#F5F5F5" stroke-width="0.3" mask="url(#path-1-inside-1_2001_1156)"/>
</g>
<defs>
<clipPath id="clip0_2001_1156">
<rect width="40" height="40" fill="white"/>
</clipPath>
</defs>
</svg>
