<svg width="40" height="40" viewBox="0 0 40 40" fill="none" xmlns="http://www.w3.org/2000/svg">
<g clip-path="url(#clip0_2001_1167)">
<path d="M24.9629 1.79663C27.5098 1.79663 29.9842 2.69898 31.9297 4.33862C32.1772 4.54706 32.2084 4.9173 32 5.16479C31.7916 5.41209 31.4222 5.44335 31.1748 5.23511C29.4402 3.77331 27.2337 2.96851 24.9629 2.96851C19.6444 2.96855 15.3175 7.29552 15.3174 12.614C15.3174 13.8725 15.5532 15.0866 16.0186 16.2322C16.1226 16.1138 16.2319 15.9962 16.3457 15.8806C16.4431 15.7814 16.5447 15.6834 16.6484 15.5867C16.3079 14.6345 16.1348 13.6354 16.1348 12.614C16.1349 7.74627 20.0951 3.78594 24.9629 3.78589C29.8307 3.78589 33.7909 7.74624 33.791 12.614C33.791 14.6705 33.0684 16.6734 31.7559 18.2527C31.6399 18.3922 31.4725 18.4646 31.3047 18.4646C31.1726 18.4646 31.0399 18.4198 30.9307 18.3289C30.6817 18.1219 30.6476 17.7526 30.8545 17.5037C31.9924 16.134 32.6191 14.3974 32.6191 12.614C32.619 8.3923 29.1843 4.95776 24.9629 4.95776C20.7412 4.95781 17.3068 8.39233 17.3066 12.614C17.3066 13.3638 17.4155 14.0991 17.627 14.8074C17.8634 14.7196 18.139 14.7922 18.2988 15.0037C18.4936 15.2618 18.4417 15.629 18.1836 15.824C17.8193 16.0995 17.4822 16.3946 17.1816 16.7009C16.9947 16.891 16.8235 17.0853 16.6719 17.2781C16.0589 18.0583 15.8311 18.7331 15.9756 19.3406C16.098 19.8539 16.4943 20.3692 17.1885 20.9148C17.8794 21.4577 18.4712 21.7214 18.9971 21.7214H19.0049C19.6295 21.7183 20.2307 21.3373 20.8438 20.5574C20.9905 20.3707 21.1331 20.1665 21.2686 19.95C21.281 19.9262 21.2953 19.9039 21.3105 19.8826C22.5664 17.837 22.9619 15.2991 22.1211 14.6384C21.7744 14.366 21.1447 14.3637 20.3477 14.6326C20.0411 14.7359 19.7091 14.5718 19.6055 14.2654C19.502 13.9591 19.6661 13.6258 19.9727 13.5222C21.1738 13.1167 22.1676 13.1838 22.8457 13.7166C23.6056 14.3138 23.8875 15.4135 23.6611 16.8962C23.5113 17.8777 23.1475 18.9451 22.6406 19.9119C23.3877 20.1496 24.1661 20.2703 24.9629 20.2703C26.4247 20.2703 27.8455 19.8571 29.0723 19.075C29.3448 18.901 29.7069 18.9818 29.8809 19.2546C30.055 19.5274 29.9752 19.8893 29.7021 20.0632C28.287 20.9653 26.6481 21.4421 24.9629 21.4421C23.9497 21.4421 22.9612 21.2731 22.0186 20.9392C21.9359 21.0572 21.8516 21.1725 21.7656 21.282C21.6735 21.3991 21.5796 21.5094 21.4854 21.614C22.5912 22.0427 23.7579 22.2595 24.9629 22.2595C30.2815 22.2595 34.6084 17.9326 34.6084 12.614C34.6083 10.5862 33.9866 8.6457 32.8096 7.00269C32.6214 6.73967 32.6814 6.37391 32.9443 6.1853C33.2071 5.99701 33.5731 6.05798 33.7617 6.32104C35.0821 8.16423 35.7802 10.34 35.7803 12.614C35.7803 18.5789 30.9281 23.4323 24.9629 23.4324C23.3999 23.4324 21.8928 23.1055 20.4824 22.4626C20.0109 22.7462 19.5188 22.8912 19.0098 22.8933H18.9971C18.9888 22.8933 18.9799 22.8923 18.9717 22.8923C18.892 23.0809 18.7883 23.2587 18.6602 23.4216C18.2421 23.9536 17.6236 24.2719 16.9189 24.3181C16.8607 24.3218 16.8021 24.323 16.7441 24.323C16.4191 24.323 16.0964 24.2637 15.7891 24.1501C15.5162 25.52 14.9247 26.8106 14.0547 27.9177C13.0308 29.2208 11.6691 30.2102 10.1182 30.7791C8.77151 31.2731 7.58974 32.1332 6.7002 33.2654C5.81074 34.3972 5.25458 35.7483 5.09277 37.1736C5.05891 37.4726 4.80551 37.694 4.51172 37.6941C4.48975 37.6941 4.46692 37.6926 4.44434 37.6902C4.12315 37.6534 3.8921 37.363 3.92871 37.0417C4.11488 35.4004 4.75431 33.8438 5.77832 32.5408C6.80243 31.2381 8.16375 30.2483 9.71484 29.6794C11.0616 29.1854 12.2445 28.326 13.1338 27.1941C13.9876 26.1078 14.5322 24.8189 14.7178 23.4568C13.7861 22.512 13.6292 21.0642 14.4053 20.0769C14.5334 19.9137 14.6812 19.7709 14.8457 19.6492C14.8427 19.6371 14.839 19.6251 14.8359 19.613C14.6629 18.8864 14.7952 18.123 15.2285 17.3357C14.5104 15.8583 14.1455 14.2702 14.1455 12.614C14.1456 6.64915 18.998 1.79668 24.9629 1.79663ZM15.3271 20.8015C14.8789 21.3719 15.0545 22.2612 15.7197 22.7839C16.051 23.0442 16.4501 23.1737 16.8418 23.1482C17.2105 23.1241 17.5296 22.9637 17.7393 22.697C17.7548 22.6772 17.7682 22.6562 17.7822 22.6355C17.3587 22.46 16.9214 22.1946 16.4648 21.8357C16.0083 21.4768 15.6464 21.1147 15.376 20.7449C15.3592 20.7632 15.3427 20.7817 15.3271 20.8015Z" fill="#D88127"/>
<path d="M24.9629 1.79663C27.5098 1.79663 29.9842 2.69898 31.9297 4.33862C32.1772 4.54706 32.2084 4.9173 32 5.16479C31.7916 5.41209 31.4222 5.44335 31.1748 5.23511C29.4402 3.77331 27.2337 2.96851 24.9629 2.96851C19.6444 2.96855 15.3175 7.29552 15.3174 12.614C15.3174 13.8725 15.5532 15.0866 16.0186 16.2322C16.1226 16.1138 16.2319 15.9962 16.3457 15.8806C16.4431 15.7814 16.5447 15.6834 16.6484 15.5867C16.3079 14.6345 16.1348 13.6354 16.1348 12.614C16.1349 7.74627 20.0951 3.78594 24.9629 3.78589C29.8307 3.78589 33.7909 7.74624 33.791 12.614C33.791 14.6705 33.0684 16.6734 31.7559 18.2527C31.6399 18.3922 31.4725 18.4646 31.3047 18.4646C31.1726 18.4646 31.0399 18.4198 30.9307 18.3289C30.6817 18.1219 30.6476 17.7526 30.8545 17.5037C31.9924 16.134 32.6191 14.3974 32.6191 12.614C32.619 8.3923 29.1843 4.95776 24.9629 4.95776C20.7412 4.95781 17.3068 8.39233 17.3066 12.614C17.3066 13.3638 17.4155 14.0991 17.627 14.8074C17.8634 14.7196 18.139 14.7922 18.2988 15.0037C18.4936 15.2618 18.4417 15.629 18.1836 15.824C17.8193 16.0995 17.4822 16.3946 17.1816 16.7009C16.9947 16.891 16.8235 17.0853 16.6719 17.2781C16.0589 18.0583 15.8311 18.7331 15.9756 19.3406C16.098 19.8539 16.4943 20.3692 17.1885 20.9148C17.8794 21.4577 18.4712 21.7214 18.9971 21.7214H19.0049C19.6295 21.7183 20.2307 21.3373 20.8438 20.5574C20.9905 20.3707 21.1331 20.1665 21.2686 19.95C21.281 19.9262 21.2953 19.9039 21.3105 19.8826C22.5664 17.837 22.9619 15.2991 22.1211 14.6384C21.7744 14.366 21.1447 14.3637 20.3477 14.6326C20.0411 14.7359 19.7091 14.5718 19.6055 14.2654C19.502 13.9591 19.6661 13.6258 19.9727 13.5222C21.1738 13.1167 22.1676 13.1838 22.8457 13.7166C23.6056 14.3138 23.8875 15.4135 23.6611 16.8962C23.5113 17.8777 23.1475 18.9451 22.6406 19.9119C23.3877 20.1496 24.1661 20.2703 24.9629 20.2703C26.4247 20.2703 27.8455 19.8571 29.0723 19.075C29.3448 18.901 29.7069 18.9818 29.8809 19.2546C30.055 19.5274 29.9752 19.8893 29.7021 20.0632C28.287 20.9653 26.6481 21.4421 24.9629 21.4421C23.9497 21.4421 22.9612 21.2731 22.0186 20.9392C21.9359 21.0572 21.8516 21.1725 21.7656 21.282C21.6735 21.3991 21.5796 21.5094 21.4854 21.614C22.5912 22.0427 23.7579 22.2595 24.9629 22.2595C30.2815 22.2595 34.6084 17.9326 34.6084 12.614C34.6083 10.5862 33.9866 8.6457 32.8096 7.00269C32.6214 6.73967 32.6814 6.37391 32.9443 6.1853C33.2071 5.99701 33.5731 6.05798 33.7617 6.32104C35.0821 8.16423 35.7802 10.34 35.7803 12.614C35.7803 18.5789 30.9281 23.4323 24.9629 23.4324C23.3999 23.4324 21.8928 23.1055 20.4824 22.4626C20.0109 22.7462 19.5188 22.8912 19.0098 22.8933H18.9971C18.9888 22.8933 18.9799 22.8923 18.9717 22.8923C18.892 23.0809 18.7883 23.2587 18.6602 23.4216C18.2421 23.9536 17.6236 24.2719 16.9189 24.3181C16.8607 24.3218 16.8021 24.323 16.7441 24.323C16.4191 24.323 16.0964 24.2637 15.7891 24.1501C15.5162 25.52 14.9247 26.8106 14.0547 27.9177C13.0308 29.2208 11.6691 30.2102 10.1182 30.7791C8.77151 31.2731 7.58974 32.1332 6.7002 33.2654C5.81074 34.3972 5.25458 35.7483 5.09277 37.1736C5.05891 37.4726 4.80551 37.694 4.51172 37.6941C4.48975 37.6941 4.46692 37.6926 4.44434 37.6902C4.12315 37.6534 3.8921 37.363 3.92871 37.0417C4.11488 35.4004 4.75431 33.8438 5.77832 32.5408C6.80243 31.2381 8.16375 30.2483 9.71484 29.6794C11.0616 29.1854 12.2445 28.326 13.1338 27.1941C13.9876 26.1078 14.5322 24.8189 14.7178 23.4568C13.7861 22.512 13.6292 21.0642 14.4053 20.0769C14.5334 19.9137 14.6812 19.7709 14.8457 19.6492C14.8427 19.6371 14.839 19.6251 14.8359 19.613C14.6629 18.8864 14.7952 18.123 15.2285 17.3357C14.5104 15.8583 14.1455 14.2702 14.1455 12.614C14.1456 6.64915 18.998 1.79668 24.9629 1.79663ZM15.3271 20.8015C14.8789 21.3719 15.0545 22.2612 15.7197 22.7839C16.051 23.0442 16.4501 23.1737 16.8418 23.1482C17.2105 23.1241 17.5296 22.9637 17.7393 22.697C17.7548 22.6772 17.7682 22.6562 17.7822 22.6355C17.3587 22.46 16.9214 22.1946 16.4648 21.8357C16.0083 21.4768 15.6464 21.1147 15.376 20.7449C15.3592 20.7632 15.3427 20.7817 15.3271 20.8015Z" stroke="#E9E1DE"/>
<path d="M27.2373 8.96021C28.7797 8.96036 30.034 10.2214 30.0342 11.7717C30.0342 13.3219 28.7798 14.5831 27.2373 14.5833C25.6946 14.5833 24.4395 13.322 24.4395 11.7717C24.4397 10.2216 25.6951 8.96021 27.2373 8.96021ZM27.2373 10.1321C26.3411 10.1321 25.6115 10.8677 25.6113 11.7717C25.6113 12.6757 26.341 13.4114 27.2373 13.4114C28.1338 13.4112 28.8623 12.6756 28.8623 11.7717C28.8621 10.8678 28.1337 10.1322 27.2373 10.1321Z" fill="#D88127"/>
<path d="M27.2373 8.96021C28.7797 8.96036 30.034 10.2214 30.0342 11.7717C30.0342 13.3219 28.7798 14.5831 27.2373 14.5833C25.6946 14.5833 24.4395 13.322 24.4395 11.7717C24.4397 10.2216 25.6951 8.96021 27.2373 8.96021ZM27.2373 10.1321C26.3411 10.1321 25.6115 10.8677 25.6113 11.7717C25.6113 12.6757 26.341 13.4114 27.2373 13.4114C28.1338 13.4112 28.8623 12.6756 28.8623 11.7717C28.8621 10.8678 28.1337 10.1322 27.2373 10.1321Z" stroke="#E9E1DE"/>
<path d="M27.1875 24.4053C27.5891 24.4053 28.1761 24.5967 28.6914 25.5078C28.9948 26.0443 29.2103 26.7315 29.2832 27.3916C29.3006 27.5474 29.3096 27.7021 29.3096 27.8506C29.3095 28.5912 29.0832 29.1463 28.6377 29.5C28.4757 29.6284 28.2876 29.725 28.0732 29.7939C28.2743 30.3137 28.3789 30.8683 28.3789 31.4316C28.3789 32.2745 28.1457 33.0981 27.7041 33.8135C27.3767 34.3438 27.2041 34.9545 27.2041 35.5801C27.2041 36.2057 27.3767 36.8166 27.7041 37.3467C27.8741 37.6219 27.7889 37.983 27.5137 38.1533C27.4178 38.2125 27.311 38.2402 27.2061 38.2402C27.0096 38.2402 26.8181 38.1413 26.707 37.9619C26.2655 37.2469 26.0322 36.4229 26.0322 35.5801C26.0323 34.737 26.2655 33.9135 26.707 33.1982C27.0345 32.6681 27.207 32.0569 27.207 31.4316C27.207 30.8967 27.0803 30.3728 26.8389 29.9004C26.3858 29.8568 26.022 29.7261 25.7373 29.5C25.2918 29.1463 25.0655 28.5912 25.0654 27.8506C25.0654 27.7026 25.0744 27.5481 25.0918 27.3906C25.1644 26.7311 25.3802 26.0443 25.6836 25.5078C26.199 24.5966 26.7859 24.4053 27.1875 24.4053ZM27.1875 25.5771C26.9482 25.5771 26.378 26.4169 26.2568 27.5195C26.244 27.6345 26.2373 27.7457 26.2373 27.8506C26.2373 28.5453 26.4506 28.7461 27.1875 28.7461C27.9246 28.7461 28.1377 28.5453 28.1377 27.8506C28.1377 27.7451 28.131 27.6339 28.1182 27.5205C27.997 26.4172 27.4269 25.5775 27.1875 25.5771Z" fill="#D88127"/>
<path d="M27.1875 24.4053C27.5891 24.4053 28.1761 24.5967 28.6914 25.5078C28.9948 26.0443 29.2103 26.7315 29.2832 27.3916C29.3006 27.5474 29.3096 27.7021 29.3096 27.8506C29.3095 28.5912 29.0832 29.1463 28.6377 29.5C28.4757 29.6284 28.2876 29.725 28.0732 29.7939C28.2743 30.3137 28.3789 30.8683 28.3789 31.4316C28.3789 32.2745 28.1457 33.0981 27.7041 33.8135C27.3767 34.3438 27.2041 34.9545 27.2041 35.5801C27.2041 36.2057 27.3767 36.8166 27.7041 37.3467C27.8741 37.6219 27.7889 37.983 27.5137 38.1533C27.4178 38.2125 27.311 38.2402 27.2061 38.2402C27.0096 38.2402 26.8181 38.1413 26.707 37.9619C26.2655 37.2469 26.0322 36.4229 26.0322 35.5801C26.0323 34.737 26.2655 33.9135 26.707 33.1982C27.0345 32.6681 27.207 32.0569 27.207 31.4316C27.207 30.8967 27.0803 30.3728 26.8389 29.9004C26.3858 29.8568 26.022 29.7261 25.7373 29.5C25.2918 29.1463 25.0655 28.5912 25.0654 27.8506C25.0654 27.7026 25.0744 27.5481 25.0918 27.3906C25.1644 26.7311 25.3802 26.0443 25.6836 25.5078C26.199 24.5966 26.7859 24.4053 27.1875 24.4053ZM27.1875 25.5771C26.9482 25.5771 26.378 26.4169 26.2568 27.5195C26.244 27.6345 26.2373 27.7457 26.2373 27.8506C26.2373 28.5453 26.4506 28.7461 27.1875 28.7461C27.9246 28.7461 28.1377 28.5453 28.1377 27.8506C28.1377 27.7451 28.131 27.6339 28.1182 27.5205C27.997 26.4172 27.4269 25.5775 27.1875 25.5771Z" stroke="#E9E1DE"/>
<path d="M31.8643 22.5159C32.1945 22.2876 32.7862 22.1108 33.7285 22.5676C34.2832 22.8365 34.8513 23.2779 35.2861 23.7795C35.3892 23.8982 35.4839 24.0208 35.5684 24.1428C35.9897 24.7522 36.1195 25.3367 35.9541 25.8811C35.894 26.0787 35.7963 26.2659 35.6592 26.4446C36.1194 26.7574 36.5207 27.1545 36.8408 27.6174C37.3201 28.3107 37.596 29.1212 37.6396 29.9602C37.6717 30.5825 37.8779 31.184 38.2334 31.6985C38.5892 32.2128 39.0789 32.6169 39.6494 32.8665C39.9455 32.9965 40.081 33.3417 39.9512 33.6379C39.855 33.858 39.6396 33.9895 39.4141 33.9895C39.3357 33.9895 39.2559 33.9732 39.1797 33.9397C38.4095 33.6025 37.749 33.0578 37.2695 32.3645C36.7901 31.6711 36.5134 30.8603 36.4697 30.0208C36.4373 29.3986 36.2318 28.7979 35.876 28.2834C35.5718 27.8437 35.1697 27.4857 34.7031 27.2346C34.3449 27.4348 34.0057 27.5344 33.6768 27.5344C33.6405 27.5344 33.6044 27.5336 33.5684 27.5315C33.0007 27.494 32.4996 27.1653 32.0781 26.5559C31.9942 26.4345 31.9129 26.3027 31.8379 26.1633C31.5227 25.5796 31.3095 24.8922 31.2539 24.2786C31.1593 23.2355 31.5338 22.7444 31.8643 22.5159ZM32.6504 23.4514C32.5982 23.4514 32.5571 23.4611 32.5303 23.4797C32.3336 23.6163 32.3419 24.6313 32.8691 25.6067C32.924 25.7086 32.9825 25.8029 33.042 25.8889C33.2501 26.1898 33.4526 26.3487 33.6455 26.3616C33.8213 26.3729 34.0522 26.2806 34.333 26.0862C34.614 25.8921 34.782 25.7081 34.833 25.5403C34.8891 25.3554 34.8123 25.1091 34.6045 24.8088C34.545 24.7222 34.4767 24.6344 34.4014 24.5481C33.7732 23.8239 32.9811 23.4517 32.6504 23.4514Z" fill="#D88127"/>
<path d="M31.8643 22.5159C32.1945 22.2876 32.7862 22.1108 33.7285 22.5676C34.2832 22.8365 34.8513 23.2779 35.2861 23.7795C35.3892 23.8982 35.4839 24.0208 35.5684 24.1428C35.9897 24.7522 36.1195 25.3367 35.9541 25.8811C35.894 26.0787 35.7963 26.2659 35.6592 26.4446C36.1194 26.7574 36.5207 27.1545 36.8408 27.6174C37.3201 28.3107 37.596 29.1212 37.6396 29.9602C37.6717 30.5825 37.8779 31.184 38.2334 31.6985C38.5892 32.2128 39.0789 32.6169 39.6494 32.8665C39.9455 32.9965 40.081 33.3417 39.9512 33.6379C39.855 33.858 39.6396 33.9895 39.4141 33.9895C39.3357 33.9895 39.2559 33.9732 39.1797 33.9397C38.4095 33.6025 37.749 33.0578 37.2695 32.3645C36.7901 31.6711 36.5134 30.8603 36.4697 30.0208C36.4373 29.3986 36.2318 28.7979 35.876 28.2834C35.5718 27.8437 35.1697 27.4857 34.7031 27.2346C34.3449 27.4348 34.0057 27.5344 33.6768 27.5344C33.6405 27.5344 33.6044 27.5336 33.5684 27.5315C33.0007 27.494 32.4996 27.1653 32.0781 26.5559C31.9942 26.4345 31.9129 26.3027 31.8379 26.1633C31.5227 25.5796 31.3095 24.8922 31.2539 24.2786C31.1593 23.2355 31.5338 22.7444 31.8643 22.5159ZM32.6504 23.4514C32.5982 23.4514 32.5571 23.4611 32.5303 23.4797C32.3336 23.6163 32.3419 24.6313 32.8691 25.6067C32.924 25.7086 32.9825 25.8029 33.042 25.8889C33.2501 26.1898 33.4526 26.3487 33.6455 26.3616C33.8213 26.3729 34.0522 26.2806 34.333 26.0862C34.614 25.8921 34.782 25.7081 34.833 25.5403C34.8891 25.3554 34.8123 25.1091 34.6045 24.8088C34.545 24.7222 34.4767 24.6344 34.4014 24.5481C33.7732 23.8239 32.9811 23.4517 32.6504 23.4514Z" stroke="#E9E1DE"/>
<path d="M20.4131 24.4438C21.1734 23.7244 21.7909 23.7142 22.1748 23.8325C22.5587 23.9506 23.0634 24.3059 23.2881 25.3286C23.4202 25.9307 23.4246 26.6501 23.2998 27.3022C23.2705 27.4569 23.2341 27.6076 23.1904 27.7495C22.9726 28.4571 22.5931 28.9215 22.0635 29.1284C21.871 29.2035 21.6626 29.2415 21.4375 29.2446C21.4765 29.7996 21.4134 30.3601 21.248 30.8979C20.9999 31.7039 20.5347 32.4232 19.9023 32.9771C19.4333 33.3875 19.0883 33.9203 18.9043 34.5181C18.7203 35.1155 18.7062 35.7501 18.8633 36.353C18.9448 36.6661 18.7568 36.9864 18.4434 37.0679C18.3939 37.0807 18.3438 37.0874 18.2949 37.0874C18.0349 37.0872 17.7969 36.9126 17.7285 36.6489C17.5167 35.8354 17.5361 34.9793 17.7842 34.1733C18.032 33.3675 18.4974 32.6491 19.1299 32.0952C19.5986 31.6848 19.9442 31.1516 20.1279 30.5542C20.2854 30.0428 20.3174 29.5043 20.2256 28.9819C19.8054 28.8071 19.4967 28.5745 19.291 28.2749C18.9691 27.8058 18.9159 27.2088 19.1338 26.5005C19.1774 26.359 19.2311 26.2137 19.2939 26.0688C19.557 25.4603 19.9651 24.8674 20.4131 24.4438ZM21.791 24.9468C21.5218 24.9475 20.787 25.5685 20.3691 26.5347C20.3234 26.6404 20.2847 26.7449 20.2539 26.8452C20.0494 27.5096 20.1938 27.7653 20.8984 27.9819C21.2246 28.0823 21.4731 28.1004 21.6367 28.0366C21.8168 27.9661 21.9629 27.7536 22.0703 27.4048C22.1011 27.3045 22.1271 27.196 22.1484 27.0835C22.3569 25.9931 22.0587 25.0231 21.8301 24.9526C21.8186 24.9493 21.8052 24.9468 21.791 24.9468Z" fill="#D88127"/>
<path d="M20.4131 24.4438C21.1734 23.7244 21.7909 23.7142 22.1748 23.8325C22.5587 23.9506 23.0634 24.3059 23.2881 25.3286C23.4202 25.9307 23.4246 26.6501 23.2998 27.3022C23.2705 27.4569 23.2341 27.6076 23.1904 27.7495C22.9726 28.4571 22.5931 28.9215 22.0635 29.1284C21.871 29.2035 21.6626 29.2415 21.4375 29.2446C21.4765 29.7996 21.4134 30.3601 21.248 30.8979C20.9999 31.7039 20.5347 32.4232 19.9023 32.9771C19.4333 33.3875 19.0883 33.9203 18.9043 34.5181C18.7203 35.1155 18.7062 35.7501 18.8633 36.353C18.9448 36.6661 18.7568 36.9864 18.4434 37.0679C18.3939 37.0807 18.3438 37.0874 18.2949 37.0874C18.0349 37.0872 17.7969 36.9126 17.7285 36.6489C17.5167 35.8354 17.5361 34.9793 17.7842 34.1733C18.032 33.3675 18.4974 32.6491 19.1299 32.0952C19.5986 31.6848 19.9442 31.1516 20.1279 30.5542C20.2854 30.0428 20.3174 29.5043 20.2256 28.9819C19.8054 28.8071 19.4967 28.5745 19.291 28.2749C18.9691 27.8058 18.9159 27.2088 19.1338 26.5005C19.1774 26.359 19.2311 26.2137 19.2939 26.0688C19.557 25.4603 19.9651 24.8674 20.4131 24.4438ZM21.791 24.9468C21.5218 24.9475 20.787 25.5685 20.3691 26.5347C20.3234 26.6404 20.2847 26.7449 20.2539 26.8452C20.0494 27.5096 20.1938 27.7653 20.8984 27.9819C21.2246 28.0823 21.4731 28.1004 21.6367 28.0366C21.8168 27.9661 21.9629 27.7536 22.0703 27.4048C22.1011 27.3045 22.1271 27.196 22.1484 27.0835C22.3569 25.9931 22.0587 25.0231 21.8301 24.9526C21.8186 24.9493 21.8052 24.9468 21.791 24.9468Z" stroke="#E9E1DE"/>
<path d="M11.4839 16.7646C12.5203 16.6168 13.0298 16.9653 13.2749 17.2832C13.52 17.6015 13.7265 18.1831 13.3188 19.1475C13.0787 19.7154 12.6665 20.3054 12.188 20.7656C12.1317 20.82 12.0742 20.8726 12.0161 20.9229L11.8403 21.0664C11.3893 21.4137 10.9437 21.5889 10.5112 21.5889C10.3807 21.5889 10.2516 21.5727 10.1235 21.541C9.92303 21.4913 9.73096 21.4023 9.54541 21.2744C9.25641 21.7502 8.88123 22.1713 8.43506 22.5146C7.76745 23.029 6.97223 23.3462 6.13623 23.4326C5.51644 23.497 4.92675 23.7328 4.43115 24.1143C3.93554 24.496 3.55676 25.0063 3.33643 25.5889C3.2478 25.823 3.02492 25.9678 2.78857 25.9678C2.7197 25.9678 2.64981 25.9556 2.58154 25.9297C2.27881 25.8152 2.12628 25.4766 2.24072 25.1738C2.53798 24.3878 3.04834 23.7 3.71631 23.1855C4.3843 22.6714 5.17971 22.3542 6.01611 22.2676C6.6354 22.2034 7.22475 21.9675 7.72021 21.5859C8.14346 21.26 8.48077 20.8401 8.70752 20.3613C8.4649 19.9753 8.34882 19.6063 8.354 19.2422C8.36229 18.6735 8.6636 18.156 9.25049 17.7041C9.36821 17.6135 9.49656 17.5261 9.63135 17.4443C10.1978 17.0998 10.8735 16.8516 11.4839 16.7646ZM11.9644 17.9014C11.5521 17.9014 10.8805 18.0551 10.2397 18.4453C10.1412 18.5051 10.0496 18.5685 9.96631 18.6328C9.677 18.8556 9.52863 19.0663 9.52588 19.2598C9.52316 19.4352 9.6272 19.6611 9.83545 19.9316C10.2853 20.5154 10.575 20.5622 11.1255 20.1387C11.2091 20.074 11.2934 20.0002 11.3755 19.9209C12.1754 19.1516 12.4924 18.1875 12.3462 17.998C12.2989 17.937 12.1607 17.9014 11.9644 17.9014Z" fill="#D88127"/>
<path d="M11.4839 16.7646C12.5203 16.6168 13.0298 16.9653 13.2749 17.2832C13.52 17.6015 13.7265 18.1831 13.3188 19.1475C13.0787 19.7154 12.6665 20.3054 12.188 20.7656C12.1317 20.82 12.0742 20.8726 12.0161 20.9229L11.8403 21.0664C11.3893 21.4137 10.9437 21.5889 10.5112 21.5889C10.3807 21.5889 10.2516 21.5727 10.1235 21.541C9.92303 21.4913 9.73096 21.4023 9.54541 21.2744C9.25641 21.7502 8.88123 22.1713 8.43506 22.5146C7.76745 23.029 6.97223 23.3462 6.13623 23.4326C5.51644 23.497 4.92675 23.7328 4.43115 24.1143C3.93554 24.496 3.55676 25.0063 3.33643 25.5889C3.2478 25.823 3.02492 25.9678 2.78857 25.9678C2.7197 25.9678 2.64981 25.9556 2.58154 25.9297C2.27881 25.8152 2.12628 25.4766 2.24072 25.1738C2.53798 24.3878 3.04834 23.7 3.71631 23.1855C4.3843 22.6714 5.17971 22.3542 6.01611 22.2676C6.6354 22.2034 7.22475 21.9675 7.72021 21.5859C8.14346 21.26 8.48077 20.8401 8.70752 20.3613C8.4649 19.9753 8.34882 19.6063 8.354 19.2422C8.36229 18.6735 8.6636 18.156 9.25049 17.7041C9.36821 17.6135 9.49656 17.5261 9.63135 17.4443C10.1978 17.0998 10.8735 16.8516 11.4839 16.7646ZM11.9644 17.9014C11.5521 17.9014 10.8805 18.0551 10.2397 18.4453C10.1412 18.5051 10.0496 18.5685 9.96631 18.6328C9.677 18.8556 9.52863 19.0663 9.52588 19.2598C9.52316 19.4352 9.6272 19.6611 9.83545 19.9316C10.2853 20.5154 10.575 20.5622 11.1255 20.1387C11.2091 20.074 11.2934 20.0002 11.3755 19.9209C12.1754 19.1516 12.4924 18.1875 12.3462 17.998C12.2989 17.937 12.1607 17.9014 11.9644 17.9014Z" stroke="#E9E1DE"/>
<path d="M10.4902 10.8433C10.6391 10.8512 10.7933 10.8684 10.9482 10.894C11.6026 11.0015 12.2763 11.2529 12.7959 11.5845C13.6786 12.1474 13.8387 12.744 13.8174 13.145C13.796 13.5463 13.5741 14.1221 12.6367 14.5884C12.085 14.8627 11.3875 15.0421 10.7246 15.0796C10.6405 15.0845 10.5569 15.0874 10.4746 15.0874C10.4035 15.0874 10.3333 15.0852 10.2646 15.0815C9.52486 15.0422 8.98293 14.7873 8.65332 14.3237C8.53375 14.1554 8.44702 13.9621 8.38965 13.7446C7.93628 13.8929 7.46099 13.9682 6.98047 13.9683C6.8999 13.9683 6.81818 13.967 6.7373 13.9624C5.89548 13.9178 5.08502 13.6407 4.39453 13.1616C3.88248 12.8068 3.28155 12.6011 2.65723 12.5679C2.03295 12.535 1.41366 12.6757 0.867188 12.9741C0.583077 13.1291 0.226613 13.0248 0.0712891 12.7407C-0.0836511 12.4566 0.0215817 12.1001 0.305664 11.9448C1.04313 11.5422 1.87797 11.3528 2.71973 11.3979C3.56141 11.4428 4.37158 11.7199 5.0625 12.1987C5.57457 12.5539 6.17612 12.7582 6.80078 12.7915C7.3353 12.8201 7.86476 12.7214 8.34863 12.5054C8.41638 12.0552 8.56683 11.6985 8.80762 11.4263C9.18451 11.0002 9.7513 10.8039 10.4902 10.8433ZM10.4277 12.0132C9.73325 11.9763 9.52153 12.1787 9.48242 12.9146C9.44336 13.6506 9.63287 13.8747 10.3271 13.9116C10.432 13.9171 10.5432 13.9161 10.6572 13.9097C11.7649 13.8471 12.6335 13.3227 12.6475 13.0835C12.6603 12.8448 11.8515 12.23 10.7568 12.0503C10.6435 12.0314 10.5329 12.0187 10.4277 12.0132Z" fill="#D88127"/>
<path d="M10.4902 10.8433C10.6391 10.8512 10.7933 10.8684 10.9482 10.894C11.6026 11.0015 12.2763 11.2529 12.7959 11.5845C13.6786 12.1474 13.8387 12.744 13.8174 13.145C13.796 13.5463 13.5741 14.1221 12.6367 14.5884C12.085 14.8627 11.3875 15.0421 10.7246 15.0796C10.6405 15.0845 10.5569 15.0874 10.4746 15.0874C10.4035 15.0874 10.3333 15.0852 10.2646 15.0815C9.52486 15.0422 8.98293 14.7873 8.65332 14.3237C8.53375 14.1554 8.44702 13.9621 8.38965 13.7446C7.93628 13.8929 7.46099 13.9682 6.98047 13.9683C6.8999 13.9683 6.81818 13.967 6.7373 13.9624C5.89548 13.9178 5.08502 13.6407 4.39453 13.1616C3.88248 12.8068 3.28155 12.6011 2.65723 12.5679C2.03295 12.535 1.41366 12.6757 0.867188 12.9741C0.583077 13.1291 0.226613 13.0248 0.0712891 12.7407C-0.0836511 12.4566 0.0215817 12.1001 0.305664 11.9448C1.04313 11.5422 1.87797 11.3528 2.71973 11.3979C3.56141 11.4428 4.37158 11.7199 5.0625 12.1987C5.57457 12.5539 6.17612 12.7582 6.80078 12.7915C7.3353 12.8201 7.86476 12.7214 8.34863 12.5054C8.41638 12.0552 8.56683 11.6985 8.80762 11.4263C9.18451 11.0002 9.7513 10.8039 10.4902 10.8433ZM10.4277 12.0132C9.73325 11.9763 9.52153 12.1787 9.48242 12.9146C9.44336 13.6506 9.63287 13.8747 10.3271 13.9116C10.432 13.9171 10.5432 13.9161 10.6572 13.9097C11.7649 13.8471 12.6335 13.3227 12.6475 13.0835C12.6603 12.8448 11.8515 12.23 10.7568 12.0503C10.6435 12.0314 10.5329 12.0187 10.4277 12.0132Z" stroke="#E9E1DE"/>
<path d="M25.0508 6.84521C25.3742 6.84534 25.6367 7.10744 25.6367 7.43115C25.6367 7.75456 25.3742 8.01696 25.0508 8.01709C24.727 8.01709 24.4609 7.75464 24.4609 7.43115C24.4609 7.10744 24.7193 6.84535 25.043 6.84521H25.0508Z" fill="#D88127"/>
<path d="M25.0508 6.84521C25.3742 6.84534 25.6367 7.10744 25.6367 7.43115C25.6367 7.75456 25.3742 8.01696 25.0508 8.01709C24.727 8.01709 24.4609 7.75464 24.4609 7.43115C24.4609 7.10744 24.7193 6.84535 25.043 6.84521H25.0508Z" stroke="#E9E1DE"/>
<path d="M22.3511 7.16748C22.6715 7.16748 22.9337 7.42621 22.937 7.74756C22.9402 8.07094 22.6806 8.336 22.3569 8.33936H22.3511C22.03 8.33936 21.7646 8.08093 21.7612 7.75928C21.758 7.43591 22.014 7.17085 22.3374 7.16748H22.3511Z" fill="#D88127"/>
<path d="M22.3511 7.16748C22.6715 7.16748 22.9337 7.42621 22.937 7.74756C22.9402 8.07094 22.6806 8.336 22.3569 8.33936H22.3511C22.03 8.33936 21.7646 8.08093 21.7612 7.75928C21.758 7.43591 22.014 7.17085 22.3374 7.16748H22.3511Z" stroke="#E9E1DE"/>
<path d="M27.1172 16.2285C27.4378 16.2286 27.6995 16.4873 27.7031 16.8086C27.7063 17.132 27.4465 17.397 27.123 17.4004H27.1162C26.7958 17.4001 26.5309 17.1423 26.5273 16.8213C26.524 16.4978 26.7797 16.2319 27.1035 16.2285H27.1172Z" fill="#D88127"/>
<path d="M27.1172 16.2285C27.4378 16.2286 27.6995 16.4873 27.7031 16.8086C27.7063 17.132 27.4465 17.397 27.123 17.4004H27.1162C26.7958 17.4001 26.5309 17.1423 26.5273 16.8213C26.524 16.4978 26.7797 16.2319 27.1035 16.2285H27.1172Z" stroke="#E9E1DE"/>
</g>
<defs>
<clipPath id="clip0_2001_1167">
<rect width="40" height="40" fill="white"/>
</clipPath>
</defs>
</svg>
