<svg width="40" height="36" viewBox="0 0 40 36" fill="none" xmlns="http://www.w3.org/2000/svg">
<path d="M13.8506 6.39062C15.7483 6.39062 17.2929 7.81478 17.293 9.56543C17.293 11.3161 15.7483 12.7402 13.8506 12.7402C11.9529 12.7401 10.4092 11.316 10.4092 9.56543C10.4092 7.81488 11.953 6.39078 13.8506 6.39062ZM13.8506 7.5625C12.5992 7.56265 11.5812 8.46108 11.5811 9.56543C11.5811 10.6699 12.5992 11.5682 13.8506 11.5684C15.1021 11.5684 16.1211 10.67 16.1211 9.56543C16.121 8.46099 15.1021 7.5625 13.8506 7.5625Z" fill="#D88127"/>
<path d="M13.8506 6.39062C15.7483 6.39062 17.2929 7.81478 17.293 9.56543C17.293 11.3161 15.7483 12.7402 13.8506 12.7402C11.9529 12.7401 10.4092 11.316 10.4092 9.56543C10.4092 7.81488 11.953 6.39078 13.8506 6.39062ZM13.8506 7.5625C12.5992 7.56265 11.5812 8.46108 11.5811 9.56543C11.5811 10.6699 12.5992 11.5682 13.8506 11.5684C15.1021 11.5684 16.1211 10.67 16.1211 9.56543C16.121 8.46099 15.1021 7.5625 13.8506 7.5625Z" stroke="#F5F5F5"/>
<path d="M14.5039 8.97974C14.8275 8.97974 15.0898 9.24208 15.0898 9.56567C15.0898 9.88927 14.8275 10.1516 14.5039 10.1516H13.1973C12.8737 10.1516 12.6113 9.88927 12.6113 9.56567C12.6113 9.24208 12.8737 8.97974 13.1973 8.97974H14.5039Z" fill="#D88127"/>
<path d="M14.5039 8.97974C14.8275 8.97974 15.0898 9.24208 15.0898 9.56567C15.0898 9.88927 14.8275 10.1516 14.5039 10.1516H13.1973C12.8737 10.1516 12.6113 9.88927 12.6113 9.56567C12.6113 9.24208 12.8737 8.97974 13.1973 8.97974H14.5039Z" stroke="#F5F5F5"/>
<path d="M2.94385 10.2144C3.8233 8.87443 5.75428 8.58104 7.24756 9.56104C8.74089 10.541 9.24013 12.4291 8.36084 13.769C7.83239 14.5741 6.92394 15.0015 5.95947 15.0015C5.31896 15.0014 4.65394 14.8123 4.05811 14.4214C2.56485 13.4415 2.0648 11.5543 2.94385 10.2144ZM5.33936 10.1509C4.76037 10.151 4.2286 10.3935 3.92432 10.8569C3.39947 11.6566 3.74756 12.8164 4.70068 13.4419C5.65396 14.0674 6.85659 13.9252 7.38135 13.1255C7.90581 12.3258 7.55697 11.1669 6.604 10.5415C6.20354 10.2787 5.75911 10.1509 5.33936 10.1509Z" fill="#D88127"/>
<path d="M2.94385 10.2144C3.8233 8.87443 5.75428 8.58104 7.24756 9.56104C8.74089 10.541 9.24013 12.4291 8.36084 13.769C7.83239 14.5741 6.92394 15.0015 5.95947 15.0015C5.31896 15.0014 4.65394 14.8123 4.05811 14.4214C2.56485 13.4415 2.0648 11.5543 2.94385 10.2144ZM5.33936 10.1509C4.76037 10.151 4.2286 10.3935 3.92432 10.8569C3.39947 11.6566 3.74756 12.8164 4.70068 13.4419C5.65396 14.0674 6.85659 13.9252 7.38135 13.1255C7.90581 12.3258 7.55697 11.1669 6.604 10.5415C6.20354 10.2787 5.75911 10.1509 5.33936 10.1509Z" stroke="#F5F5F5"/>
<path d="M4.87988 11.4849C5.05731 11.2144 5.42097 11.1387 5.69141 11.3159L6.25586 11.687C6.52648 11.8645 6.60238 12.228 6.4248 12.4985C6.31235 12.6697 6.12519 12.7631 5.93457 12.7632C5.82426 12.7632 5.71242 12.7316 5.61328 12.6665L5.04883 12.2964C4.77829 12.1189 4.7026 11.7554 4.87988 11.4849Z" fill="#D88127"/>
<path d="M4.87988 11.4849C5.05731 11.2144 5.42097 11.1387 5.69141 11.3159L6.25586 11.687C6.52648 11.8645 6.60238 12.228 6.4248 12.4985C6.31235 12.6697 6.12519 12.7631 5.93457 12.7632C5.82426 12.7632 5.71242 12.7316 5.61328 12.6665L5.04883 12.2964C4.77829 12.1189 4.7026 11.7554 4.87988 11.4849Z" stroke="#F5F5F5"/>
<path d="M10.5176 13.5596C11.1635 13.292 11.8685 13.2691 12.5029 13.4961C13.1579 13.7305 13.6599 14.2 13.916 14.8184C14.1722 15.4366 14.1498 16.1239 13.8525 16.7529C13.5646 17.362 13.05 17.8446 12.4043 18.1123C12.0492 18.2594 11.6816 18.3291 11.3242 18.3291C10.3192 18.3292 9.3886 17.7793 9.00488 16.8535C8.48473 15.5981 9.16367 14.1205 10.5176 13.5596ZM12.1084 14.5996C11.7362 14.4665 11.3295 14.4909 10.9658 14.6416C10.209 14.9552 9.81531 15.746 10.0879 16.4043C10.3607 17.0626 11.1981 17.3428 11.9551 17.0293C12.3317 16.8733 12.6295 16.5976 12.793 16.252C12.9471 15.9258 12.961 15.5754 12.833 15.2666C12.705 14.958 12.4478 14.7211 12.1084 14.5996Z" fill="#D88127"/>
<path d="M10.5176 13.5596C11.1635 13.292 11.8685 13.2691 12.5029 13.4961C13.1579 13.7305 13.6599 14.2 13.916 14.8184C14.1722 15.4366 14.1498 16.1239 13.8525 16.7529C13.5646 17.362 13.05 17.8446 12.4043 18.1123C12.0492 18.2594 11.6816 18.3291 11.3242 18.3291C10.3192 18.3292 9.3886 17.7793 9.00488 16.8535C8.48473 15.5981 9.16367 14.1205 10.5176 13.5596ZM12.1084 14.5996C11.7362 14.4665 11.3295 14.4909 10.9658 14.6416C10.209 14.9552 9.81531 15.746 10.0879 16.4043C10.3607 17.0626 11.1981 17.3428 11.9551 17.0293C12.3317 16.8733 12.6295 16.5976 12.793 16.252C12.9471 15.9258 12.961 15.5754 12.833 15.2666C12.705 14.958 12.4478 14.7211 12.1084 14.5996Z" stroke="#F5F5F5"/>
<path d="M11.3789 15.2355C11.6778 15.1116 12.0206 15.2539 12.1445 15.5529C12.2681 15.8515 12.1266 16.1935 11.8281 16.3175L11.542 16.4366C11.4686 16.467 11.3921 16.4816 11.3174 16.4816C11.0876 16.4814 10.8697 16.3447 10.7764 16.1193C10.6525 15.8204 10.7948 15.4775 11.0938 15.3536L11.3789 15.2355Z" fill="#D88127"/>
<path d="M11.3789 15.2355C11.6778 15.1116 12.0206 15.2539 12.1445 15.5529C12.2681 15.8515 12.1266 16.1935 11.8281 16.3175L11.542 16.4366C11.4686 16.467 11.3921 16.4816 11.3174 16.4816C11.0876 16.4814 10.8697 16.3447 10.7764 16.1193C10.6525 15.8204 10.7948 15.4775 11.0938 15.3536L11.3789 15.2355Z" stroke="#F5F5F5"/>
<path d="M6.75684 3.3075C8.32926 2.55351 10.1754 3.12249 10.8721 4.57507C11.2142 5.28855 11.2311 6.10189 10.9199 6.86511C10.6168 7.60821 10.0361 8.2164 9.28418 8.57703C8.82027 8.79953 8.32313 8.91199 7.83008 8.91199C7.52397 8.91197 7.21936 8.86884 6.9248 8.78113C6.13473 8.54597 5.51113 8.02296 5.16895 7.30945C4.82688 6.596 4.80988 5.7826 5.12109 5.01941C5.42422 4.27632 6.005 3.6681 6.75684 3.3075ZM8.21289 4.14539C7.89953 4.14539 7.57375 4.21546 7.26367 4.36414C6.7746 4.59863 6.39905 4.98868 6.20605 5.46179C6.02135 5.91476 6.02844 6.39107 6.22559 6.80261C6.42297 7.21418 6.78992 7.51844 7.25879 7.65808C7.74871 7.80386 8.28828 7.75492 8.77734 7.52039C9.26645 7.28585 9.642 6.89591 9.83496 6.42273C10.0197 5.9696 10.0127 5.49342 9.81543 5.08191C9.52899 4.48451 8.89956 4.14549 8.21289 4.14539Z" fill="#D88127"/>
<path d="M6.75684 3.3075C8.32926 2.55351 10.1754 3.12249 10.8721 4.57507C11.2142 5.28855 11.2311 6.10189 10.9199 6.86511C10.6168 7.60821 10.0361 8.2164 9.28418 8.57703C8.82027 8.79953 8.32313 8.91199 7.83008 8.91199C7.52397 8.91197 7.21936 8.86884 6.9248 8.78113C6.13473 8.54597 5.51113 8.02296 5.16895 7.30945C4.82688 6.596 4.80988 5.7826 5.12109 5.01941C5.42422 4.27632 6.005 3.6681 6.75684 3.3075ZM8.21289 4.14539C7.89953 4.14539 7.57375 4.21546 7.26367 4.36414C6.7746 4.59863 6.39905 4.98868 6.20605 5.46179C6.02135 5.91476 6.02844 6.39107 6.22559 6.80261C6.42297 7.21418 6.78992 7.51844 7.25879 7.65808C7.74871 7.80386 8.28828 7.75492 8.77734 7.52039C9.26645 7.28585 9.642 6.89591 9.83496 6.42273C10.0197 5.9696 10.0127 5.49342 9.81543 5.08191C9.52899 4.48451 8.89956 4.14549 8.21289 4.14539Z" stroke="#F5F5F5"/>
<path d="M8.01172 5.29688C8.30345 5.15721 8.6531 5.2805 8.79297 5.57227C8.93274 5.86402 8.80931 6.21362 8.51758 6.35352L8.03027 6.58789C7.94869 6.62697 7.86213 6.64545 7.77734 6.64551C7.55891 6.64551 7.34875 6.52258 7.24805 6.3125C7.10834 6.02076 7.23173 5.67113 7.52344 5.53125L8.01172 5.29688Z" fill="#D88127"/>
<path d="M8.01172 5.29688C8.30345 5.15721 8.6531 5.2805 8.79297 5.57227C8.93274 5.86402 8.80931 6.21362 8.51758 6.35352L8.03027 6.58789C7.94869 6.62697 7.86213 6.64545 7.77734 6.64551C7.55891 6.64551 7.34875 6.52258 7.24805 6.3125C7.10834 6.02076 7.23173 5.67113 7.52344 5.53125L8.01172 5.29688Z" stroke="#F5F5F5"/>
<path d="M30.3599 2.5647C30.5216 2.28448 30.8803 2.18896 31.1606 2.35083C31.8966 2.77584 39.6147 7.23141 39.7065 7.28442C39.9867 7.44618 40.0829 7.80446 39.9214 8.08521C39.8129 8.27301 39.616 8.37808 39.4136 8.37817C39.3142 8.37817 39.2129 8.35333 39.1206 8.30005L36.5767 6.8313L34.8169 9.87915L36.8032 11.0266C37.0832 11.1883 37.1795 11.5463 37.0181 11.8264C36.9095 12.0143 36.7118 12.1204 36.5093 12.1204C36.41 12.1203 36.3094 12.0945 36.2173 12.0413L35.73 11.76L34.605 13.7092C34.4965 13.8972 34.2987 14.0022 34.0962 14.0022C33.997 14.0021 33.8963 13.9772 33.8042 13.9241C33.524 13.7623 33.4277 13.4035 33.5894 13.1233L34.7153 11.1741C33.7133 10.5955 31.6768 9.41989 30.2886 8.61841L29.5708 9.85962L31.1616 10.7786C31.4419 10.9404 31.5383 11.2991 31.3765 11.5793C31.268 11.767 31.0709 11.8722 30.8687 11.8723C30.7693 11.8723 30.6679 11.8465 30.5757 11.7932L28.9849 10.8752L28.0435 12.5051L29.6343 13.4241C29.9145 13.5859 30.0109 13.9446 29.8491 14.2249C29.7406 14.4126 29.5436 14.5177 29.3413 14.5178C29.2419 14.5178 29.1406 14.492 29.0483 14.4387L27.4575 13.5208L26.5161 15.1516L28.1069 16.0696C28.3872 16.2314 28.4836 16.5901 28.3218 16.8704C28.2133 17.0581 28.0163 17.1632 27.814 17.1633C27.7146 17.1633 27.6133 17.1375 27.521 17.0842L25.9302 16.1663L24.9888 17.7971L26.5796 18.7151C26.8598 18.8769 26.9562 19.2356 26.7944 19.5159C26.686 19.7036 26.489 19.8087 26.2866 19.8088C26.1872 19.8088 26.0859 19.783 25.9937 19.7297L24.4028 18.8118L24.3687 18.8704C24.0688 19.3897 23.9899 19.9952 24.145 20.5745C24.2208 20.8572 24.3481 21.117 24.519 21.344C24.5232 21.3494 24.5278 21.355 24.5317 21.3606C24.7089 21.5913 24.9314 21.7879 25.1909 21.9377L25.729 22.2483C25.994 22.4013 26.2779 22.4939 26.564 22.5305C26.569 22.5311 26.5745 22.5318 26.5796 22.5325C27.4456 22.637 28.3322 22.2287 28.7954 21.427L32.2192 15.4973C32.381 15.2174 32.7389 15.121 33.019 15.2825C33.2993 15.4443 33.3956 15.803 33.2339 16.0833L29.811 22.0129C29.179 23.1075 28.0277 23.7198 26.8462 23.72C26.8393 23.72 26.8316 23.72 26.8247 23.72L26.2349 24.7424C25.8662 25.3821 25.1932 25.7404 24.5024 25.7405C24.3547 25.7405 24.2057 25.7232 24.0591 25.6897L21.9106 29.4124C21.7485 29.6932 21.3896 29.7886 21.1099 29.6272C20.8297 29.4654 20.7333 29.1066 20.895 28.8264L23.0444 25.1047C22.4636 24.4792 22.3291 23.5235 22.7769 22.7473L23.3667 21.7249C23.2132 21.4628 23.093 21.1786 23.0122 20.8772C22.7761 19.9958 22.8977 19.0747 23.354 18.2844L29.2729 8.03149L28.7856 7.75024C28.5058 7.58836 28.4102 7.23051 28.5718 6.95044C28.7335 6.67031 29.0913 6.57398 29.3716 6.7356L31.3589 7.88306L33.1187 4.83423L30.5747 3.36548C30.2945 3.20368 30.1981 2.84493 30.3599 2.5647ZM23.7915 23.3323C23.5646 23.7256 23.7006 24.2316 24.0942 24.4592C24.4878 24.6857 24.9925 24.5506 25.2192 24.1575L25.6069 23.4846C25.4494 23.4229 25.294 23.3501 25.1431 23.2629L24.604 22.9524C24.4539 22.8657 24.3123 22.7683 24.1792 22.6624L23.7915 23.3323ZM32.3735 8.46899L33.8013 9.29321L35.562 6.24438L34.1333 5.42017L32.3735 8.46899Z" fill="#D88127"/>
<path d="M30.3599 2.5647C30.5216 2.28448 30.8803 2.18896 31.1606 2.35083C31.8966 2.77584 39.6147 7.23141 39.7065 7.28442C39.9867 7.44618 40.0829 7.80446 39.9214 8.08521C39.8129 8.27301 39.616 8.37808 39.4136 8.37817C39.3142 8.37817 39.2129 8.35333 39.1206 8.30005L36.5767 6.8313L34.8169 9.87915L36.8032 11.0266C37.0832 11.1883 37.1795 11.5463 37.0181 11.8264C36.9095 12.0143 36.7118 12.1204 36.5093 12.1204C36.41 12.1203 36.3094 12.0945 36.2173 12.0413L35.73 11.76L34.605 13.7092C34.4965 13.8972 34.2987 14.0022 34.0962 14.0022C33.997 14.0021 33.8963 13.9772 33.8042 13.9241C33.524 13.7623 33.4277 13.4035 33.5894 13.1233L34.7153 11.1741C33.7133 10.5955 31.6768 9.41989 30.2886 8.61841L29.5708 9.85962L31.1616 10.7786C31.4419 10.9404 31.5383 11.2991 31.3765 11.5793C31.268 11.767 31.0709 11.8722 30.8687 11.8723C30.7693 11.8723 30.6679 11.8465 30.5757 11.7932L28.9849 10.8752L28.0435 12.5051L29.6343 13.4241C29.9145 13.5859 30.0109 13.9446 29.8491 14.2249C29.7406 14.4126 29.5436 14.5177 29.3413 14.5178C29.2419 14.5178 29.1406 14.492 29.0483 14.4387L27.4575 13.5208L26.5161 15.1516L28.1069 16.0696C28.3872 16.2314 28.4836 16.5901 28.3218 16.8704C28.2133 17.0581 28.0163 17.1632 27.814 17.1633C27.7146 17.1633 27.6133 17.1375 27.521 17.0842L25.9302 16.1663L24.9888 17.7971L26.5796 18.7151C26.8598 18.8769 26.9562 19.2356 26.7944 19.5159C26.686 19.7036 26.489 19.8087 26.2866 19.8088C26.1872 19.8088 26.0859 19.783 25.9937 19.7297L24.4028 18.8118L24.3687 18.8704C24.0688 19.3897 23.9899 19.9952 24.145 20.5745C24.2208 20.8572 24.3481 21.117 24.519 21.344C24.5232 21.3494 24.5278 21.355 24.5317 21.3606C24.7089 21.5913 24.9314 21.7879 25.1909 21.9377L25.729 22.2483C25.994 22.4013 26.2779 22.4939 26.564 22.5305C26.569 22.5311 26.5745 22.5318 26.5796 22.5325C27.4456 22.637 28.3322 22.2287 28.7954 21.427L32.2192 15.4973C32.381 15.2174 32.7389 15.121 33.019 15.2825C33.2993 15.4443 33.3956 15.803 33.2339 16.0833L29.811 22.0129C29.179 23.1075 28.0277 23.7198 26.8462 23.72C26.8393 23.72 26.8316 23.72 26.8247 23.72L26.2349 24.7424C25.8662 25.3821 25.1932 25.7404 24.5024 25.7405C24.3547 25.7405 24.2057 25.7232 24.0591 25.6897L21.9106 29.4124C21.7485 29.6932 21.3896 29.7886 21.1099 29.6272C20.8297 29.4654 20.7333 29.1066 20.895 28.8264L23.0444 25.1047C22.4636 24.4792 22.3291 23.5235 22.7769 22.7473L23.3667 21.7249C23.2132 21.4628 23.093 21.1786 23.0122 20.8772C22.7761 19.9958 22.8977 19.0747 23.354 18.2844L29.2729 8.03149L28.7856 7.75024C28.5058 7.58836 28.4102 7.23051 28.5718 6.95044C28.7335 6.67031 29.0913 6.57398 29.3716 6.7356L31.3589 7.88306L33.1187 4.83423L30.5747 3.36548C30.2945 3.20368 30.1981 2.84493 30.3599 2.5647ZM23.7915 23.3323C23.5646 23.7256 23.7006 24.2316 24.0942 24.4592C24.4878 24.6857 24.9925 24.5506 25.2192 24.1575L25.6069 23.4846C25.4494 23.4229 25.294 23.3501 25.1431 23.2629L24.604 22.9524C24.4539 22.8657 24.3123 22.7683 24.1792 22.6624L23.7915 23.3323ZM32.3735 8.46899L33.8013 9.29321L35.562 6.24438L34.1333 5.42017L32.3735 8.46899Z" stroke="#F5F5F5"/>
<path d="M17.0532 31.0581C17.3768 31.0581 17.6392 31.3204 17.6392 31.644C17.6392 31.9676 17.3768 32.23 17.0532 32.23H14.9067V33.1851C14.9067 33.8515 15.4493 34.394 16.1157 34.394H24.9204C25.5868 34.394 26.1284 33.8514 26.1284 33.1851V32.23H19.7876C19.4641 32.2299 19.2017 31.9676 19.2017 31.644C19.2017 31.3205 19.4641 31.0582 19.7876 31.0581H26.354C26.8761 31.0584 27.3012 31.4833 27.3013 32.0054V33.1851C27.3013 34.4976 26.233 35.5659 24.9204 35.5659H16.1157C14.8031 35.5659 13.7349 34.4976 13.7349 33.1851V32.0054C13.7349 31.4831 14.1598 31.0581 14.6821 31.0581H17.0532Z" fill="#D88127"/>
<path d="M17.0532 31.0581C17.3768 31.0581 17.6392 31.3204 17.6392 31.644C17.6392 31.9676 17.3768 32.23 17.0532 32.23H14.9067V33.1851C14.9067 33.8515 15.4493 34.394 16.1157 34.394H24.9204C25.5868 34.394 26.1284 33.8514 26.1284 33.1851V32.23H19.7876C19.4641 32.2299 19.2017 31.9676 19.2017 31.644C19.2017 31.3205 19.4641 31.0582 19.7876 31.0581H26.354C26.8761 31.0584 27.3012 31.4833 27.3013 32.0054V33.1851C27.3013 34.4976 26.233 35.5659 24.9204 35.5659H16.1157C14.8031 35.5659 13.7349 34.4976 13.7349 33.1851V32.0054C13.7349 31.4831 14.1598 31.0581 14.6821 31.0581H17.0532Z" stroke="#F5F5F5"/>
<path d="M9.9707 0.434082C15.4683 0.43421 19.9404 4.90721 19.9404 10.4048C19.9403 13.1125 18.8547 15.5711 17.0967 17.3696L19.4355 19.3413C19.5508 19.4386 19.6244 19.5762 19.6406 19.7261L20.4443 27.2222C20.4787 27.5439 20.2455 27.8323 19.9238 27.8667C19.9029 27.8689 19.882 27.8706 19.8613 27.8706C19.5658 27.8706 19.3116 27.6476 19.2793 27.3472L18.5 20.0854L16.2227 18.1646C14.5114 19.5459 12.3361 20.3744 9.9707 20.3745C4.47315 20.3745 0.000169656 15.9023 0 10.4048C0 4.90713 4.47305 0.434082 9.9707 0.434082ZM9.9707 1.60596C5.11922 1.60596 1.17188 5.5533 1.17188 10.4048C1.17204 15.2562 5.11932 19.2026 9.9707 19.2026C14.8219 19.2025 18.7684 15.256 18.7686 10.4048C18.7686 5.55341 14.822 1.60613 9.9707 1.60596Z" fill="#D88127"/>
<path d="M9.9707 0.434082C15.4683 0.43421 19.9404 4.90721 19.9404 10.4048C19.9403 13.1125 18.8547 15.5711 17.0967 17.3696L19.4355 19.3413C19.5508 19.4386 19.6244 19.5762 19.6406 19.7261L20.4443 27.2222C20.4787 27.5439 20.2455 27.8323 19.9238 27.8667C19.9029 27.8689 19.882 27.8706 19.8613 27.8706C19.5658 27.8706 19.3116 27.6476 19.2793 27.3472L18.5 20.0854L16.2227 18.1646C14.5114 19.5459 12.3361 20.3744 9.9707 20.3745C4.47315 20.3745 0.000169656 15.9023 0 10.4048C0 4.90713 4.47305 0.434082 9.9707 0.434082ZM9.9707 1.60596C5.11922 1.60596 1.17188 5.5533 1.17188 10.4048C1.17204 15.2562 5.11932 19.2026 9.9707 19.2026C14.8219 19.2025 18.7684 15.256 18.7686 10.4048C18.7686 5.55341 14.822 1.60613 9.9707 1.60596Z" stroke="#F5F5F5"/>
</svg>
