<svg width="27" height="27" viewBox="0 0 27 27" fill="none" xmlns="http://www.w3.org/2000/svg">
<path d="M18.9086 26.3248H7.92931C3.92763 26.3248 0.674808 23.0794 0.674808 19.0868V8.13253C0.670908 4.13995 3.92373 0.890625 7.92541 0.890625H18.9047C22.9064 0.890625 26.1592 4.13995 26.1592 8.12864V19.0829C26.1592 23.0755 22.9025 26.321 18.9047 26.321L18.9086 26.3248ZM7.92541 3.06981C5.12892 3.06981 2.85506 5.3385 2.85506 8.12864V19.0829C2.85506 21.8731 5.12892 24.1418 7.92541 24.1418H18.9047C21.7012 24.1418 23.975 21.8731 23.975 19.0829V8.12864C23.975 5.3385 21.7012 3.06981 18.9047 3.06981H7.92541Z" fill="#B58469"/>
<path d="M13.4168 20.1222C9.81681 20.1222 6.8916 17.1998 6.8916 13.6119C6.8916 10.024 9.82071 7.10156 13.4168 7.10156C17.0128 7.10156 19.9419 10.024 19.9419 13.6119C19.9419 17.1998 17.0128 20.1222 13.4168 20.1222ZM13.4168 9.27686C11.022 9.27686 9.07575 11.2187 9.07575 13.608C9.07575 15.9973 11.022 17.9391 13.4168 17.9391C15.8115 17.9391 17.7578 15.9973 17.7578 13.608C17.7578 11.2187 15.8115 9.27686 13.4168 9.27686Z" fill="#B58469"/>
<path d="M21.7906 6.72401C21.7906 7.5879 21.0886 8.28836 20.2227 8.28836C19.3568 8.28836 18.6548 7.5879 18.6548 6.72401C18.6548 5.86012 19.3568 5.15967 20.2227 5.15967C21.0886 5.15967 21.7906 5.86012 21.7906 6.72401Z" fill="#B58469"/>
</svg>
