<svg width="27" height="27" viewBox="0 0 27 27" fill="none" xmlns="http://www.w3.org/2000/svg">
<path d="M11.9421 0.240799C11.9694 0.236907 12.0006 0.229125 12.0279 0.225233C15.2386 -0.128885 18.7107 1.05021 21.27 2.96089C24.0749 5.05836 25.8929 8.09754 26.3767 11.5687C26.8487 14.9737 25.9515 18.3592 23.8604 21.0832C21.5899 24.0406 18.4142 25.7918 14.7315 26.286C11.3218 26.6868 7.93549 25.7178 5.23192 23.6204C2.46984 21.4762 0.491905 18.2269 0.0861753 14.7363C-0.30395 11.3897 0.69087 7.96135 2.78194 5.32297C5.05247 2.46279 8.32951 0.668853 11.946 0.236907L11.9421 0.240799Z" fill="#B58469"/>
<path d="M3.02393 18.7871L7.64301 18.7715C8.16187 20.869 8.91871 22.5967 10.171 24.3634C7.05392 23.6941 4.71707 21.3437 3.02393 18.7871Z" fill="#F0E6D9"/>
<path d="M18.5272 18.5537L23.4662 18.5615C22.3036 20.1803 21.1527 21.5345 19.5298 22.7019C18.4218 23.3557 17.3412 23.8382 16.1162 24.2313C17.3451 22.4996 17.9732 20.5811 18.5272 18.5537Z" fill="#F0E6D9"/>
<path d="M9.92915 2.30322L10.171 2.3577C10.0462 2.93363 9.27374 3.52123 8.98505 4.09327C8.22821 5.59535 7.77566 7.18304 7.40894 8.81743H2.94982L2.77036 8.80187L2.65332 8.64621C2.68453 8.5139 2.70794 8.39327 2.76646 8.26875C4.24503 5.20232 6.87447 3.52902 9.92915 2.30322Z" fill="#F0E6D9"/>
<path d="M16.2451 2.27588C16.4402 2.30701 16.6157 2.33814 16.8069 2.39651C19.8811 3.32656 22.4754 6.00773 23.8721 8.80565L18.8004 8.81344C18.5391 6.46692 17.5559 4.21769 16.2451 2.27588Z" fill="#F0E6D9"/>
<path d="M9.96436 18.5576L16.3741 18.5693C15.8943 20.0013 15.3052 21.4061 14.6263 22.7525C14.2557 23.3635 13.8773 24.099 13.2258 24.4414C13.0229 24.4219 12.9605 24.4375 12.7811 24.3208C11.5561 23.5347 10.3038 19.9546 9.96436 18.5537V18.5576Z" fill="#F0E6D9"/>
<path d="M13.1435 1.80127C14.6961 2.94534 16.1045 6.95349 16.5102 8.79412L13.3034 8.8058L9.63623 8.79801C10.2955 6.16353 11.3177 3.84037 13.1395 1.80127H13.1435Z" fill="#F0E6D9"/>
<path d="M4.79889 11.0122H7.12794C7.11233 12.8373 7.12794 14.6351 7.29179 16.4524L4.15909 16.4368L2.08753 16.4096C1.59207 14.5495 1.58427 12.9813 1.70911 11.0745C2.73513 11.0005 3.77287 11.0239 4.79889 11.0122Z" fill="#F0E6D9"/>
<path d="M19.0892 10.7593C20.8994 10.7982 22.7096 10.7904 24.5197 10.7904C24.9879 12.6155 24.9606 14.5145 24.3676 16.3084C23.2635 16.647 20.2908 16.4018 18.9761 16.3901C19.2843 14.5223 19.1867 12.6388 19.0892 10.7632V10.7593Z" fill="#F0E6D9"/>
<path d="M13.3856 11.016C14.5365 11.0004 15.6834 11.0043 16.8382 11.0237C16.9357 12.876 16.8772 14.74 16.8382 16.5923C15.5235 16.6312 14.201 16.604 12.8824 16.6079L9.5858 16.5923C9.49607 14.74 9.48436 12.8877 9.47656 11.0315L13.3817 11.016H13.3856Z" fill="#F0E6D9"/>
</svg>
