<svg width="27" height="27" viewBox="0 0 27 27" fill="none" xmlns="http://www.w3.org/2000/svg">
<path d="M24.0165 3.72323V22.6627C24.0165 22.8184 23.9852 22.9662 23.9267 23.1102C23.8682 23.2542 23.7824 23.3826 23.6731 23.4916C23.5639 23.6005 23.4352 23.6861 23.2908 23.7445C23.1465 23.8029 22.9982 23.834 22.8422 23.834H3.8548C3.69875 23.834 3.55049 23.8029 3.40615 23.7445C3.2618 23.6861 3.13306 23.6005 3.02383 23.4916C2.91459 23.3826 2.82877 23.2542 2.77025 23.1102C2.71173 22.9662 2.68052 22.8184 2.68052 22.6627V3.72323C2.68052 3.56758 2.71173 3.4197 2.77025 3.27572C2.82877 3.13174 2.91459 3.00332 3.02383 2.89436C3.13306 2.7854 3.2618 2.69979 3.40615 2.64142C3.55049 2.58305 3.69875 2.55192 3.8548 2.55192H22.8422C22.9982 2.55192 23.1465 2.58305 23.2908 2.64142C23.4352 2.69979 23.5639 2.7854 23.6731 2.89436C23.7824 3.00332 23.8682 3.13174 23.9267 3.27572C23.9852 3.4197 24.0165 3.56758 24.0165 3.72323ZM23.0021 0.166489H3.68314C1.80664 0.166489 0.28125 1.68803 0.28125 3.55979V22.83C0.28125 24.7018 1.80664 26.2233 3.68314 26.2233H23.0021C24.8786 26.2233 26.404 24.7018 26.404 22.83V3.5559C26.404 1.68414 24.8786 0.162598 23.0021 0.162598V0.166489Z" fill="#B58469"/>
<path d="M6.37501 9.7627H8.30613C8.40756 9.7627 8.4973 9.79772 8.56752 9.87165C8.64164 9.94559 8.67675 10.0312 8.67675 10.1324V20.7326C8.67675 20.8337 8.64164 20.9232 8.56752 20.9933C8.49339 21.0672 8.40756 21.1022 8.30613 21.1022H6.37501C6.27358 21.1022 6.18385 21.0672 6.11363 20.9933C6.03951 20.9194 6.00439 20.8337 6.00439 20.7326V10.1324C6.00439 10.0312 6.03951 9.9417 6.11363 9.87165C6.18775 9.80161 6.27358 9.7627 6.37501 9.7627Z" fill="#B58469"/>
<path d="M8.8954 7.59509C8.8954 6.68839 8.23999 6.02686 7.3388 6.02686C6.43761 6.02686 5.7627 6.70396 5.7627 7.59898C5.7627 8.01536 5.91485 8.4045 6.19184 8.69247C6.47663 8.98821 6.87065 9.15165 7.29588 9.15165C7.76793 9.15165 8.19318 8.98432 8.48577 8.68079C8.76276 8.39672 8.9071 8.01147 8.8954 7.59898C8.8954 7.59898 8.8954 7.59898 8.8954 7.5912V7.59509Z" fill="#B58469"/>
<path d="M19.4752 10.6305C18.5116 9.77052 17.3842 9.646 16.799 9.646C15.9212 9.646 15.0863 9.87948 14.3841 10.3231C14.0759 10.5177 13.7989 10.7473 13.5492 11.0119L13.5024 10.2375C13.4946 10.1402 13.4556 10.0585 13.3854 9.99233C13.3152 9.92618 13.2293 9.89115 13.1318 9.89115H11.4192C11.3099 9.89115 11.2202 9.93007 11.1461 10.0079C11.0719 10.0857 11.0407 10.1791 11.0485 10.2881C11.1109 11.0975 11.1344 11.9458 11.1344 13.1288V20.861C11.1344 20.9622 11.1695 21.0517 11.2436 21.1217C11.3177 21.1957 11.4035 21.2307 11.505 21.2307H13.4361C13.5375 21.2307 13.6273 21.1957 13.6975 21.1217C13.7716 21.0478 13.8067 20.9622 13.8067 20.861V14.4869C13.8067 14.1873 13.8457 13.9071 13.9159 13.7164C13.9159 13.7086 13.9199 13.7047 13.9238 13.6969C14.1851 12.8486 14.9771 11.9886 16.1592 11.9886C16.8926 11.9886 17.4154 12.2377 17.7665 12.7513C18.0825 13.2144 18.2463 13.9071 18.2463 14.7515V20.861C18.2463 20.9622 18.2814 21.0517 18.3556 21.1217C18.4297 21.1957 18.5155 21.2307 18.617 21.2307H20.5481C20.6495 21.2307 20.7392 21.1957 20.8095 21.1217C20.8836 21.0478 20.9187 20.9622 20.9187 20.861V14.5336C20.9187 13.6308 20.7821 12.8331 20.513 12.1598C20.2711 11.5528 19.92 11.043 19.4713 10.6422L19.4752 10.6305Z" fill="#B58469"/>
</svg>
