<svg width="18" height="24" viewBox="0 0 18 24" fill="none" xmlns="http://www.w3.org/2000/svg">
<path d="M9 0.5C13.5164 0.5 17.1921 4.17505 17.1924 8.69141C17.1924 10.0788 16.7362 11.6671 16.0146 13.2988C15.2959 14.9243 14.3292 16.5583 13.3457 18.0303C11.379 20.9739 9.37015 23.2289 9.21094 23.4062C9.09888 23.5311 8.90219 23.5312 8.79004 23.4062C8.63085 23.229 6.62195 20.9739 4.65527 18.0303C3.67182 16.5583 2.70512 14.9242 1.98633 13.2988C1.26478 11.6671 0.808594 10.0788 0.808594 8.69141C0.808831 4.17522 4.48377 0.500263 9 0.5ZM9 4.81836C6.70526 4.81861 5.12718 6.62634 5.12695 8.69141C5.12695 10.7567 6.70615 12.5652 9 12.5654C11.2941 12.5654 12.873 10.7568 12.873 8.69141C12.8728 6.7536 11.3046 4.81836 9 4.81836Z" stroke="#B58469"/>
</svg>
