<svg width="26" height="24" viewBox="0 0 26 24" fill="none" xmlns="http://www.w3.org/2000/svg">
<path d="M2.73242 1.1709C3.57061 0.491896 4.2892 0.400295 4.89844 0.582031C5.54316 0.774479 6.16196 1.30206 6.7002 2.04688C7.2331 2.78436 7.65183 3.68574 7.91309 4.53418C8.14567 5.28955 8.23796 5.95115 8.20801 6.39258L8.1875 6.56836C8.12069 6.95836 7.92725 7.34244 7.65332 7.73438C7.37653 8.13035 7.04859 8.49316 6.72461 8.87305C6.48121 9.15792 6.29058 9.47877 6.25098 9.85254C6.21113 10.2292 6.33331 10.5759 6.54199 10.8984V10.8994C8.65983 14.4143 11.6105 16.971 15.4541 18.4951C15.7621 18.6182 16.0907 18.6832 16.4219 18.6162C16.7627 18.5473 17.0392 18.3528 17.2607 18.0811V18.0801C17.4432 17.856 17.6182 17.5875 17.7842 17.3242C17.9557 17.0521 18.1189 16.7842 18.2949 16.5244C18.6578 15.9888 18.994 15.6182 19.3398 15.4775C19.4558 15.4302 19.6602 15.3949 19.959 15.4023C20.2499 15.4097 20.5978 15.4572 20.9805 15.5449C21.747 15.7206 22.6147 16.0515 23.3867 16.5068C24.1636 16.965 24.8063 17.5271 25.1709 18.1465C25.5015 18.7081 25.6093 19.3214 25.3711 20.002L25.3193 20.1387C24.7107 21.6089 23.774 22.5246 22.6299 23.0225C21.4729 23.5258 20.0579 23.6207 18.4775 23.3555C15.3088 22.8236 11.6115 20.8665 8.37793 18.2158C5.14563 15.5661 2.44244 12.2782 1.21191 9.15039C0.598032 7.58992 0.361634 6.09613 0.580078 4.75195C0.783161 3.50246 1.38377 2.3507 2.50195 1.36523L2.73242 1.1709Z" stroke="#B58469"/>
</svg>
