<svg width="18" height="40" viewBox="0 0 18 40" fill="none" xmlns="http://www.w3.org/2000/svg">
<path d="M15.6748 14.5781C15.9983 14.5783 16.2607 14.8405 16.2607 15.1641V32.3115C16.2607 36.5509 12.8116 39.9999 8.57227 40C6.519 40 4.58816 39.2004 3.13574 37.748C1.68355 36.2966 0.883789 34.3657 0.883789 32.3115V28.502C0.883958 28.1784 1.14616 27.916 1.46973 27.916C1.79329 27.916 2.0555 28.1784 2.05566 28.502V32.3115C2.05566 34.0526 2.73398 35.6888 3.96484 36.9189C5.19592 38.15 6.83201 38.8281 8.57227 38.8281C12.1653 38.8281 15.0889 35.9046 15.0889 32.3115V15.1641C15.0889 14.8404 15.3511 14.5781 15.6748 14.5781Z" fill="#D88127"/>
<path d="M15.6748 14.5781C15.9983 14.5783 16.2607 14.8405 16.2607 15.1641V32.3115C16.2607 36.5509 12.8116 39.9999 8.57227 40C6.519 40 4.58816 39.2004 3.13574 37.748C1.68355 36.2966 0.883789 34.3657 0.883789 32.3115V28.502C0.883958 28.1784 1.14616 27.916 1.46973 27.916C1.79329 27.916 2.0555 28.1784 2.05566 28.502V32.3115C2.05566 34.0526 2.73398 35.6888 3.96484 36.9189C5.19592 38.15 6.83201 38.8281 8.57227 38.8281C12.1653 38.8281 15.0889 35.9046 15.0889 32.3115V15.1641C15.0889 14.8404 15.3511 14.5781 15.6748 14.5781Z" stroke="#F5F5F5"/>
<path d="M16.0693 0C16.8274 0.000148943 17.4443 0.616882 17.4443 1.375V4.53223C17.4442 5.22507 16.9282 5.79885 16.2607 5.89258L16.2598 12.4297C16.2598 12.7534 15.9975 13.0156 15.6738 13.0156C15.3502 13.0155 15.0879 12.7533 15.0879 12.4297V8.27441H2.05566V25.7676C2.05566 26.0911 1.7932 26.3533 1.46973 26.3535C1.14605 26.3535 0.883789 26.0912 0.883789 25.7676L0.882812 5.89258C0.215234 5.79888 -0.300607 5.22516 -0.300781 4.53223V1.375C-0.300697 0.616842 0.316139 8.42383e-05 1.07422 0H16.0693ZM2.05469 5.90723V7.10254H15.0889V5.90723H2.05469ZM1.07422 1.17188C0.962269 1.172 0.871178 1.26304 0.871094 1.375V4.53223C0.871326 4.64406 0.96236 4.73523 1.07422 4.73535H2.46191V1.17188H1.07422ZM3.63379 1.17188V4.73535H5.22363V1.17188H3.63379ZM6.39551 1.17188V4.73535H7.98535V1.17188H6.39551ZM9.15723 1.17188V4.73535H10.748V1.17188H9.15723ZM11.9199 1.17188V4.73535H13.5098V1.17188H11.9199ZM14.6816 1.17188V4.73535H16.0693C16.1812 4.73516 16.2723 4.64406 16.2725 4.53223V1.375C16.2724 1.26308 16.1812 1.17207 16.0693 1.17188H14.6816Z" fill="#D88127"/>
<path d="M16.0693 0C16.8274 0.000148943 17.4443 0.616882 17.4443 1.375V4.53223C17.4442 5.22507 16.9282 5.79885 16.2607 5.89258L16.2598 12.4297C16.2598 12.7534 15.9975 13.0156 15.6738 13.0156C15.3502 13.0155 15.0879 12.7533 15.0879 12.4297V8.27441H2.05566V25.7676C2.05566 26.0911 1.7932 26.3533 1.46973 26.3535C1.14605 26.3535 0.883789 26.0912 0.883789 25.7676L0.882812 5.89258C0.215234 5.79888 -0.300607 5.22516 -0.300781 4.53223V1.375C-0.300697 0.616842 0.316139 8.42383e-05 1.07422 0H16.0693ZM2.05469 5.90723V7.10254H15.0889V5.90723H2.05469ZM1.07422 1.17188C0.962269 1.172 0.871178 1.26304 0.871094 1.375V4.53223C0.871326 4.64406 0.96236 4.73523 1.07422 4.73535H2.46191V1.17188H1.07422ZM3.63379 1.17188V4.73535H5.22363V1.17188H3.63379ZM6.39551 1.17188V4.73535H7.98535V1.17188H6.39551ZM9.15723 1.17188V4.73535H10.748V1.17188H9.15723ZM11.9199 1.17188V4.73535H13.5098V1.17188H11.9199ZM14.6816 1.17188V4.73535H16.0693C16.1812 4.73516 16.2723 4.64406 16.2725 4.53223V1.375C16.2724 1.26308 16.1812 1.17207 16.0693 1.17188H14.6816Z" stroke="#F5F5F5"/>
<path d="M7.38867 9.47034C9.6696 9.47044 11.5256 11.3267 11.5254 13.608C11.5253 15.8888 9.66943 17.7445 7.38867 17.7448C6.46893 17.7448 5.59784 17.4489 4.87012 16.8903C4.6134 16.6932 4.56469 16.3256 4.76172 16.069C4.95865 15.8125 5.32646 15.7638 5.58301 15.9606C6.10434 16.3607 6.72922 16.5729 7.38867 16.5729C9.02326 16.5727 10.3534 15.2426 10.3535 13.608C10.3535 12.6355 9.88246 11.7703 9.15723 11.2291C9.1573 11.2327 9.15819 11.2364 9.1582 11.2399C9.1582 12.2155 8.36426 13.0092 7.38867 13.0094C6.41289 13.0094 5.61816 12.2156 5.61816 11.2399C5.61818 11.2366 5.61912 11.2334 5.61914 11.2301C4.89375 11.7713 4.42285 12.6355 4.42285 13.608C4.42286 13.7494 4.43278 13.8899 4.45215 14.025C4.49784 14.3452 4.27526 14.6422 3.95508 14.6881C3.63462 14.7341 3.33792 14.5112 3.29199 14.191C3.26474 14.0009 3.25099 13.8048 3.25098 13.608C3.25098 11.3266 5.10727 9.47034 7.38867 9.47034ZM7.38867 10.6422C7.05911 10.6422 6.79012 10.9103 6.79004 11.2399C6.79004 11.5695 7.05898 11.8375 7.38867 11.8375C7.71812 11.8373 7.98633 11.5694 7.98633 11.2399C7.98624 10.9104 7.71807 10.6424 7.38867 10.6422Z" fill="#D88127"/>
<path d="M7.38867 9.47034C9.6696 9.47044 11.5256 11.3267 11.5254 13.608C11.5253 15.8888 9.66943 17.7445 7.38867 17.7448C6.46893 17.7448 5.59784 17.4489 4.87012 16.8903C4.6134 16.6932 4.56469 16.3256 4.76172 16.069C4.95865 15.8125 5.32646 15.7638 5.58301 15.9606C6.10434 16.3607 6.72922 16.5729 7.38867 16.5729C9.02326 16.5727 10.3534 15.2426 10.3535 13.608C10.3535 12.6355 9.88246 11.7703 9.15723 11.2291C9.1573 11.2327 9.15819 11.2364 9.1582 11.2399C9.1582 12.2155 8.36426 13.0092 7.38867 13.0094C6.41289 13.0094 5.61816 12.2156 5.61816 11.2399C5.61818 11.2366 5.61912 11.2334 5.61914 11.2301C4.89375 11.7713 4.42285 12.6355 4.42285 13.608C4.42286 13.7494 4.43278 13.8899 4.45215 14.025C4.49784 14.3452 4.27526 14.6422 3.95508 14.6881C3.63462 14.7341 3.33792 14.5112 3.29199 14.191C3.26474 14.0009 3.25099 13.8048 3.25098 13.608C3.25098 11.3266 5.10727 9.47034 7.38867 9.47034ZM7.38867 10.6422C7.05911 10.6422 6.79012 10.9103 6.79004 11.2399C6.79004 11.5695 7.05898 11.8375 7.38867 11.8375C7.71812 11.8373 7.98633 11.5694 7.98633 11.2399C7.98624 10.9104 7.71807 10.6424 7.38867 10.6422Z" stroke="#F5F5F5"/>
<path d="M6.83008 20.0736C8.44328 18.4606 11.0677 18.4606 12.6807 20.0736C14.2937 21.6868 14.2937 24.3111 12.6807 25.9242C11.8742 26.7306 10.8152 27.134 9.75586 27.1342C8.69641 27.1342 7.63656 26.7307 6.83008 25.9242C5.21704 24.311 5.21708 21.6867 6.83008 20.0736ZM9.75586 20.0345C9.61211 20.0345 9.4677 20.0461 9.3252 20.0668C9.32762 20.0691 9.33059 20.0712 9.33301 20.0736C10.0228 20.7636 10.0229 21.8865 9.33301 22.5765C8.98802 22.9215 8.53421 23.0941 8.08105 23.0941C7.62804 23.094 7.17497 22.9213 6.83008 22.5765C6.82758 22.574 6.82477 22.5712 6.82227 22.5687C6.69202 23.4641 6.97062 24.4085 7.6582 25.0961C8.81435 26.2524 10.6962 26.2522 11.8525 25.0961C13.0086 23.94 13.0085 22.0579 11.8525 20.9017C11.2745 20.3238 10.5151 20.0346 9.75586 20.0345ZM8.08105 20.7269C7.92802 20.727 7.77462 20.7852 7.6582 20.9017C7.42524 21.1347 7.42541 21.5143 7.6582 21.7474C7.89115 21.9804 8.27078 21.9805 8.50391 21.7474C8.73688 21.5144 8.73695 21.1348 8.50391 20.9017C8.38745 20.7853 8.23407 20.7269 8.08105 20.7269Z" fill="#D88127"/>
<path d="M6.83008 20.0736C8.44328 18.4606 11.0677 18.4606 12.6807 20.0736C14.2937 21.6868 14.2937 24.3111 12.6807 25.9242C11.8742 26.7306 10.8152 27.134 9.75586 27.1342C8.69641 27.1342 7.63656 26.7307 6.83008 25.9242C5.21704 24.311 5.21708 21.6867 6.83008 20.0736ZM9.75586 20.0345C9.61211 20.0345 9.4677 20.0461 9.3252 20.0668C9.32762 20.0691 9.33059 20.0712 9.33301 20.0736C10.0228 20.7636 10.0229 21.8865 9.33301 22.5765C8.98802 22.9215 8.53421 23.0941 8.08105 23.0941C7.62804 23.094 7.17497 22.9213 6.83008 22.5765C6.82758 22.574 6.82477 22.5712 6.82227 22.5687C6.69202 23.4641 6.97062 24.4085 7.6582 25.0961C8.81435 26.2524 10.6962 26.2522 11.8525 25.0961C13.0086 23.94 13.0085 22.0579 11.8525 20.9017C11.2745 20.3238 10.5151 20.0346 9.75586 20.0345ZM8.08105 20.7269C7.92802 20.727 7.77462 20.7852 7.6582 20.9017C7.42524 21.1347 7.42541 21.5143 7.6582 21.7474C7.89115 21.9804 8.27078 21.9805 8.50391 21.7474C8.73688 21.5144 8.73695 21.1348 8.50391 20.9017C8.38745 20.7853 8.23407 20.7269 8.08105 20.7269Z" stroke="#F5F5F5"/>
<path d="M4.46289 29.2476C6.07607 27.6346 8.70034 27.6347 10.3135 29.2476C11.9265 30.8608 11.9265 33.485 10.3135 35.0981C9.50708 35.9045 8.44808 36.308 7.38867 36.3081C6.32914 36.3081 5.26945 35.9046 4.46289 35.0981C2.84986 33.4849 2.8499 30.8607 4.46289 29.2476ZM7.38867 29.2075C6.59656 29.2075 5.85109 29.5155 5.29102 30.0757C4.13479 31.2318 4.13567 33.1139 5.29199 34.27C6.44801 35.4259 8.32914 35.4259 9.48535 34.27C10.1726 33.5828 10.4491 32.6387 10.3193 31.7437C10.3174 31.7456 10.3154 31.7485 10.3135 31.7505C9.96853 32.0952 9.51555 32.2681 9.0625 32.2681C8.60946 32.2681 8.15648 32.0952 7.81152 31.7505C7.12162 31.0604 7.12092 29.9376 7.81055 29.2476C7.81352 29.2446 7.81734 29.2417 7.82031 29.2388C7.67863 29.2182 7.53441 29.2075 7.38867 29.2075ZM9.0625 29.9009C8.90946 29.9009 8.75611 29.9592 8.63965 30.0757C8.40663 30.3087 8.40668 30.6883 8.63965 30.9214C8.87262 31.1544 9.25223 31.1545 9.48535 30.9214C9.71825 30.6883 9.71835 30.3086 9.48535 30.0757C9.36891 29.9592 9.21555 29.9009 9.0625 29.9009Z" fill="#D88127"/>
<path d="M4.46289 29.2476C6.07607 27.6346 8.70034 27.6347 10.3135 29.2476C11.9265 30.8608 11.9265 33.485 10.3135 35.0981C9.50708 35.9045 8.44808 36.308 7.38867 36.3081C6.32914 36.3081 5.26945 35.9046 4.46289 35.0981C2.84986 33.4849 2.8499 30.8607 4.46289 29.2476ZM7.38867 29.2075C6.59656 29.2075 5.85109 29.5155 5.29102 30.0757C4.13479 31.2318 4.13567 33.1139 5.29199 34.27C6.44801 35.4259 8.32914 35.4259 9.48535 34.27C10.1726 33.5828 10.4491 32.6387 10.3193 31.7437C10.3174 31.7456 10.3154 31.7485 10.3135 31.7505C9.96853 32.0952 9.51555 32.2681 9.0625 32.2681C8.60946 32.2681 8.15648 32.0952 7.81152 31.7505C7.12162 31.0604 7.12092 29.9376 7.81055 29.2476C7.81352 29.2446 7.81734 29.2417 7.82031 29.2388C7.67863 29.2182 7.53441 29.2075 7.38867 29.2075ZM9.0625 29.9009C8.90946 29.9009 8.75611 29.9592 8.63965 30.0757C8.40663 30.3087 8.40668 30.6883 8.63965 30.9214C8.87262 31.1544 9.25223 31.1545 9.48535 30.9214C9.71825 30.6883 9.71835 30.3086 9.48535 30.0757C9.36891 29.9592 9.21555 29.9009 9.0625 29.9009Z" stroke="#F5F5F5"/>
<path d="M12.5938 16.8868C12.9174 16.8868 13.1797 17.1492 13.1797 17.4728C13.1797 17.7964 12.9174 18.0587 12.5938 18.0587C12.2701 18.0587 12.0078 17.7964 12.0078 17.4728C12.0078 17.1492 12.2701 16.8868 12.5938 16.8868Z" fill="#D88127"/>
<path d="M12.5938 16.8868C12.9174 16.8868 13.1797 17.1492 13.1797 17.4728C13.1797 17.7964 12.9174 18.0587 12.5938 18.0587C12.2701 18.0587 12.0078 17.7964 12.0078 17.4728C12.0078 17.1492 12.2701 16.8868 12.5938 16.8868Z" stroke="#F5F5F5"/>
<path d="M5.10547 18.8617C5.42907 18.8617 5.69141 19.124 5.69141 19.4476C5.69141 19.7712 5.42907 20.0336 5.10547 20.0336C4.78186 20.0336 4.51953 19.7712 4.51953 19.4476C4.51953 19.124 4.78186 18.8617 5.10547 18.8617Z" fill="#D88127"/>
<path d="M5.10547 18.8617C5.42907 18.8617 5.69141 19.124 5.69141 19.4476C5.69141 19.7712 5.42907 20.0336 5.10547 20.0336C4.78186 20.0336 4.51953 19.7712 4.51953 19.4476C4.51953 19.124 4.78186 18.8617 5.10547 18.8617Z" stroke="#F5F5F5"/>
<path d="M3.83691 25.9644C4.16052 25.9644 4.42285 26.2267 4.42285 26.5503C4.42285 26.8739 4.16052 27.1362 3.83691 27.1362C3.51331 27.1362 3.25098 26.8739 3.25098 26.5503C3.25098 26.2267 3.51331 25.9644 3.83691 25.9644Z" fill="#D88127"/>
<path d="M3.83691 25.9644C4.16052 25.9644 4.42285 26.2267 4.42285 26.5503C4.42285 26.8739 4.16052 27.1362 3.83691 27.1362C3.51331 27.1362 3.25098 26.8739 3.25098 26.5503C3.25098 26.2267 3.51331 25.9644 3.83691 25.9644Z" stroke="#F5F5F5"/>
<path d="M12.7715 28.0355C13.0951 28.0355 13.3574 28.2979 13.3574 28.6215C13.3574 28.9451 13.0951 29.2074 12.7715 29.2074C12.4479 29.2074 12.1855 28.9451 12.1855 28.6215C12.1855 28.2979 12.4479 28.0355 12.7715 28.0355Z" fill="#D88127"/>
<path d="M12.7715 28.0355C13.0951 28.0355 13.3574 28.2979 13.3574 28.6215C13.3574 28.9451 13.0951 29.2074 12.7715 29.2074C12.4479 29.2074 12.1855 28.9451 12.1855 28.6215C12.1855 28.2979 12.4479 28.0355 12.7715 28.0355Z" stroke="#F5F5F5"/>
</svg>
