<svg width="24" height="26" viewBox="0 0 24 26" fill="none" xmlns="http://www.w3.org/2000/svg">
<path d="M20.352 5.68061C20.1765 5.59111 20.0087 5.49382 19.841 5.38486C19.3611 5.06966 18.9242 4.69608 18.534 4.27581C17.5587 3.16287 17.1959 2.03436 17.0594 1.24441H17.0633C16.9502 0.586761 16.997 0.162598 17.0048 0.162598H12.5612V17.2964C12.5612 17.526 12.5613 17.7556 12.5535 17.9774C12.5535 18.0047 12.5534 18.0319 12.5495 18.0631C12.5495 18.0747 12.5495 18.0864 12.5495 18.102V18.1098C12.4559 19.3589 11.742 20.4757 10.6535 21.0945C10.0917 21.4136 9.45975 21.5809 8.81605 21.577C6.74448 21.577 5.06695 19.892 5.06695 17.814C5.06695 15.736 6.74448 14.051 8.81605 14.051C9.20617 14.051 9.59628 14.1133 9.9708 14.2339V9.72378C7.68857 9.42803 5.38295 10.1012 3.61958 11.58C2.85494 12.2454 2.21123 13.0354 1.71577 13.9187C1.52851 14.2417 0.822381 15.5375 0.736554 17.6389C0.681936 18.8336 1.04086 20.071 1.21252 20.5808V20.5925C1.32175 20.8921 1.73917 21.9194 2.41799 22.7872C2.96807 23.4799 3.61567 24.0908 4.3413 24.5967V24.5851L4.35302 24.5967C6.50261 26.056 8.88627 25.9587 8.88627 25.9587C9.2998 25.9431 10.6808 25.9587 12.253 25.2155C13.993 24.3944 14.9878 23.1647 14.9878 23.1647C15.6198 22.4331 16.1231 21.5965 16.4781 20.6975C16.8799 19.643 17.0126 18.3783 17.0126 17.8724V8.78206C17.0672 8.81319 17.785 9.28794 17.785 9.28794C17.785 9.28794 18.8188 9.94948 20.434 10.3814C21.5926 10.6888 23.1492 10.7511 23.1492 10.7511V6.35382C22.6031 6.41219 21.4951 6.24097 20.3559 5.67672L20.352 5.68061Z" fill="#B58469"/>
</svg>
