<svg width="27" height="27" viewBox="0 0 27 27" fill="none" xmlns="http://www.w3.org/2000/svg">
<path d="M26.6753 13.2669C26.6753 14.1269 26.5887 14.979 26.4233 15.8233C26.254 16.6676 26.006 17.4884 25.6753 18.2816C25.3446 19.0749 24.9391 19.8328 24.4588 20.5475C23.9785 21.2622 23.4313 21.9258 22.821 22.5345C22.2108 23.1432 21.5455 23.6851 20.825 24.1642C20.1046 24.6433 19.3487 25.0478 18.5456 25.3776C17.7464 25.7075 16.9236 25.9549 16.0771 26.1238C15.2307 26.2926 14.3725 26.3751 13.5063 26.3751C12.6402 26.3751 11.7859 26.2926 10.9355 26.1238C10.0891 25.9549 9.26235 25.7075 8.4671 25.3776C7.66791 25.0478 6.90809 24.6433 6.18764 24.1642C5.46719 23.6851 4.80579 23.1432 4.19163 22.5345C3.58141 21.9258 3.03418 21.2622 2.55388 20.5475C2.07358 19.8328 1.66808 19.0749 1.33738 18.2816C1.00668 17.4844 0.75472 16.6676 0.58937 15.8233C0.420083 14.979 0.337402 14.1269 0.337402 13.2669C0.337402 12.4069 0.42402 11.5547 0.58937 10.7104C0.758656 9.86613 1.00668 9.04539 1.33738 8.25215C1.66808 7.45497 2.07358 6.701 2.55388 5.98629C3.03418 5.27158 3.58141 4.60792 4.19163 3.99924C4.80185 3.39056 5.46719 2.84472 6.18764 2.36955C6.90809 1.89046 7.66398 1.48991 8.46317 1.16005C9.26236 0.830182 10.0852 0.582783 10.9355 0.413923C11.782 0.245064 12.6402 0.162598 13.5063 0.162598C14.3725 0.162598 15.2268 0.245064 16.0771 0.413923C16.9236 0.582783 17.7503 0.830182 18.5456 1.16005C19.3448 1.48991 20.1046 1.89439 20.825 2.36955C21.5455 2.84864 22.2069 3.39056 22.821 3.99924C23.4313 4.60792 23.9785 5.27158 24.4588 5.98629C24.9391 6.701 25.3446 7.4589 25.6753 8.25215C26.006 9.04932 26.258 9.86613 26.4233 10.7104C26.5926 11.5547 26.6753 12.4069 26.6753 13.2669Z" fill="#B58469"/>
<path fill-rule="evenodd" clip-rule="evenodd" d="M7.40039 7.03872L10.9594 7.01123L19.5969 19.5225L16.0104 19.4911L7.40039 7.03872Z" fill="white"/>
<path d="M7.40039 7.03872L10.9594 7.01123L19.5969 19.5225L16.0065 19.4911L7.40039 7.03872Z" fill="#F8F8F8"/>
<path fill-rule="evenodd" clip-rule="evenodd" d="M18.1127 7.01123H19.219L8.46729 19.5225H7.40039L18.1127 7.01123Z" fill="white"/>
<path d="M18.1127 7.01123H19.219L8.46729 19.5225H7.40039L18.1127 7.01123Z" fill="#F8F8F8"/>
<path fill-rule="evenodd" clip-rule="evenodd" d="M8.86865 7.83154L10.5182 7.8394L18.144 18.7053L16.4944 18.7014L8.86865 7.83154Z" fill="#B58469"/>
</svg>
